<svg width="697" height="474" fill="none" xmlns="http://www.w3.org/2000/svg"><g clip-path="url(#clip0)"><path opacity=".5" d="M668.377 27.276l-65.523 369.286H-3468l128.79-369.286H668.377z" stroke="url(#paint0_linear)" stroke-width="2"/><g filter="url(#filter0_d)"><path d="M307.606 79.473c6 0 10.59 1.95 13.77 5.85 3.24 3.84 4.35 8.76 3.33 14.76-1.08 6.12-3.69 10.89-7.83 14.31-4.08 3.36-9.51 5.04-16.29 5.04h-27.9l11.07-63h43.2l-3.06 17.46h-25.2l-.99 5.58h9.9zm-2.43 22.68c.9-.72 1.47-1.71 1.71-2.97.24-1.26.03-2.25-.63-2.97-.6-.72-1.5-1.08-2.7-1.08h-8.64l-1.35 8.1h8.55c1.2 0 2.22-.36 3.06-1.08zm50.085 18.72c-6.84 0-12.69-1.68-17.55-5.04-4.86-3.42-8.25-7.68-10.17-12.78-1.86-5.16-2.34-10.56-1.44-16.2 1.44-8.7 5.55-16.17 12.33-22.41 6.84-6.3 15.24-9.45 25.2-9.45 5.16 0 9.78.99 13.86 2.97 4.08 1.92 7.29 4.47 9.63 7.65 2.34 3.18 3.99 6.78 4.95 10.8.96 3.96 1.11 8.04.45 12.24-1.38 8.76-5.43 16.32-12.15 22.68-6.66 6.36-15.03 9.54-25.11 9.54zm-8.91-21.96c2.4 2.88 5.82 4.32 10.26 4.32 4.44 0 8.37-1.44 11.79-4.32 3.42-2.94 5.52-6.6 6.3-10.98.78-4.38-.03-8.01-2.43-10.89-2.4-2.94-5.82-4.41-10.26-4.41-4.44 0-8.37 1.47-11.79 4.41-3.42 2.88-5.52 6.51-6.3 10.89-.78 4.38.03 8.04 2.43 10.98zm87.389-42.48h18l-11.07 63h-18l4.05-23.22h-15.3l-4.05 23.22h-18l11.07-63h18l-3.96 22.32h15.3l3.96-22.32zm56.693 0h19.8l-25.29 43.56c-4.08 6.96-8.79 11.91-14.13 14.85-5.34 2.94-11.97 4.47-19.89 4.59l2.97-16.74c4.8-.06 8.94-1.5 12.42-4.32l-13.68-41.94h18l7.29 24.03 12.51-24.03zm36.143 64.44c-9.78 0-17.37-3.21-22.77-9.63-5.34-6.42-7.23-14.49-5.67-24.21 1.5-9.36 5.73-17.04 12.69-23.04 7.02-6 15.15-9 24.39-9 12.36 0 21.21 5.16 26.55 15.48l-16.47 8.73c-2.46-4.38-6.36-6.57-11.7-6.57-4.32 0-8.13 1.44-11.43 4.32-3.3 2.88-5.34 6.54-6.12 10.98-.72 4.26 0 7.89 2.16 10.89 2.16 2.94 5.4 4.41 9.72 4.41 4.98 0 9.27-2.34 12.87-7.02l14.94 9.45c-3.24 4.8-7.41 8.55-12.51 11.25-5.04 2.64-10.59 3.96-16.65 3.96z" fill="#fff"/></g><path d="M347.892 135.064h10.2l-7.38 42h-12l5.04-28.86-7.44 1.74-1.02-10.62 12.6-4.26zm38.444 11.64h-14.28l-.78 3.06h1.86c4.28 0 7.64 1.28 10.08 3.84 2.44 2.56 3.24 6.18 2.4 10.86-.76 4.4-2.78 7.76-6.06 10.08-3.24 2.32-7.08 3.48-11.52 3.48-3.84 0-7.04-.84-9.6-2.52-2.56-1.68-4.32-4.16-5.28-7.44l11.1-5.82c.4 1.4 1 2.44 1.8 3.12.8.68 1.92 1.02 3.36 1.02 2.56 0 4.02-.96 4.38-2.88.2-.96 0-1.72-.6-2.28-.6-.56-1.42-.84-2.46-.84h-13.8l6.18-25.32h25.26l-2.04 11.64zm43.32.78c-.72 3.68-2.62 6.44-5.7 8.28 3.16 2.24 4.42 5.42 3.78 9.54-.52 3.52-2.26 6.36-5.22 8.52-2.92 2.16-6.74 3.24-11.46 3.24h-17.76l7.38-42h16.08c4.56 0 8.02 1.18 10.38 3.54 2.36 2.32 3.2 5.28 2.52 8.88zm-14.82-2.1h-3.96l-1.02 5.64 4.62-.06c1.76-.24 2.78-1.16 3.06-2.76.16-1-.04-1.72-.6-2.16-.52-.44-1.22-.66-2.1-.66zm1.2 18.36c.32-1.72-.36-2.7-2.04-2.94l-5.82-.06-1.08 6h5.04c1 0 1.84-.26 2.52-.78.72-.56 1.18-1.3 1.38-2.22zm51.513-28.68l-17.82 23.82-3.18 18.18h-12l3.18-18.12-9.42-23.88h12.6l4.08 12.72 8.52-12.72h14.04zm-7.362 42l7.38-42h9.6l9.66 20.16 3.54-20.16h12l-7.38 42h-9.6l-9.66-20.16-3.54 20.16h-12z" fill="#fff"/><path d="M305.922 145.06c5.115-.25 157.548 13.665 233.125 20.654" stroke="red" stroke-width="4"/><path d="M228.469 395.092l7.739-43.758 83.803-73.643c13.866-11.925 21.316-21.084 22.351-27.478.417-3.198-.268-5.802-2.057-7.812-1.788-2.21-4.582-3.325-8.382-3.346-10.4-.056-20.14 7.29-29.221 22.041l-49.037-29.968c9.89-16.547 22.459-29.078 37.706-37.595 15.247-8.517 31.37-12.729 48.37-12.636 20.399.112 36.962 7.002 49.687 20.672 12.727 13.47 17.233 30.695 13.518 51.675-2.267 12.387-6.425 22.865-12.472 31.432s-15.5 18.315-28.36 29.245l-27.729 23.549 56.399.308-10.518 58.144-151.797-.83zm335.258-149.97l-71.398-.39-3.984 15.278 9.3.051c21.4.117 38.164 6.609 50.294 19.475 12.13 12.867 16.031 30.988 11.703 54.365-3.92 21.979-14.111 38.723-30.575 50.234-16.263 11.511-35.494 17.206-57.694 17.085-19.199-.105-35.176-4.393-47.93-12.862-12.754-8.47-21.486-20.918-26.197-37.344l55.659-28.796c1.961 7.01 4.933 12.227 8.914 15.648 3.982 3.422 9.572 5.153 16.772 5.192 12.8.07 20.126-4.69 21.978-14.28 1.027-4.794.047-8.6-2.937-11.416-2.985-2.817-7.077-4.239-12.277-4.267l-68.999-.377 31.591-126.43 126.298.69-10.518 58.144z" fill="url(#paint1_linear)"/><path d="M228.469 395.092l-2.954-.522-.62 3.503 3.557.019.017-3zm7.739-43.758l-1.98-2.253-.791.694-.183 1.037 2.954.522zm83.803-73.643l-1.956-2.275-.012.011-.012.01 1.98 2.254zm22.351-27.478l2.961.479.008-.046.006-.045-2.975-.388zm-2.057-7.812l-2.333 1.887.045.055.047.053 2.241-1.995zm-37.603 18.695l-1.564 2.56 2.551 1.559 1.568-2.546-2.555-1.573zm-49.037-29.968l-2.575-1.54-1.524 2.55 2.534 1.549 1.565-2.559zm135.763-29.559l-2.195 2.044.007.008.008.008 2.18-2.06zm13.518 51.675l2.951.54.002-.009.001-.008-2.954-.523zm-12.472 31.432l-2.451-1.73 2.451 1.73zm-28.36 29.245l1.942 2.287.001-.001-1.943-2.286zm-27.729 23.549l-1.942-2.286-6.173 5.242 8.099.044.016-3zm56.399.308l2.952.534.636-3.514-3.571-.02-.017 3zm-10.518 58.144l-.016 3 2.52.014.449-2.48-2.953-.534zm-148.843-.307l7.739-43.758-5.908-1.045-7.739 43.758 5.908 1.045zm6.765-42.027l83.804-73.644-3.961-4.507-83.803 73.644 3.96 4.507zm83.78-73.623c7.002-6.022 12.477-11.423 16.357-16.194 3.825-4.702 6.353-9.092 6.998-13.079l-5.923-.959c-.389 2.408-2.103 5.794-5.729 10.252-3.57 4.388-8.753 9.529-15.616 15.431l3.913 4.549zm23.369-29.364c.505-3.873-.309-7.405-2.792-10.195l-4.481 3.99c1.095 1.23 1.653 2.906 1.323 5.428l5.95.777zm-2.7-10.087c-2.53-3.127-6.321-4.435-10.698-4.459l-.033 6c3.224.018 5.02.94 6.066 2.233l4.665-3.774zm-10.698-4.459c-12.006-.065-22.538 8.436-31.792 23.468l5.11 3.146c8.907-14.47 17.856-20.662 26.649-20.614l.033-6zm-27.673 22.481l-49.037-29.968-3.129 5.119 49.038 29.969 3.128-5.12zm-48.026-25.869c9.65-16.143 21.852-28.28 36.594-36.515l-2.926-5.238c-15.752 8.799-28.687 21.725-38.818 38.674l5.15 3.079zm36.594-36.515c14.808-8.271 30.423-12.345 46.89-12.255l.033-6c-17.532-.096-34.163 4.255-49.849 13.017l2.926 5.238zm46.89-12.255c19.658.108 35.402 6.711 47.509 19.716l4.391-4.088c-13.344-14.335-30.725-21.512-51.867-21.628l-.033 6zm47.524 19.732c11.97 12.67 16.322 28.887 12.744 49.092l5.908 1.046c3.852-21.756-.808-39.988-14.291-54.258l-4.361 4.12zm12.747 49.074c-2.204 12.045-6.221 22.096-11.972 30.243l4.902 3.46c6.344-8.987 10.642-19.891 12.972-32.622l-5.902-1.081zm-11.972 30.243c-5.84 8.275-15.082 17.837-27.852 28.689l3.886 4.572c12.951-11.007 22.615-20.942 28.868-29.801l-4.902-3.46zm-27.851 28.689l-27.729 23.549 3.884 4.573 27.729-23.549-3.884-4.573zm-25.803 28.835l56.399.308.033-6-56.399-.308-.033 6zm53.463-3.226l-10.518 58.144 5.905 1.068 10.517-58.144-5.904-1.068zm-7.549 55.678l-151.798-.83-.033 6 151.798.83.033-6zm183.444-147.8l-.016 3 2.52.014.449-2.48-2.953-.534zm-71.398-.39l.016-3-2.331-.013-.588 2.256 2.903.757zm-3.984 15.278l-2.903-.757-.974 3.736 3.861.021.016-3zm59.594 19.526l2.183-2.058-2.183 2.058zm11.703 54.365l-2.95-.546-.001.009-.002.01 2.953.527zm-30.575 50.234l-1.719-2.459-.007.005-.007.005 1.733 2.449zm-105.624 4.223l-1.66 2.499 1.66-2.499zm-26.197-37.344l-1.378-2.665-2.183 1.13.678 2.362 2.883-.827zm55.659-28.796l2.889-.809-.994-3.55-3.274 1.694 1.379 2.665zm8.914 15.648l-1.955 2.276 1.955-2.276zm38.75-9.088l-2.933-.628-.006.03-.006.029 2.945.569zm-2.937-11.416l-2.059 2.182 2.059-2.182zm-81.276-4.644l-2.911-.728-.926 3.707 3.821.021.016-3zm31.591-126.43l.017-3-2.356-.012-.571 2.285 2.91.727zm126.298.69l2.952.534.636-3.514-3.571-.02-.017 3zm-10.501 55.144l-71.399-.39-.033 6 71.399.39.033-6zm-74.318 1.853l-3.984 15.278 5.806 1.514 3.983-15.278-5.805-1.514zm-1.097 19.035l9.299.051.033-6-9.3-.051-.032 6zm9.299.051c20.765.113 36.677 6.386 48.128 18.533l4.366-4.116c-12.808-13.586-30.426-20.297-52.461-20.417l-.033 6zm48.128 18.533c11.262 11.946 15.155 28.973 10.936 51.761l5.9 1.092c4.437-23.965.528-43.181-12.47-56.969l-4.366 4.116zm10.933 51.78c-3.798 21.292-13.604 37.299-29.341 48.302l3.438 4.917c17.19-12.018 27.767-29.5 31.81-52.165l-5.907-1.054zm-29.355 48.312c-15.694 11.108-34.296 16.652-55.944 16.534l-.033 6c22.751.124 42.611-5.723 59.444-17.637l-3.467-4.897zM471.39 398.22c-18.764-.103-34.131-4.289-46.288-12.362l-3.319 4.999c13.352 8.866 29.938 13.255 49.574 13.363l.033-6zm-46.288-12.362c-12.09-8.029-20.434-19.845-24.972-35.671l-5.767 1.654c4.882 17.026 14.003 30.105 27.42 39.016l3.319-4.999zm-26.477-32.18l55.658-28.796-2.757-5.329-55.658 28.796 2.757 5.329zm51.391-30.652c2.061 7.368 5.275 13.185 9.848 17.116l3.911-4.551c-3.39-2.913-6.12-7.528-7.981-14.182l-5.778 1.617zm9.848 17.116c4.692 4.033 11.063 5.874 18.711 5.916l.033-6c-6.753-.037-11.563-1.656-14.833-4.467l-3.911 4.551zm18.711 5.916c6.728.037 12.412-1.186 16.745-4.002 4.43-2.878 7.134-7.218 8.195-12.709l-5.891-1.138c-.792 4.099-2.677 6.934-5.573 8.816-2.993 1.945-7.372 3.066-13.443 3.033l-.033 6zm24.928-16.652c1.196-5.586.094-10.54-3.812-14.226l-4.118 4.364c2.063 1.946 2.92 4.603 2.063 8.606l5.867 1.256zm-3.812-14.226c-3.674-3.467-8.571-5.054-14.32-5.085l-.032 6c4.651.025 7.938 1.283 10.234 3.449l4.118-4.364zm-14.32-5.085l-68.999-.377-.032 6 68.999.377.032-6zm-66.105 3.35l31.592-126.429-5.821-1.455-31.592 126.429 5.821 1.455zm28.665-124.157l126.298.69.033-6-126.298-.69-.033 6zm123.362-2.844l-10.518 58.144 5.905 1.068 10.517-58.144-5.904-1.068z" fill="url(#paint2_linear)"/><g filter="url(#filter1_d)"><path d="M535.178 370.068c-.74 3.676-2.655 6.426-5.745 8.249 3.148 2.257 4.39 5.444 3.728 9.561-.54 3.517-2.295 6.347-5.267 8.491-2.932 2.144-6.757 3.203-11.477 3.177l-17.76-.097 7.609-41.959 16.08.088c4.56.025 8.014 1.224 10.361 3.597 2.347 2.332 3.171 5.297 2.471 8.893zm-14.808-2.181l-3.96-.021-1.051 5.634 4.62-.035c1.762-.23 2.787-1.145 3.075-2.743.166-.999-.03-1.72-.588-2.163-.518-.443-1.216-.667-2.096-.672zm1.099 18.367c.33-1.719-.345-2.702-2.024-2.951l-5.819-.092-1.113 5.994 5.04.027c1 .006 1.841-.25 2.524-.766.723-.556 1.187-1.293 1.392-2.212zm54.669-28.382l-17.95 23.722-3.279 18.163-12-.066 3.279-18.102-9.289-23.932 12.599.069 4.011 12.742 8.589-12.673 14.04.077zm-4.591 41.975l7.609-41.959 9.6.053 9.549 20.212 3.651-20.14 11.999.065-7.609 41.96-9.6-.053-9.55-20.212-3.65 20.14-11.999-.066z" fill="url(#paint3_linear)"/><path d="M535.178 370.068l1.471.296.001-.009-1.472-.287zm-5.745 8.249l-.762-1.292-1.983 1.17 1.871 1.341.874-1.219zm3.728 9.561l-1.481-.239-.002.011 1.483.228zm-5.267 8.491l-.877-1.217-.008.006.885 1.211zm-29.237 3.08l-1.476-.267-.319 1.757 1.787.01.008-1.5zm7.609-41.959l.009-1.5-1.26-.007-.225 1.239 1.476.268zm26.441 3.685l-1.067 1.055.009.009 1.058-1.064zm-16.297 6.691l.008-1.5-1.253-.007-.23 1.232 1.475.275zm-1.051 5.634l-1.475-.275-.333 1.789 1.819-.014-.011-1.5zm4.62-.035l.012 1.5h.092l.091-.012-.195-1.488zm3.075-2.743l1.476.267.002-.011.002-.011-1.48-.245zm-.588-2.163l-.975 1.14.021.017.021.017.933-1.174zm-.997 17.695l1.464.326.005-.022.005-.022-1.474-.282zm-2.024-2.951l.221-1.484-.098-.015-.099-.001-.024 1.5zm-5.819-.092l.024-1.5-1.268-.02-.231 1.246 1.475.274zm-1.113 5.994l-1.475-.274-.327 1.764 1.794.01.008-1.5zm7.564-.739l.905 1.197.01-.008-.915-1.189zm13.631-18.694c-.661 3.28-2.332 5.657-5.037 7.253l1.524 2.584c3.475-2.05 5.634-5.173 6.454-9.245l-2.941-.592zm-5.149 9.764c1.37.982 2.267 2.121 2.769 3.409.505 1.295.65 2.842.352 4.694l2.962.477c.364-2.265.219-4.369-.519-6.261-.74-1.899-2.038-3.482-3.816-4.757l-1.748 2.438zm3.119 8.114c-.476 3.107-2.005 5.586-4.661 7.502l1.755 2.433c3.287-2.371 5.269-5.552 5.871-9.48l-2.965-.455zm-4.669 7.508c-2.605 1.905-6.089 2.913-10.584 2.888l-.016 3c4.944.027 9.112-1.083 12.371-3.466l-1.771-2.422zm-10.584 2.888l-17.76-.097-.016 3 17.76.097.016-3zm-16.292 1.671l7.609-41.959-2.952-.536-7.609 41.96 2.952.535zm6.125-40.727l16.08.088.016-3-16.079-.088-.017 3zm16.08.088c4.311.024 7.325 1.152 9.302 3.151l2.133-2.109c-2.717-2.747-6.61-4.016-11.419-4.042l-.016 3zm9.311 3.161c1.95 1.937 2.673 4.376 2.057 7.543l2.944.573c.784-4.026-.141-7.516-2.886-10.244l-2.115 2.128zm-11.271 4.148l-3.96-.021-.016 3 3.96.021.016-3zm-5.443 1.204l-1.051 5.634 2.95.55 1.05-5.634-2.949-.55zm.435 7.409l4.621-.035-.023-3-4.62.035.022 3zm4.804-.047c1.092-.143 2.098-.518 2.894-1.227.806-.719 1.27-1.671 1.462-2.737l-2.952-.534c-.096.533-.289.837-.508 1.032-.23.206-.617.403-1.285.491l.389 2.975zm4.36-3.986c.213-1.283.018-2.666-1.135-3.583l-1.866 2.349c.016.013.032.024.051.092.025.093.05.294-.01.652l2.96.49zm-1.093-3.548c-.858-.734-1.934-1.025-3.063-1.032l-.016 3c.63.004.952.16 1.129.312l1.95-2.28zm-.498 19.117c.205-1.069.156-2.208-.496-3.157-.658-.961-1.707-1.401-2.781-1.56l-.441 2.967c.605.09.732.266.748.29.024.034.148.246.023.895l2.947.565zm-3.474-4.733l-5.819-.092-.048 3 5.82.091.047-2.999zm-7.318 1.134l-1.113 5.994 2.95.548 1.113-5.994-2.95-.548zm.354 7.768l5.04.027.016-3-5.04-.027-.016 3zm5.04.027c1.272.007 2.449-.322 3.437-1.069l-1.809-2.393c-.378.285-.884.466-1.612.462l-.016 3zm3.447-1.077c1.011-.778 1.663-1.825 1.941-3.075l-2.928-.653c-.131.588-.407 1.016-.842 1.35l1.829 2.378zm55.146-31.783l1.196.905 1.808-2.389-2.996-.016-.008 1.5zm-17.95 23.722l-1.196-.905-.216.286-.064.353 1.476.266zm-3.279 18.163l-.008 1.499 1.26.007.224-1.24-1.476-.266zm-12-.066l-1.476-.267-.318 1.757 1.786.01.008-1.5zm3.279-18.102l1.476.267.075-.416-.153-.394-1.398.543zm-9.289-23.932l.008-1.499-2.204-.013.797 2.055 1.399-.543zm12.599.069l1.431-.45-.328-1.044-1.094-.006-.009 1.5zm4.011 12.742l-1.431.451.932 2.96 1.741-2.569-1.242-.842zm8.589-12.673l.008-1.5-.8-.004-.449.663 1.241.841zm12.844-.828l-17.95 23.722 2.392 1.81 17.95-23.722-2.392-1.81zm-18.23 24.361l-3.279 18.162 2.952.533 3.279-18.162-2.952-.533zm-1.795 16.929l-12-.066-.016 3 12 .065.016-2.999zm-10.532 1.701l3.279-18.102-2.952-.535-3.279 18.103 2.952.534zm3.201-18.912l-9.289-23.931-2.797 1.085 9.29 23.931 2.796-1.085zm-10.696-21.889l12.6.069.017-3-12.6-.068-.017 2.999zm11.178-.98l4.01 12.742 2.862-.901-4.011-12.742-2.861.901zm6.683 13.133l8.589-12.673-2.483-1.683-8.59 12.673 2.484 1.683zm7.339-12.015l14.04.077.016-3-14.04-.077-.016 3zm9.457 40.552l-1.476-.267-.319 1.758 1.786.009.009-1.5zm7.609-41.959l.008-1.5-1.259-.007-.225 1.24 1.476.267zm9.6.053l1.356-.641-.404-.854-.944-.005-.008 1.5zm9.549 20.212l-1.356.641 1.998 4.229.834-4.602-1.476-.268zm3.651-20.14l.008-1.5-1.26-.007-.224 1.239 1.476.268zm11.999.065l1.476.268.319-1.758-1.786-.01-.009 1.5zm-7.609 41.96l-.008 1.5 1.259.006.225-1.239-1.476-.267zm-9.6-.053l-1.356.641.403.854.945.005.008-1.5zm-9.55-20.212l1.357-.641-1.998-4.229-.835 4.602 1.476.268zm-3.65 20.14l-.008 1.5 1.26.007.224-1.24-1.476-.267zm-10.524.202l7.61-41.959-2.952-.535-7.609 41.959 2.951.535zm6.126-40.727l9.6.053.016-3-9.6-.053-.016 3zm8.251-.806l9.55 20.212 2.713-1.282-9.55-20.212-2.713 1.282zm12.382 19.839l3.65-20.141-2.951-.535-3.651 20.141 2.952.535zm2.166-18.908l12 .065.017-3-12-.065-.017 3zm10.532-1.702l-7.609 41.959 2.952.535 7.609-41.959-2.952-.535zm-6.125 40.727l-9.6-.053-.016 3 9.6.053.016-3zm-8.252.806l-9.549-20.212-2.713 1.281 9.55 20.213 2.712-1.282zm-12.382-19.839l-3.65 20.14 2.952.535 3.65-20.14-2.952-.535zm-2.165 18.908l-12-.066-.017 3 12 .066.017-3z" fill="url(#paint4_linear)"/></g><ellipse cx="273.219" cy="206.801" rx="66.301" ry="12.404" transform="rotate(-48.699 273.219 206.801)" fill="url(#paint5_diamond)"/><g filter="url(#filter2_d)"><path d="M246.652 413.763h8l-4.92 28h-8l1.8-10.32h-6.8l-1.8 10.32h-8l4.92-28h8l-1.76 9.92h6.8l1.76-9.92zm21.597 28.64c-3.04 0-5.64-.747-7.8-2.24-2.16-1.52-3.667-3.414-4.52-5.68-.827-2.294-1.04-4.694-.64-7.2.64-3.867 2.466-7.187 5.48-9.96 3.04-2.8 6.773-4.2 11.2-4.2 2.293 0 4.346.44 6.16 1.32 1.813.853 3.24 1.986 4.28 3.4 1.04 1.413 1.773 3.013 2.2 4.8.426 1.76.493 3.573.2 5.44-.614 3.893-2.414 7.253-5.4 10.08-2.96 2.826-6.68 4.24-11.16 4.24zm-3.96-9.76c1.066 1.28 2.586 1.92 4.56 1.92 1.973 0 3.72-.64 5.24-1.92 1.52-1.307 2.453-2.934 2.8-4.88.346-1.947-.014-3.56-1.08-4.84-1.067-1.307-2.587-1.96-4.56-1.96-1.974 0-3.72.653-5.24 1.96-1.52 1.28-2.454 2.893-2.8 4.84-.347 1.946.013 3.573 1.08 4.88zm45.359-10.6c-.48 2.453-1.746 4.293-3.8 5.52 2.107 1.493 2.947 3.613 2.52 6.36-.346 2.346-1.506 4.24-3.48 5.68-1.946 1.44-4.493 2.16-7.64 2.16h-11.84l4.92-28h10.72c3.04 0 5.347.786 6.92 2.36 1.574 1.546 2.134 3.52 1.68 5.92zm-9.88-1.4h-2.64l-.68 3.76 3.08-.04c1.174-.16 1.854-.774 2.04-1.84.107-.667-.026-1.147-.4-1.44-.346-.294-.813-.44-1.4-.44zm.8 12.24c.214-1.147-.24-1.8-1.36-1.96l-3.88-.04-.72 4h3.36c.667 0 1.227-.174 1.68-.52.48-.374.787-.867.92-1.48zm9.059 8.88l4.92-28h8l-1.4 7.92h3.24c2.694 0 4.88.986 6.56 2.96 1.707 1.973 2.294 4.466 1.76 7.48-.533 3.013-1.84 5.373-3.92 7.08-2.08 1.706-4.733 2.56-7.96 2.56h-11.2zm23.6.04l4.92-28h8l-4.92 28h-8zm-14.24-7.8h3.2c.614 0 1.174-.2 1.68-.6.507-.427.814-.987.92-1.68.134-.694.014-1.24-.36-1.64-.346-.427-.826-.64-1.44-.64h-3.2l-.8 4.56zm60.346-20.24l-4.92 28h-8l2.36-13.48-7.84 10.32h-.72l-4.56-10.84-2.44 14h-8l4.92-28h8l4.2 11.48 8.6-11.48h8.4zm7.091 28l4.92-28h8l-2.16 12.4 10.96-12.4h6.4l-4.92 28h-8l2.16-12.4-10.96 12.4h-6.4zm49.308-28l-1.36 7.76h-9.2l-3.56 20.24h-8l4.92-28h17.2zm13.018 0c2.72 0 4.934.96 6.64 2.88 1.734 1.893 2.374 4.413 1.92 7.56-.426 2.933-1.693 5.28-3.8 7.04-2.08 1.733-4.773 2.6-8.08 2.6h-3.2l-1.4 7.92h-8l4.92-28h11zm.64 10.04c.134-.747-.013-1.307-.44-1.68-.426-.4-.946-.6-1.56-.6h-3l-.8 4.56h3.2c.614 0 1.174-.2 1.68-.6.507-.427.814-.987.92-1.68zm22.14 18.6c-3.04 0-5.64-.747-7.8-2.24-2.16-1.52-3.667-3.414-4.52-5.68-.827-2.294-1.04-4.694-.64-7.2.64-3.867 2.467-7.187 5.48-9.96 3.04-2.8 6.773-4.2 11.2-4.2 2.293 0 4.347.44 6.16 1.32 1.813.853 3.24 1.986 4.28 3.4 1.04 1.413 1.773 3.013 2.2 4.8.427 1.76.493 3.573.2 5.44-.613 3.893-2.413 7.253-5.4 10.08-2.96 2.826-6.68 4.24-11.16 4.24zm-3.96-9.76c1.067 1.28 2.587 1.92 4.56 1.92 1.973 0 3.72-.64 5.24-1.92 1.52-1.307 2.453-2.934 2.8-4.88.347-1.947-.013-3.56-1.08-4.84-1.067-1.307-2.587-1.96-4.56-1.96-1.973 0-3.72.653-5.24 1.96-1.52 1.28-2.453 2.893-2.8 4.84-.347 1.946.013 3.573 1.08 4.88zm49.6-18.88l-11.08 14.04 6.44 13.96h-8.36l-5.36-12.04-2.12 12.04h-8l4.92-28h8l-1.88 10.8 8.16-10.8h9.28zm14.6 28l-.32-3.6h-8.08l-1.6 3.6h-8.84l13.84-28h9.36l4 28h-8.36zm-5.56-10h4.64l-.8-8.6-3.84 8.6zm49.647-18l-4.92 28h-8l2.36-13.48-7.84 10.32h-.72l-4.56-10.84-2.44 14h-8l4.92-28h8l4.2 11.48 8.6-11.48h8.4z" fill="#fff"/></g></g><defs><linearGradient id="paint0_linear" x1="1236.19" y1="211.919" x2="-201.224" y2="211.919" gradientUnits="userSpaceOnUse"><stop stop-color="#0CFC4F" stop-opacity=".8"/><stop offset="1" stop-color="#0CFC4F" stop-opacity="0"/></linearGradient><linearGradient id="paint1_linear" x1="462.502" y1="77.414" x2="462.138" y2="361.443" gradientUnits="userSpaceOnUse"><stop stop-color="#FDFFFC"/><stop offset=".141" stop-color="#C2FFC8"/><stop offset=".318" stop-color="#98FFB5"/><stop offset=".62" stop-color="#00BB29"/><stop offset=".766" stop-color="#01AF3C"/><stop offset="1" stop-color="#009C35"/></linearGradient><linearGradient id="paint2_linear" x1="391.05" y1="238.854" x2="494.425" y2="401.182" gradientUnits="userSpaceOnUse"><stop stop-color="#E0FEE7"/><stop offset="1" stop-color="#81FFA4"/></linearGradient><linearGradient id="paint3_linear" x1="584.131" y1="320.664" x2="583.939" y2="389.264" gradientUnits="userSpaceOnUse"><stop stop-color="#FDFFFC"/><stop offset=".141" stop-color="#C2FFC8"/><stop offset=".318" stop-color="#98FFB5"/><stop offset=".62" stop-color="#00BB29"/><stop offset=".766" stop-color="#01AF3C"/><stop offset="1" stop-color="#009C35"/></linearGradient><linearGradient id="paint4_linear" x1="557.144" y1="359.602" x2="576.305" y2="407.039" gradientUnits="userSpaceOnUse"><stop stop-color="#E0FEE7"/><stop offset="1" stop-color="#81FFA4"/></linearGradient><filter id="filter0_d" x="252.687" y="38.993" width="329.079" height="105.88" filterUnits="userSpaceOnUse" color-interpolation-filters="sRGB"><feFlood flood-opacity="0" result="BackgroundImageFix"/><feColorMatrix in="SourceAlpha" values="0 0 0 0 0 0 0 0 0 0 0 0 0 0 0 0 0 0 127 0"/><feOffset dy="4"/><feGaussianBlur stdDeviation="10"/><feColorMatrix values="0 0 0 0 1 0 0 0 0 1 0 0 0 0 1 0 0 0 0.5 0"/><feBlend in2="BackgroundImageFix" result="effect1_dropShadow"/><feBlend in="SourceGraphic" in2="effect1_dropShadow" result="shape"/></filter><filter id="filter1_d" x="448.657" y="311.49" width="215.298" height="142.547" filterUnits="userSpaceOnUse" color-interpolation-filters="sRGB"><feFlood flood-opacity="0" result="BackgroundImageFix"/><feColorMatrix in="SourceAlpha" values="0 0 0 0 0 0 0 0 0 0 0 0 0 0 0 0 0 0 127 0"/><feOffset dy="4"/><feGaussianBlur stdDeviation="25"/><feColorMatrix values="0 0 0 0 0 0 0 0 0 0 0 0 0 0 0 0 0 0 0.5 0"/><feBlend in2="BackgroundImageFix" result="effect1_dropShadow"/><feBlend in="SourceGraphic" in2="effect1_dropShadow" result="shape"/></filter><filter id="filter2_d" x="206.932" y="397.123" width="388.925" height="69.28" filterUnits="userSpaceOnUse" color-interpolation-filters="sRGB"><feFlood flood-opacity="0" result="BackgroundImageFix"/><feColorMatrix in="SourceAlpha" values="0 0 0 0 0 0 0 0 0 0 0 0 0 0 0 0 0 0 127 0"/><feOffset dy="4"/><feGaussianBlur stdDeviation="10"/><feColorMatrix values="0 0 0 0 1 0 0 0 0 1 0 0 0 0 1 0 0 0 0.5 0"/><feBlend in2="BackgroundImageFix" result="effect1_dropShadow"/><feBlend in="SourceGraphic" in2="effect1_dropShadow" result="shape"/></filter><radialGradient id="paint5_diamond" cx="0" cy="0" r="1" gradientUnits="userSpaceOnUse" gradientTransform="matrix(0 12.4037 -66.3008 0 273.219 206.801)"><stop stop-color="#FDFEFD"/><stop offset=".432" stop-color="#00FF1A" stop-opacity=".38"/><stop offset="1" stop-color="#58E466" stop-opacity="0"/></radialGradient><clipPath id="clip0"><path fill="#fff" transform="translate(-57)" d="M0 0h754v474H0z"/></clipPath></defs></svg>