<svg width="760" height="467" fill="none" xmlns="http://www.w3.org/2000/svg"><g clip-path="url(#clip0)"><path opacity=".5" d="M36.755 433.353l65.523-369.285H4173.13l-128.79 369.285H36.755z" stroke="url(#paint0_linear)" stroke-width="2"/><path d="M262.855 248.753l-9.895 53.946-21-.114-5.567 30.57-58.799-.322 5.567-30.57-88.199-.482 9.895-53.946 79.284-124.969 69.299.379-80.484 124.962 20.1.11 5.26-29.372 58.799.321-5.26 29.372 21 .115zm58.104-15.883c-16.599-.091-29.668-5.962-39.204-17.615-9.337-11.651-12.561-25.469-9.674-41.453 2.887-15.785 10.558-28.843 23.015-39.175 12.657-10.531 27.386-15.751 44.186-15.659 16.4.09 29.268 5.96 38.604 17.611 9.537 11.653 12.861 25.471 9.974 41.455-2.887 15.985-10.559 29.143-23.016 39.475-12.457 10.332-27.085 15.453-43.885 15.361zm-33.07 67.62l167.316-148.788 18.532 12.401-167.315 148.789-18.533-12.402zm39.3-109.587c4.2.023 7.908-1.457 11.124-4.439 3.416-2.982 5.536-6.47 6.357-10.466.823-4.195.042-7.699-2.342-10.513-2.184-3.011-5.376-4.529-9.575-4.552-4.2-.023-7.909 1.457-11.125 4.439-3.215 2.783-5.234 6.272-6.057 10.467-.822 3.996-.141 7.5 2.042 10.512 2.384 3.013 5.576 4.53 9.576 4.552zm100.592 148.152c-16.6-.091-29.668-5.962-39.205-17.614-9.336-11.652-12.561-25.469-9.673-41.454 2.886-15.784 10.558-28.843 23.014-39.175 12.658-10.531 27.387-15.75 44.186-15.659 16.4.09 29.268 6.06 38.603 17.912 9.537 11.652 12.862 25.37 9.975 41.155-2.887 15.984-10.559 29.142-23.016 39.474-12.456 10.333-27.084 15.453-43.884 15.361zm6.229-41.967c4.2.023 7.908-1.456 11.125-4.439 3.416-2.981 5.535-6.47 6.357-10.465.822-3.996.041-7.5-2.343-10.513-2.183-3.012-5.375-4.53-9.575-4.553-4.2-.023-7.908 1.457-11.124 4.44-3.216 2.782-5.235 6.271-6.058 10.467-.822 3.995-.141 7.499 2.043 10.511 2.383 3.013 5.575 4.531 9.575 4.552z" fill="url(#paint1_linear)"/><path d="M262.855 248.753l2.95.541.646-3.522-3.58-.019-.016 3zm-9.895 53.946l-.017 3 2.514.014.453-2.472-2.95-.542zm-21-.114l.016-3-2.517-.014-.45 2.476 2.951.538zm-5.567 30.57l-.017 3 2.517.013.451-2.476-2.951-.537zm-58.799-.322l-2.952-.537-.64 3.518 3.575.019.017-3zm5.567-30.57l2.951.538.641-3.518-3.576-.02-.016 3zm-88.199-.482l-2.95-.541-.647 3.522 3.58.019.017-3zm9.895-53.946l-2.533-1.607-.313.492-.105.573 2.951.542zm79.284-124.969l.016-3-1.66-.009-.889 1.402 2.533 1.607zm69.299.379l2.522 1.624 2.959-4.594-5.465-.03-.016 3zm-80.484 124.962l-2.522-1.625-2.959 4.595 5.465.03.016-3zm20.1.11l-.017 3 2.525.013.445-2.485-2.953-.528zm5.26-29.372l.017-3-2.525-.014-.445 2.485 2.953.529zm58.799.321l2.953.529.629-3.509-3.565-.02-.017 3zm-5.26 29.372l-2.953-.529-.629 3.509 3.565.02.017-3zm18.049-.427l-9.895 53.947 5.901 1.083 9.895-53.947-5.901-1.083zm-6.928 51.488l-21-.114-.032 6 20.999.114.033-6zm-23.967 2.348l-5.568 30.57 5.903 1.075 5.567-30.57-5.902-1.075zm-2.6 28.108l-58.799-.322-.033 6 58.799.322.033-6zm-55.864 3.216l5.567-30.57-5.903-1.075-5.567 30.57 5.903 1.075zm2.632-34.108l-88.198-.481-.033 5.999 88.198.482.033-6zm-85.264 3.06l9.895-53.947-5.902-1.083-9.895 53.947 5.902 1.083zm9.477-52.881l79.284-124.969-5.066-3.214-79.284 124.969 5.066 3.214zm76.735-123.576l69.299.379.032-6-69.299-.379-.032 6zm66.793-4.246l-80.484 124.962 5.044 3.249 80.484-124.962-5.044-3.249zM162.94 251.207l20.099.11.033-6-20.1-.11-.032 6zm23.069-2.362l5.26-29.371-5.906-1.058-5.26 29.372 5.906 1.057zm2.291-26.9l58.799.321.033-6-58.799-.321-.033 6zm55.862-3.208l-5.26 29.372 5.906 1.058 5.26-29.372-5.906-1.058zm-2.324 32.901l21 .115.033-6-21-.115-.033 6zm39.917-36.383l-2.341 1.876.01.012.009.012 2.322-1.9zm-9.674-41.453l-2.951-.54-.001.007 2.952.533zm23.015-39.175l1.915 2.309.003-.003-1.918-2.306zm82.79 1.952l-2.341 1.876.01.012.01.012 2.321-1.9zm9.974 41.455l-2.952-.533 2.952.533zm-23.016 39.475l1.915 2.309-1.915-2.309zm-76.955 82.981l-1.993-2.242-2.899 2.578 3.224 2.157 1.668-2.493zm167.316-148.788l1.668-2.493-1.928-1.291-1.734 1.542 1.994 2.242zm18.532 12.401l1.994 2.242 2.899-2.578-3.224-2.157-1.669 2.493zM306.422 312.892l-1.668 2.493 1.928 1.29 1.734-1.542-1.994-2.241zm31.891-126.428l-1.972-2.26-.035.029-.033.031 2.04 2.2zm6.357-10.466l2.939.605.003-.014.002-.013-2.944-.578zm-2.342-10.513l-2.429 1.761.067.093.073.086 2.289-1.94zm-20.7-.113l1.963 2.269.039-.034.038-.035-2.04-2.2zm-6.057 10.467l2.938.605.003-.014.003-.013-2.944-.578zm2.042 10.512l-2.428 1.761.037.051.039.049 2.352-1.861zm70.963 135.09l-2.341 1.875.01.013.01.012 2.321-1.9zm-9.673-41.454l-2.951-.54-.001.007 2.952.533zm23.014-39.175l1.915 2.309.004-.003-1.919-2.306zm82.789 2.253l-2.357 1.856.018.022.017.022 2.322-1.9zm9.975 41.155l-2.951-.54-.001.006 2.952.534zm-23.016 39.474l-1.915-2.309 1.915 2.309zm-26.53-31.045l-1.973-2.26-.034.03-.033.03 2.04 2.2zm6.357-10.465l-2.939-.605 2.939.605zm-2.343-10.513l-2.429 1.761.037.051.039.049 2.353-1.861zm-20.699-.113l1.963 2.268.039-.034.037-.035-2.039-2.199zm-6.058 10.467l2.939.604.003-.013.002-.014-2.944-.577zm2.043 10.511l-2.429 1.761.037.051.039.049 2.353-1.861zM320.976 229.87c-15.81-.087-27.992-5.631-36.899-16.515l-4.644 3.8c10.166 12.421 24.12 18.62 41.51 18.715l.033-6zm-36.88-16.491c-8.742-10.91-11.811-23.828-9.062-39.044l-5.905-1.066c-3.026 16.753.354 31.47 10.285 43.862l4.682-3.752zm-9.064-39.038c2.759-15.084 10.06-27.518 21.979-37.405l-3.831-4.618c-12.993 10.778-21.036 24.46-24.05 40.944l5.902 1.079zm21.982-37.408c12.103-10.069 26.143-15.053 42.251-14.965l.033-6c-17.49-.095-32.908 5.36-46.121 16.353l3.837 4.612zm42.251-14.965c15.597.085 27.57 5.618 36.28 16.487l4.682-3.752c-9.962-12.432-23.726-18.641-40.929-18.735l-.033 6zm36.3 16.511c8.932 10.915 12.088 23.825 9.343 39.022l5.904 1.067c3.03-16.772-.464-31.498-10.604-43.889l-4.643 3.8zm9.343 39.022c-2.763 15.292-10.069 27.82-21.979 37.699l3.83 4.618c13.003-10.785 21.041-24.573 24.053-41.25l-5.904-1.067zM362.929 215.2c-11.892 9.864-25.829 14.758-41.953 14.67l-.033 6c17.476.095 32.795-5.251 45.816-16.052l-3.83-4.618zm-73.046 87.532l167.315-148.788-3.987-4.484-167.315 148.788 3.987 4.484zm163.653-148.537l18.533 12.402 3.337-4.987-18.533-12.401-3.337 4.986zm18.208 7.667L304.428 310.65l3.988 4.483 167.315-148.788-3.987-4.483zM308.09 310.398l-18.532-12.401-3.337 4.986 18.533 12.402 3.336-4.987zm19.082-116.495c4.999.027 9.433-1.764 13.181-5.239l-4.08-4.4c-2.685 2.49-5.667 3.658-9.068 3.639l-.033 6zm13.114-5.179c3.852-3.362 6.354-7.411 7.323-12.121l-5.877-1.209c-.675 3.281-2.411 6.209-5.391 8.81l3.945 4.52zm7.328-12.148c.967-4.931.075-9.406-2.998-13.03l-4.577 3.879c1.697 2.002 2.366 4.535 1.687 7.996l5.888 1.155zm-2.857-12.851c-2.823-3.894-6.974-5.764-11.988-5.792l-.033 6c3.386.019 5.619 1.183 7.163 3.313l4.858-3.521zm-11.988-5.792c-4.999-.027-9.433 1.764-13.181 5.24l4.08 4.399c2.685-2.489 5.667-3.658 9.068-3.639l.033-6zm-13.104 5.171c-3.725 3.223-6.087 7.309-7.038 12.158l5.888 1.155c.695-3.542 2.371-6.435 5.076-8.776l-3.926-4.537zm-7.033 12.131c-.973 4.732-.176 9.113 2.553 12.877l4.857-3.522c-1.638-2.26-2.203-4.887-1.533-8.146l-5.877-1.209zm2.629 12.977c2.975 3.761 7.043 5.665 11.911 5.691l.033-6c-3.132-.017-5.447-1.149-7.239-3.413l-4.705 3.722zm112.536 147.843c-15.809-.086-27.991-5.631-36.899-16.515l-4.643 3.801c10.165 12.42 24.12 18.619 41.509 18.714l.033-6zm-36.879-16.49c-8.743-10.91-11.811-23.829-9.063-39.045l-5.904-1.066c-3.027 16.753.354 31.47 10.284 43.862l4.683-3.751zm-9.064-39.038c2.758-15.085 10.059-27.519 21.978-37.406l-3.83-4.618c-12.994 10.778-21.036 24.46-24.05 40.944l5.902 1.08zm21.982-37.409c12.102-10.069 26.142-15.053 42.251-14.965l.033-6c-17.491-.095-32.909 5.36-46.122 16.353l3.838 4.612zm42.251-14.965c15.577.085 27.546 5.703 36.262 16.768l4.714-3.713c-9.955-12.637-23.721-18.961-40.943-19.055l-.033 6zm36.297 16.812c8.939 10.921 12.086 23.732 9.346 38.715l5.902 1.079c3.033-16.586-.47-31.211-10.604-43.595l-4.644 3.801zm9.345 38.721c-2.762 15.292-10.068 27.82-21.979 37.699l3.831 4.619c13.003-10.786 21.04-24.574 24.053-41.251l-5.905-1.067zm-21.979 37.699c-11.892 9.864-25.829 14.758-41.953 14.67l-.033 6c17.476.095 32.795-5.251 45.817-16.051l-3.831-4.619zm-35.756-21.297c4.998.028 9.433-1.764 13.18-5.239l-4.079-4.4c-2.685 2.49-5.667 3.658-9.068 3.639l-.033 6zm13.113-5.179c3.853-3.362 6.355-7.411 7.323-12.121l-5.877-1.209c-.675 3.281-2.411 6.209-5.391 8.81l3.945 4.52zm7.323-12.121c.988-4.802.043-9.223-2.928-12.979l-4.706 3.723c1.797 2.27 2.413 4.858 1.757 8.047l5.877 1.209zm-2.852-12.878c-2.823-3.894-6.974-5.764-11.988-5.792l-.032 6c3.386.019 5.618 1.183 7.162 3.314l4.858-3.522zm-11.988-5.792c-4.998-.027-9.432 1.764-13.18 5.24l4.079 4.399c2.685-2.489 5.667-3.657 9.069-3.639l.032-6zm-13.104 5.171c-3.724 3.224-6.086 7.309-7.038 12.158l5.888 1.155c.695-3.542 2.371-6.434 5.077-8.776l-3.927-4.537zm-7.032 12.131c-.973 4.732-.177 9.113 2.552 12.877l4.858-3.522c-1.639-2.26-2.204-4.887-1.533-8.146l-5.877-1.209zm2.628 12.977c2.976 3.761 7.044 5.665 11.912 5.691l.033-6c-3.132-.017-5.448-1.148-7.239-3.413l-4.706 3.722z" fill="url(#paint2_linear)"/><ellipse cx="171.839" cy="127.169" rx="80.689" ry="15.095" transform="rotate(-49.355 171.839 127.169)" fill="url(#paint3_diamond)"/><g filter="url(#filter0_d)"><path d="M184.524 56.105c6 0 10.59 1.95 13.77 5.85 3.24 3.84 4.35 8.76 3.33 14.76-1.08 6.12-3.69 10.89-7.83 14.31-4.08 3.36-9.51 5.04-16.29 5.04h-27.9l11.07-63h43.2l-3.06 17.46h-25.2l-.99 5.58h9.9zm-2.43 22.68c.9-.72 1.47-1.71 1.71-2.97.24-1.26.03-2.25-.63-2.97-.6-.72-1.5-1.08-2.7-1.08h-8.64l-1.35 8.1h8.55c1.2 0 2.22-.36 3.06-1.08zm50.085 18.72c-6.84 0-12.69-1.68-17.55-5.04-4.86-3.42-8.25-7.68-10.17-12.78-1.86-5.16-2.34-10.56-1.44-16.2 1.44-8.7 5.55-16.17 12.33-22.41 6.84-6.3 15.24-9.45 25.2-9.45 5.16 0 9.78.99 13.86 2.97 4.08 1.92 7.29 4.47 9.63 7.65 2.34 3.18 3.99 6.78 4.95 10.8.96 3.96 1.11 8.04.45 12.24-1.38 8.76-5.43 16.32-12.15 22.68-6.66 6.36-15.03 9.54-25.11 9.54zm-8.91-21.96c2.4 2.88 5.82 4.32 10.26 4.32 4.44 0 8.37-1.44 11.79-4.32 3.42-2.94 5.52-6.6 6.3-10.98.78-4.38-.03-8.01-2.43-10.89-2.4-2.94-5.82-4.41-10.26-4.41-4.44 0-8.37 1.47-11.79 4.41-3.42 2.88-5.52 6.51-6.3 10.89-.78 4.38.03 8.04 2.43 10.98zm87.389-42.48h18l-11.07 63h-18l4.05-23.22h-15.3l-4.05 23.22h-18l11.07-63h18l-3.96 22.32h15.3l3.96-22.32zm56.693 0h19.8l-25.29 43.56c-4.08 6.96-8.79 11.91-14.13 14.85-5.34 2.94-11.97 4.47-19.89 4.59l2.97-16.74c4.8-.06 8.94-1.5 12.42-4.32l-13.68-41.94h18l7.29 24.03 12.51-24.03zm36.143 64.44c-9.78 0-17.37-3.21-22.77-9.63-5.34-6.42-7.23-14.49-5.67-24.21 1.5-9.36 5.73-17.04 12.69-23.04 7.02-6 15.15-9 24.39-9 12.36 0 21.21 5.16 26.55 15.48l-16.47 8.73c-2.46-4.38-6.36-6.57-11.7-6.57-4.32 0-8.13 1.44-11.43 4.32-3.3 2.88-5.34 6.54-6.12 10.98-.72 4.26 0 7.89 2.16 10.89 2.16 2.94 5.4 4.41 9.72 4.41 4.98 0 9.27-2.34 12.87-7.02l14.94 9.45c-3.24 4.8-7.41 8.55-12.51 11.25-5.04 2.64-10.59 3.96-16.65 3.96z" fill="#fff"/></g><g filter="url(#filter1_d)"><path d="M177.584 382.564c-2.66 0-4.935-.653-6.825-1.96-1.89-1.33-3.208-2.986-3.955-4.97-.723-2.006-.91-4.106-.56-6.3.56-3.383 2.158-6.288 4.795-8.715 2.66-2.45 5.927-3.675 9.8-3.675 2.007 0 3.803.385 5.39 1.155 1.587.747 2.835 1.739 3.745 2.975a11.518 11.518 0 011.925 4.2c.373 1.54.432 3.127.175 4.76-.537 3.407-2.112 6.347-4.725 8.82-2.59 2.474-5.845 3.71-9.765 3.71zm-3.465-8.54c.933 1.12 2.263 1.68 3.99 1.68 1.727 0 3.255-.56 4.585-1.68 1.33-1.143 2.147-2.566 2.45-4.27.303-1.703-.012-3.115-.945-4.235-.933-1.143-2.263-1.715-3.99-1.715-1.727 0-3.255.572-4.585 1.715-1.33 1.12-2.147 2.532-2.45 4.235-.303 1.704.012 3.127.945 4.27zm38.533-16.52l-1.19 6.79h-5.775l-3.115 17.71h-7l3.115-17.71h-5.775l1.19-6.79h18.55zm29.715 0l-9.695 12.285 5.635 12.215h-7.315l-4.69-10.535-1.855 10.535h-7l4.305-24.5h7l-1.645 9.45 7.14-9.45h8.12zm12.776 24.5l-.28-3.15h-7.07l-1.4 3.15h-7.735l12.11-24.5h8.19l3.5 24.5h-7.315zm-4.865-8.75h4.06l-.7-7.525-3.36 7.525zm48.76-15.75l-8.89 12.6 4.27 11.9h-7.315l-3.255-10.885-1.925 10.885h-7l1.82-10.395-6.79 10.395h-7.84l9.065-12.74-4.305-11.76h7.315l3.22 10.395 1.82-10.395h7l-1.855 10.605 6.825-10.605h7.84zm22.721 0l-3.115 17.71h2.625l-2.03 11.48h-7l.84-4.69h-10.465l-.84 4.69h-7l1.995-11.48h2.59c1.307-1.796 2.24-4.27 2.8-7.42l1.785-10.29h17.815zm-15.015 17.71h4.9l1.995-11.27h-3.815l-.7 3.92c-.56 3.104-1.353 5.554-2.38 7.35zm27.451 7.35c-2.66 0-4.935-.653-6.825-1.96-1.89-1.33-3.208-2.986-3.955-4.97-.723-2.006-.91-4.106-.56-6.3.56-3.383 2.159-6.288 4.795-8.715 2.66-2.45 5.927-3.675 9.8-3.675 2.007 0 3.804.385 5.39 1.155 1.587.747 2.835 1.739 3.745 2.975a11.518 11.518 0 011.925 4.2c.374 1.54.432 3.127.175 4.76-.536 3.407-2.111 6.347-4.725 8.82-2.59 2.474-5.845 3.71-9.765 3.71zm-3.465-8.54c.934 1.12 2.264 1.68 3.99 1.68 1.727 0 3.255-.56 4.585-1.68 1.33-1.143 2.147-2.566 2.45-4.27.304-1.703-.011-3.115-.945-4.235-.933-1.143-2.263-1.715-3.99-1.715-1.726 0-3.255.572-4.585 1.715-1.33 1.12-2.146 2.532-2.45 4.235-.303 1.704.012 3.127.945 4.27zm37.835-16.52l-1.19 6.79h-8.05l-3.115 17.71h-7l4.305-24.5h15.05zm9.483 25.06c-2.66 0-4.935-.653-6.825-1.96-1.89-1.33-3.209-2.986-3.955-4.97-.724-2.006-.91-4.106-.56-6.3.56-3.383 2.158-6.288 4.795-8.715 2.66-2.45 5.926-3.675 9.8-3.675 2.006 0 3.803.385 5.39 1.155 1.586.747 2.835 1.739 3.745 2.975.91 1.237 1.551 2.637 1.925 4.2.373 1.54.431 3.127.175 4.76-.537 3.407-2.112 6.347-4.725 8.82-2.59 2.474-5.845 3.71-9.765 3.71zm-3.465-8.54c.933 1.12 2.263 1.68 3.99 1.68 1.726 0 3.255-.56 4.585-1.68 1.33-1.143 2.146-2.566 2.45-4.27.303-1.703-.012-3.115-.945-4.235-.934-1.143-2.264-1.715-3.99-1.715-1.727 0-3.255.572-4.585 1.715-1.33 1.12-2.147 2.532-2.45 4.235-.304 1.704.011 3.127.945 4.27zm-144.108 18.48l-4.305 24.5h-7l3.115-17.71h-5.25l-3.115 17.71h-7l4.305-24.5h19.25zm11.914 25.06c-2.66 0-4.935-.653-6.825-1.96-1.89-1.33-3.209-2.986-3.955-4.97-.724-2.006-.91-4.106-.56-6.3.56-3.383 2.158-6.288 4.795-8.715 2.66-2.45 5.926-3.675 9.8-3.675 2.006 0 3.803.385 5.39 1.155 1.586.747 2.835 1.739 3.745 2.975.91 1.237 1.551 2.637 1.925 4.2.373 1.54.431 3.127.175 4.76-.537 3.407-2.112 6.347-4.725 8.82-2.59 2.474-5.845 3.71-9.765 3.71zm-3.465-8.54c.933 1.12 2.263 1.68 3.99 1.68 1.726 0 3.255-.56 4.585-1.68 1.33-1.143 2.146-2.566 2.45-4.27.303-1.703-.012-3.115-.945-4.235-.934-1.143-2.264-1.715-3.99-1.715-1.727 0-3.255.572-4.585 1.715-1.33 1.12-2.147 2.532-2.45 4.235-.304 1.704.011 3.127.945 4.27zm42.034-16.52l-4.305 24.5h-7l3.115-17.71h-5.25l-3.115 17.71h-7l4.305-24.5h19.25zm11.914 25.06c-2.66 0-4.935-.653-6.825-1.96-1.89-1.33-3.208-2.986-3.955-4.97-.723-2.006-.91-4.106-.56-6.3.56-3.383 2.158-6.288 4.795-8.715 2.66-2.45 5.927-3.675 9.8-3.675 2.007 0 3.803.385 5.39 1.155 1.587.747 2.835 1.739 3.745 2.975a11.518 11.518 0 011.925 4.2c.373 1.54.432 3.127.175 4.76-.537 3.407-2.112 6.347-4.725 8.82-2.59 2.474-5.845 3.71-9.765 3.71zm-3.465-8.54c.933 1.12 2.263 1.68 3.99 1.68 1.727 0 3.255-.56 4.585-1.68 1.33-1.143 2.147-2.566 2.45-4.27.303-1.703-.012-3.115-.945-4.235-.933-1.143-2.263-1.715-3.99-1.715-1.727 0-3.255.572-4.585 1.715-1.33 1.12-2.147 2.532-2.45 4.235-.303 1.704.012 3.127.945 4.27zm15.67 8.05l1.12-6.51c1.237.07 2.147-.128 2.73-.595.584-.466 1.004-1.435 1.26-2.905l2.555-14.56h17.99l-4.305 24.5h-7l3.115-17.71h-3.99l-1.505 8.61c-.28 1.634-.711 3.045-1.295 4.235-.56 1.19-1.225 2.112-1.995 2.765a9.151 9.151 0 01-2.555 1.575 7.891 7.891 0 01-2.94.63 29.226 29.226 0 01-3.185-.035zm42.111-24.57h7l-4.305 24.5h-7l1.575-9.03h-5.95l-1.575 9.03h-7l4.305-24.5h7l-1.54 8.68h5.95l1.54-8.68zm25.302 6.37h-8.925l-.455 2.66h8.05l-1.12 6.3h-8.05l-.49 2.73h9.1l-1.12 6.44h-16.1l4.305-24.5h15.925l-1.12 6.37zm17.046-6.37h7l-4.305 24.5h-7l1.575-9.03h-5.95l-1.575 9.03h-7l4.305-24.5h7l-1.54 8.68h5.95l1.54-8.68zm6.193 24.5l4.305-24.5h7l-1.89 10.85 9.59-10.85h5.6l-4.305 24.5h-7l1.89-10.85-9.59 10.85h-5.6zm46.679-24.535l-4.34 24.5h-7l1.365-7.7h-.595l-5.74 7.7h-7.98l6.86-8.89c-1.33-.793-2.264-1.901-2.8-3.325-.514-1.446-.595-2.951-.245-4.515.466-2.193 1.633-4.036 3.5-5.53 1.866-1.493 4.258-2.24 7.175-2.24h9.8zm-13.65 8.715c-.117.7.011 1.272.385 1.715.396.444.945.654 1.645.63h2.66l.805-4.62h-2.66c-.724 0-1.342.21-1.855.63-.514.397-.84.945-.98 1.645zm15.291 6.72l.245-8.4 1.225-7h8.05l-1.225 7-2.695 8.4h-5.6zm1.12 9.625c-1.12 0-1.995-.396-2.625-1.19-.63-.816-.852-1.785-.665-2.905.186-1.12.723-2.053 1.61-2.8.91-.77 1.936-1.155 3.08-1.155 1.12 0 1.995.409 2.625 1.225.63.794.851 1.75.665 2.87-.187 1.144-.712 2.089-1.575 2.835-.864.747-1.902 1.12-3.115 1.12z" fill="#fff"/></g></g><defs><linearGradient id="paint0_linear" x1="-531.053" y1="248.71" x2="906.356" y2="248.711" gradientUnits="userSpaceOnUse"><stop stop-color="#0CFC4F" stop-opacity=".8"/><stop offset="1" stop-color="#0CFC4F" stop-opacity="0"/></linearGradient><linearGradient id="paint1_linear" x1="337.425" y1="14.804" x2="336.959" y2="298.834" gradientUnits="userSpaceOnUse"><stop stop-color="#FDFFFC"/><stop offset=".141" stop-color="#C2FFC8"/><stop offset=".318" stop-color="#98FFB5"/><stop offset=".62" stop-color="#00BB29"/><stop offset=".766" stop-color="#01AF3C"/><stop offset="1" stop-color="#009C35"/></linearGradient><linearGradient id="paint2_linear" x1="259.39" y1="176.208" x2="358.628" y2="346.66" gradientUnits="userSpaceOnUse"><stop stop-color="#E0FEE7"/><stop offset="1" stop-color="#81FFA4"/></linearGradient><filter id="filter0_d" x="129.604" y="15.625" width="329.079" height="105.88" filterUnits="userSpaceOnUse" color-interpolation-filters="sRGB"><feFlood flood-opacity="0" result="BackgroundImageFix"/><feColorMatrix in="SourceAlpha" values="0 0 0 0 0 0 0 0 0 0 0 0 0 0 0 0 0 0 127 0"/><feOffset dy="4"/><feGaussianBlur stdDeviation="10"/><feColorMatrix values="0 0 0 0 1 0 0 0 0 1 0 0 0 0 1 0 0 0 0.5 0"/><feBlend in2="BackgroundImageFix" result="effect1_dropShadow"/><feBlend in="SourceGraphic" in2="effect1_dropShadow" result="shape"/></filter><filter id="filter1_d" x="146.073" y="340.944" width="327.496" height="100.62" filterUnits="userSpaceOnUse" color-interpolation-filters="sRGB"><feFlood flood-opacity="0" result="BackgroundImageFix"/><feColorMatrix in="SourceAlpha" values="0 0 0 0 0 0 0 0 0 0 0 0 0 0 0 0 0 0 127 0"/><feOffset dy="4"/><feGaussianBlur stdDeviation="10"/><feColorMatrix values="0 0 0 0 1 0 0 0 0 1 0 0 0 0 1 0 0 0 0.5 0"/><feBlend in2="BackgroundImageFix" result="effect1_dropShadow"/><feBlend in="SourceGraphic" in2="effect1_dropShadow" result="shape"/></filter><radialGradient id="paint3_diamond" cx="0" cy="0" r="1" gradientUnits="userSpaceOnUse" gradientTransform="matrix(0 15.0955 -80.6891 0 171.839 127.169)"><stop stop-color="#FDFEFD"/><stop offset=".432" stop-color="#00FF1A" stop-opacity=".38"/><stop offset="1" stop-color="#58E466" stop-opacity="0"/></radialGradient><clipPath id="clip0"><path fill="#fff" d="M0 0h831v467H0z"/></clipPath></defs></svg>