<svg width="286" height="55" fill="none" xmlns="http://www.w3.org/2000/svg"><path d="M11.225.937L.075 54.013h275.773L285.065.937H11.225z" fill="#fff"/><path d="M38.358 40.975l4.55-25.9h7.4l-1.997 11.47 10.138-11.47h5.92l-4.551 25.9h-7.4l1.998-11.47-10.138 11.47h-5.92zm57.456-25.9l-4.55 25.9h-7.4l3.292-18.722h-5.55l-3.293 18.722h-7.4l4.551-25.9h20.35zm12.595 26.492c-2.812 0-5.217-.69-7.215-2.072-1.998-1.406-3.392-3.157-4.181-5.254-.765-2.121-.962-4.341-.592-6.66.592-3.577 2.281-6.648 5.069-9.213 2.812-2.59 6.265-3.885 10.36-3.885 2.121 0 4.021.407 5.698 1.221 1.677.79 2.997 1.838 3.959 3.145.962 1.307 1.64 2.787 2.035 4.44.395 1.628.456 3.305.185 5.032-.567 3.601-2.232 6.71-4.995 9.324-2.738 2.615-6.179 3.922-10.323 3.922zm-3.663-9.028c.987 1.184 2.393 1.776 4.218 1.776 1.825 0 3.441-.592 4.847-1.776 1.406-1.209 2.269-2.713 2.59-4.514.321-1.8-.012-3.293-.999-4.477-.987-1.209-2.393-1.813-4.218-1.813-1.825 0-3.441.604-4.847 1.813-1.406 1.184-2.269 2.676-2.59 4.477-.321 1.8.012 3.305.999 4.514zm16.565 8.51l1.184-6.882c1.308.074 2.27-.136 2.886-.629.617-.493 1.061-1.517 1.332-3.071l2.701-15.392h19.018l-4.551 25.9h-7.4l3.293-18.722h-4.218l-1.591 9.102c-.296 1.727-.752 3.219-1.369 4.477-.592 1.258-1.295 2.232-2.109 2.923a9.71 9.71 0 01-2.701 1.665 8.355 8.355 0 01-3.108.666c-1.06.05-2.183.037-3.367-.037zm44.887-25.974h8.14l-10.397 17.908c-1.677 2.861-3.613 4.896-5.809 6.105-2.195 1.209-4.921 1.838-8.177 1.887l1.221-6.882c1.974-.025 3.676-.617 5.106-1.776l-5.624-17.242h7.4l2.997 9.879 5.143-9.879zm23.325 0h7.4l-4.551 25.9h-7.4l1.369-7.77a19.04 19.04 0 01-3.404.296c-3.38 0-5.797-.851-7.252-2.553-1.456-1.702-1.924-4.033-1.406-6.993l1.554-8.88h7.4l-1.517 8.732c-.148.863.024 1.492.518 1.887.518.395 1.344.604 2.479.629.888 0 1.85-.099 2.886-.296l1.924-10.952zm21.761 25.9l-.296-3.33h-7.474l-1.48 3.33h-8.177l12.802-25.9h8.658l3.7 25.9h-7.733zm-5.143-9.25h4.292l-.74-7.955-3.552 7.955zm22.946-18.463l.962-5.55h12.95l-.962 5.55h-12.95zm-8.584 27.713l4.551-25.9h7.4l-1.998 11.47 10.138-11.47h5.92l-4.551 25.9h-7.4l1.998-11.47-10.138 11.47h-5.92zm30.736-10.545c-1.184 0-2.122-.42-2.812-1.258-.666-.863-.901-1.887-.703-3.071.197-1.184.777-2.17 1.739-2.96.962-.814 2.047-1.221 3.256-1.221 1.184 0 2.109.432 2.775 1.295.666.839.9 1.85.703 3.034-.198 1.209-.753 2.208-1.665 2.997-.913.79-2.011 1.184-3.293 1.184zm-1.961 11.1c-1.184 0-2.122-.42-2.812-1.258-.666-.863-.901-1.887-.703-3.071.197-1.184.777-2.17 1.739-2.96.962-.814 2.047-1.221 3.256-1.221 1.184 0 2.109.432 2.775 1.295.666.839.9 1.85.703 3.034-.198 1.209-.753 2.208-1.665 2.997-.913.79-2.011 1.184-3.293 1.184z" fill="#009A17"/></svg>