<svg width="2669" height="301" fill="none" xmlns="http://www.w3.org/2000/svg"><g filter="url(#filter0_d)"><path fill="#2CDC00" d="M50 221.746L2616.19 50.001l1.923 28.75L51.924 250.495z"/></g><path d="M585.759 192.767l4.429-.297-1.686 15.682-4.429.297.508-4.705c-.641.162-1.316.266-2.025.314-2.022.135-3.503-.278-4.442-1.238-.939-.96-1.313-2.336-1.122-4.128l.575-5.377 4.428-.296-.558 5.286c-.054.523.075.892.386 1.109.325.215.828.307 1.508.277a9.29 9.29 0 001.716-.293l.712-6.631zm16.282 2.958l-5.646.378-.175 1.702 5.093-.341-.442 4.033-5.093.341-.194 1.748 5.757-.385-.436 4.121-10.186.682 1.686-15.682 10.075-.674-.439 4.077zm8.411-4.611c1.506-.101 2.767.349 3.783 1.348 1.029.984 1.477 2.356 1.343 4.114-.128 1.64-.742 2.986-1.843 4.038-1.087 1.037-2.546 1.616-4.377 1.739l-1.771.118-.481 4.436-4.429.297 1.686-15.682 6.089-.408zm.727 5.534c.046-.418-.056-.723-.306-.913a1.216 1.216 0 00-.886-.275l-1.661.111-.274 2.554 1.772-.118c.339-.023.642-.155.908-.395.264-.255.413-.576.447-.964zm14.546-6.556l4.428-.296-1.686 15.682-4.429.296.614-5.779-3.764.252-.614 5.779-4.428.296 1.686-15.682 4.428-.296-.606 5.557 3.764-.252.607-5.557zm14.055 14.629l-.311-1.981-4.472.299-.753 2.052-4.893.327 6.624-16.012 5.181-.347 3.252 15.352-4.628.31zm-3.448-5.33l2.568-.172-.761-4.731-1.807 4.903zm22.84-11.56l-1.709 15.684-4.428.296.537-4.929-.376.025-3.305 5.115-5.049.337 3.964-5.914a4.067 4.067 0 01-1.913-1.985c-.386-.894-.501-1.842-.346-2.846.203-1.407.863-2.623 1.98-3.647 1.118-1.024 2.6-1.597 4.445-1.721l6.2-.415zm-8.267 6.092c-.044.448.061.804.316 1.068.27.264.626.374 1.068.329l1.682-.112.314-2.957-1.683.112c-.457.031-.84.19-1.147.478-.308.272-.491.633-.55 1.082zm27.069-7.328l-1.687 15.682-4.428.297 1.221-11.336-3.322.222-1.22 11.336-4.429.296 1.686-15.682 12.179-.815zm13.979-.958l-1.709 15.684-4.428.296.537-4.929-.376.025-3.305 5.115-5.049.338 3.964-5.915a4.067 4.067 0 01-1.913-1.985c-.386-.894-.501-1.842-.346-2.846.203-1.407.863-2.623 1.98-3.647 1.118-1.023 2.6-1.597 4.445-1.721l6.2-.415zm-8.267 6.092c-.044.448.061.804.316 1.069.27.263.626.373 1.068.328l1.682-.112.314-2.957-1.683.113c-.457.03-.84.189-1.147.477-.307.272-.491.633-.55 1.082zm21.307-6.942l-.465 4.346-3.653.244-1.221 11.336-4.429.297 1.221-11.336-3.653.244.465-4.346 11.735-.785zm9.517-.637l4.429-.296-1.686 15.682-4.429.296.614-5.779-3.764.251-.614 5.78-4.429.296 1.687-15.682 4.428-.296-.607 5.556 3.765-.251.606-5.557zm4.955 15.237l1.686-15.681 4.429-.297-.737 6.944 5.608-7.27 3.543-.237-1.686 15.682-4.429.296.736-6.944-5.607 7.27-3.543.237zm28.136-6.197l1.883-.126-.799 7.348-4.428.297.333-3.003-10.075.674 1.686-15.682 4.65-.311-1.221 11.336 3.322-.222 1.22-11.336 4.65-.311-1.221 11.336zm12.275 3.493l-.31-1.981-4.473.299-.752 2.052-4.894.328 6.624-16.013 5.181-.346 3.252 15.351-4.628.31zm-3.448-5.33l2.569-.172-.762-4.731-1.807 4.903zM362.037 207.74l4.429-.297-1.686 15.682-4.429.297.508-4.705c-.641.162-1.317.266-2.025.313-2.022.136-3.503-.277-4.442-1.237-.939-.96-1.313-2.336-1.122-4.129l.575-5.376 4.428-.296-.558 5.286c-.054.523.075.892.386 1.109.325.215.828.307 1.508.277a9.305 9.305 0 001.716-.293l.712-6.631zm16.282 2.958l-5.646.378-.175 1.702 5.093-.341-.442 4.033-5.093.341-.194 1.748 5.757-.385-.436 4.121-10.186.682 1.686-15.682 10.075-.674-.439 4.077zm8.411-4.611c1.506-.101 2.767.349 3.783 1.348 1.029.984 1.477 2.356 1.343 4.114-.128 1.64-.742 2.986-1.843 4.038-1.087 1.037-2.546 1.616-4.377 1.739l-1.771.118-.482 4.436-4.428.297 1.686-15.682 6.089-.408zm.727 5.534c.046-.418-.056-.723-.306-.914a1.22 1.22 0 00-.886-.274l-1.661.111-.274 2.554 1.772-.118c.339-.023.642-.155.908-.395.264-.255.413-.576.447-.964zm14.546-6.556l4.428-.296-1.686 15.682-4.429.296.614-5.779-3.764.251-.614 5.78-4.428.296 1.686-15.682 4.428-.296-.606 5.556 3.764-.251.607-5.557zm14.055 14.628l-.311-1.981-4.472.3-.753 2.052-4.893.327 6.624-16.012 5.181-.347 3.252 15.352-4.628.309zm-3.448-5.329l2.568-.172-.761-4.731-1.807 4.903zm22.84-11.56l-1.709 15.684-4.428.296.537-4.929-.376.025-3.306 5.115-5.048.337 3.964-5.914a4.067 4.067 0 01-1.913-1.985c-.386-.894-.501-1.842-.346-2.846.203-1.408.863-2.623 1.98-3.647 1.118-1.024 2.599-1.597 4.445-1.721l6.2-.415zm-8.267 6.092c-.044.447.061.804.316 1.068.27.264.626.374 1.067.329l1.683-.112.314-2.957-1.683.112c-.457.031-.84.19-1.147.478-.308.272-.491.633-.55 1.082zm27.069-7.328l-1.687 15.682-4.428.296 1.221-11.335-3.322.222-1.22 11.336-4.429.296 1.686-15.682 12.179-.815zm13.979-.958l-1.709 15.684-4.428.296.537-4.929-.376.025-3.305 5.115-5.049.337 3.964-5.914a4.067 4.067 0 01-1.913-1.985c-.386-.894-.501-1.842-.346-2.846.203-1.407.863-2.623 1.98-3.647 1.118-1.024 2.6-1.597 4.445-1.721l6.2-.415zm-8.267 6.092c-.044.448.061.804.316 1.068.27.264.626.374 1.068.329l1.682-.112.314-2.957-1.683.112c-.457.031-.84.19-1.147.478-.308.272-.491.633-.55 1.082zm21.307-6.942l-.465 4.346-3.654.244-1.22 11.336-4.429.297 1.221-11.336-3.653.244.465-4.346 11.735-.785zm9.517-.637l4.429-.296-1.686 15.681-4.429.297.614-5.78-3.764.252-.614 5.78-4.429.296 1.687-15.682 4.428-.296-.607 5.556 3.764-.252.607-5.556zm4.955 15.237l1.686-15.682 4.429-.296-.737 6.944 5.608-7.27 3.543-.237-1.686 15.682-4.429.296.736-6.944-5.607 7.27-3.543.237zm28.136-6.198l1.882-.126-.798 7.349-4.428.297.333-3.003-10.075.674 1.686-15.682 4.65-.311-1.221 11.336 3.322-.222 1.22-11.336 4.65-.311-1.221 11.335zm12.275 3.494l-.31-1.981-4.473.299-.752 2.052-4.894.328 6.624-16.013 5.181-.346 3.252 15.351-4.628.31zm-3.448-5.33l2.568-.172-.761-4.731-1.807 4.903zm-394.391 16.387l4.429-.297-1.686 15.682-4.429.297.508-4.705c-.641.161-1.317.266-2.025.313-2.022.136-3.503-.277-4.442-1.237-.939-.96-1.313-2.336-1.122-4.129l.575-5.376 4.428-.296-.558 5.286c-.054.523.075.892.386 1.108.325.216.828.308 1.508.278a9.39 9.39 0 001.716-.293l.712-6.631zm16.282 2.958l-5.646.378-.175 1.702 5.093-.341-.442 4.033-5.093.341-.194 1.748 5.757-.386-.436 4.122-10.186.682 1.686-15.682 10.075-.674-.439 4.077zm8.411-4.611c1.506-.101 2.767.349 3.783 1.348 1.029.984 1.477 2.355 1.343 4.114-.128 1.64-.742 2.986-1.843 4.038-1.087 1.036-2.546 1.616-4.377 1.739l-1.771.118-.482 4.436-4.428.296 1.686-15.681 6.089-.408zm.727 5.534c.046-.418-.056-.723-.306-.914a1.22 1.22 0 00-.886-.274l-1.661.111-.274 2.554 1.772-.118c.339-.023.642-.155.908-.395.264-.255.413-.576.447-.964zm14.546-6.556l4.428-.296-1.686 15.681-4.429.297.614-5.78-3.764.252-.614 5.78-4.428.296 1.686-15.682 4.428-.296-.606 5.556 3.764-.252.607-5.556zm14.055 14.628l-.311-1.981-4.472.3-.753 2.052-4.893.327 6.624-16.012 5.181-.347 3.252 15.352-4.628.309zm-3.448-5.329l2.568-.172-.761-4.731-1.807 4.903zm22.84-11.56l-1.709 15.684-4.428.296.537-4.929-.376.025-3.305 5.114-5.049.338 3.964-5.914a4.072 4.072 0 01-1.913-1.985c-.386-.894-.501-1.842-.346-2.846.203-1.408.863-2.623 1.98-3.647 1.118-1.024 2.599-1.597 4.445-1.721l6.2-.415zm-8.267 6.092c-.044.447.061.804.316 1.068.27.264.626.374 1.068.329l1.682-.112.314-2.957-1.683.112c-.457.031-.84.19-1.147.477-.308.273-.491.634-.55 1.083zm27.069-7.328l-1.687 15.682-4.428.296 1.221-11.336-3.322.223-1.22 11.336-4.429.296 1.686-15.682 12.179-.815zm13.979-.958l-1.709 15.684-4.428.296.537-4.929-.376.025-3.305 5.115-5.049.337 3.964-5.914a4.067 4.067 0 01-1.913-1.985c-.386-.894-.501-1.842-.346-2.846.203-1.408.863-2.623 1.98-3.647 1.118-1.024 2.6-1.597 4.445-1.721l6.2-.415zm-8.267 6.092c-.044.447.061.804.316 1.068.27.264.626.374 1.068.329l1.682-.112.314-2.957-1.683.112c-.457.031-.84.19-1.147.477-.308.273-.491.634-.55 1.083zm21.307-6.942l-.465 4.346-3.654.244-1.22 11.336-4.429.297 1.221-11.336-3.653.244.465-4.346 11.735-.785zm9.517-.637l4.429-.297-1.686 15.682-4.429.297.614-5.78-3.764.252-.614 5.78-4.429.296 1.687-15.682 4.428-.296-.607 5.556 3.764-.252.607-5.556zm4.955 15.237l1.686-15.682 4.429-.296-.737 6.944 5.608-7.27 3.543-.237-1.686 15.682-4.429.296.736-6.944-5.607 7.27-3.543.237zm28.136-6.198l1.882-.126-.798 7.349-4.428.296.333-3.002-10.075.674 1.686-15.682 4.65-.311-1.221 11.336 3.322-.222 1.22-11.336 4.65-.312-1.221 11.336zm12.275 3.494l-.31-1.981-4.473.299-.752 2.052-4.894.328 6.624-16.013 5.181-.346 3.252 15.351-4.628.31zm-3.448-5.33l2.568-.172-.761-4.731-1.807 4.903zm496.236-43.22l4.428-.296-1.686 15.682-4.428.296.508-4.705c-.642.162-1.317.266-2.026.314-2.022.135-3.503-.277-4.442-1.238-.939-.96-1.313-2.336-1.121-4.128l.574-5.377 4.429-.296-.559 5.286c-.054.523.075.893.386 1.109.326.215.829.308 1.509.277a9.295 9.295 0 001.715-.293l.713-6.631zm16.282 2.958l-5.647.378-.175 1.702 5.093-.34-.442 4.033-5.093.34-.194 1.748 5.757-.385-.436 4.122-10.185.681 1.686-15.682 10.075-.674-.439 4.077zm8.411-4.61c1.506-.101 2.766.348 3.782 1.348 1.03.984 1.477 2.355 1.343 4.114-.127 1.639-.742 2.985-1.843 4.037-1.087 1.037-2.546 1.616-4.376 1.739l-1.771.119-.482 4.436-4.429.296 1.687-15.682 6.089-.407zm.726 5.534c.046-.419-.056-.723-.306-.914a1.216 1.216 0 00-.886-.274l-1.66.111-.274 2.554 1.771-.119c.34-.023.642-.154.908-.394.265-.255.414-.577.447-.964zm14.546-6.557l4.428-.296-1.686 15.682-4.428.296.614-5.779-3.764.252-.614 5.779-4.429.297 1.686-15.682 4.429-.297-.607 5.557 3.764-.252.607-5.557zm14.055 14.629l-.31-1.981-4.473.299-.752 2.052-4.894.328 6.624-16.013 5.181-.346 3.252 15.351-4.628.31zm-3.448-5.33l2.569-.172-.762-4.731-1.807 4.903zm22.84-11.559l-1.708 15.683-4.429.296.538-4.929-.377.026-3.305 5.114-5.049.338 3.964-5.915a4.061 4.061 0 01-1.912-1.985 5.071 5.071 0 01-.346-2.846c.202-1.407.862-2.623 1.98-3.646 1.117-1.024 2.599-1.598 4.444-1.721l6.2-.415zm-8.267 6.091c-.044.448.062.804.317 1.069.269.263.625.373 1.067.329l1.683-.113.313-2.957-1.682.113c-.458.03-.84.189-1.147.477-.308.273-.492.633-.551 1.082zm27.069-7.327l-1.686 15.681-4.429.297 1.221-11.336-3.321.222-1.221 11.336-4.428.297 1.686-15.682 12.178-.815zm13.979-.958l-1.708 15.683-4.429.297.538-4.93-.377.026-3.305 5.114-5.048.338 3.963-5.915a4.061 4.061 0 01-1.912-1.985 5.071 5.071 0 01-.346-2.846c.202-1.407.862-2.623 1.98-3.646 1.117-1.024 2.599-1.598 4.444-1.721l6.2-.415zm-8.267 6.091c-.044.448.062.804.317 1.069.269.264.625.373 1.067.329l1.683-.113.314-2.957-1.683.113c-.458.03-.84.19-1.147.477-.308.273-.492.633-.551 1.082zm21.308-6.942l-.466 4.346-3.653.245-1.221 11.336-4.428.296 1.22-11.336-3.653.245.465-4.346 11.736-.786zm9.517-.637l4.428-.296-1.686 15.682-4.429.296.615-5.779-3.765.252-.614 5.779-4.428.297 1.686-15.682 4.428-.297-.606 5.557 3.764-.252.607-5.557zm4.954 15.238l1.687-15.682 4.428-.297-.736 6.945 5.607-7.271 3.543-.237-1.686 15.682-4.428.297.736-6.945-5.608 7.271-3.543.237zm28.137-6.198l1.882-.126-.798 7.349-4.429.296.333-3.003-10.075.675 1.687-15.682 4.649-.312-1.22 11.336 3.321-.222 1.221-11.336 4.65-.311-1.221 11.336zm12.275 3.493l-.311-1.981-4.473.3-.752 2.052-4.893.327 6.624-16.012 5.181-.347 3.251 15.351-4.627.31zm-3.449-5.329l2.569-.172-.762-4.731-1.807 4.903zm53.052-13.56l4.43-.296-1.69 15.682-4.42.296.5-4.705c-.64.162-1.31.266-2.02.314-2.02.135-3.5-.277-4.44-1.237-.94-.961-1.32-2.337-1.13-4.129l.58-5.376 4.43-.297-.56 5.287c-.05.522.07.892.39 1.108.32.215.82.308 1.5.277a9.11 9.11 0 001.72-.293l.71-6.631zm16.28 2.958l-5.64.378-.18 1.702 5.1-.34-.45 4.033-5.09.341-.19 1.747 5.75-.385-.43 4.122-10.19.681 1.69-15.682 10.07-.674-.44 4.077zm8.41-4.61c1.51-.101 2.77.348 3.79 1.348 1.03.984 1.47 2.355 1.34 4.114-.13 1.639-.74 2.985-1.84 4.037-1.09 1.037-2.55 1.617-4.38 1.739l-1.77.119-.48 4.436-4.43.296 1.69-15.682 6.08-.407zm.73 5.534c.05-.419-.05-.723-.3-.914a1.238 1.238 0 00-.89-.274l-1.66.111-.28 2.554 1.78-.119c.34-.023.64-.154.9-.394.27-.255.42-.577.45-.964zm14.55-6.557l4.43-.296-1.69 15.682-4.43.296.61-5.779-3.76.252-.61 5.779-4.43.297 1.68-15.682 4.43-.297-.6 5.557 3.76-.252.61-5.557zm14.05 14.629l-.31-1.981-4.47.299-.75 2.052-4.9.328 6.63-16.013 5.18-.346 3.25 15.351-4.63.31zm-3.45-5.33l2.57-.172-.76-4.731-1.81 4.903zm22.84-11.559l-1.7 15.683-4.43.297.53-4.93-.37.026-3.31 5.114-5.05.338 3.97-5.915a4.036 4.036 0 01-1.91-1.985 5.003 5.003 0 01-.35-2.846c.2-1.407.86-2.623 1.98-3.646 1.12-1.024 2.6-1.598 4.44-1.721l6.2-.415zm-8.26 6.091c-.05.448.06.804.31 1.069.27.264.63.373 1.07.329l1.68-.113.32-2.957-1.69.113c-.45.031-.84.19-1.14.477-.31.273-.49.633-.55 1.082zm27.07-7.327l-1.69 15.682-4.43.296 1.22-11.336-3.32.222-1.22 11.336-4.43.297 1.69-15.682 12.18-.815zm13.97-.958l-1.7 15.683-4.43.297.54-4.929-.38.025-3.31 5.114-5.04.338 3.96-5.915a4.036 4.036 0 01-1.91-1.985c-.39-.893-.5-1.842-.35-2.846.2-1.407.86-2.623 1.98-3.646 1.12-1.024 2.6-1.598 4.45-1.721l6.19-.415zm-8.26 6.091c-.05.448.06.804.31 1.069.27.264.63.373 1.07.329l1.68-.113.32-2.957-1.68.113c-.46.031-.84.19-1.15.477-.31.273-.49.633-.55 1.082zm21.31-6.942l-.47 4.346-3.65.245-1.22 11.336-4.43.296 1.22-11.336-3.66.245.47-4.346 11.74-.786zm9.51-.637l4.43-.296-1.69 15.682-4.42.296.61-5.779-3.76.252-.62 5.779-4.43.297 1.69-15.682 4.43-.297-.61 5.557 3.77-.252.6-5.557zm4.96 15.238l1.68-15.682 4.43-.296-.73 6.944 5.6-7.27 3.55-.238-1.69 15.682-4.43.297.74-6.944-5.61 7.27-3.54.237zm28.13-6.198l1.89-.126-.8 7.349-4.43.296.33-3.003-10.07.675 1.68-15.682 4.65-.312-1.22 11.336 3.32-.222 1.22-11.336 4.65-.311-1.22 11.336zm12.28 3.493l-.31-1.981-4.47.3-.76 2.052-4.89.327 6.62-16.012 5.18-.347 3.26 15.352-4.63.309zm-3.45-5.329l2.57-.172-.76-4.731-1.81 4.903zm43.92-12.949l4.43-.296-1.69 15.682-4.42.296.5-4.704c-.64.161-1.31.266-2.02.313-2.02.135-3.5-.277-4.44-1.237-.94-.961-1.32-2.337-1.12-4.129l.57-5.376 4.43-.297-.56 5.287c-.05.522.07.892.39 1.108.32.216.82.308 1.5.277a9.186 9.186 0 001.72-.292l.71-6.632zm16.28 2.959l-5.64.378-.18 1.702 5.1-.341-.45 4.033-5.09.341-.19 1.748 5.75-.386-.43 4.122-10.19.682 1.69-15.682 10.07-.675-.44 4.078zm8.42-4.611c1.5-.101 2.76.348 3.78 1.348 1.03.984 1.47 2.355 1.34 4.114-.13 1.639-.74 2.985-1.84 4.038-1.09 1.036-2.55 1.616-4.38 1.738l-1.77.119-.48 4.436-4.43.296 1.69-15.682 6.09-.407zm.72 5.534c.05-.418-.05-.723-.3-.914a1.242 1.242 0 00-.89-.274l-1.66.111-.27 2.554 1.77-.119c.34-.022.64-.154.9-.394.27-.255.42-.576.45-.964zm14.55-6.556l4.43-.297-1.69 15.682-4.43.297.62-5.78-3.77.252-.61 5.78-4.43.296 1.68-15.682 4.43-.296-.6 5.556 3.76-.252.61-5.556zm14.05 14.628l-.31-1.981-4.47.3-.75 2.052-4.9.327 6.63-16.012 5.18-.347 3.25 15.351-4.63.31zm-3.45-5.329l2.57-.172-.76-4.731-1.81 4.903zm22.84-11.56l-1.7 15.683-4.43.297.54-4.929-.38.025-3.31 5.114-5.05.338 3.97-5.915a4.038 4.038 0 01-1.91-1.984 5.006 5.006 0 01-.35-2.846c.2-1.408.86-2.623 1.98-3.647 1.12-1.024 2.6-1.598 4.44-1.721l6.2-.415zm-8.26 6.091c-.05.448.06.804.31 1.069.27.264.63.373 1.07.329l1.68-.113.32-2.957-1.68.113c-.46.031-.84.19-1.15.477-.31.273-.49.634-.55 1.082zm27.07-7.327l-1.69 15.682-4.43.296 1.22-11.336-3.32.223-1.22 11.335-4.43.297 1.69-15.682 12.18-.815zm13.98-.958l-1.71 15.683-4.43.297.54-4.929-.38.025-3.31 5.114-5.04.338 3.96-5.914a4.044 4.044 0 01-1.91-1.985c-.39-.894-.5-1.843-.35-2.846.2-1.408.86-2.623 1.98-3.647 1.12-1.024 2.6-1.597 4.45-1.721l6.2-.415zm-8.27 6.091c-.05.448.06.804.32 1.069.26.264.62.373 1.06.329l1.69-.113.31-2.956-1.68.112c-.46.031-.84.19-1.15.477-.31.273-.49.634-.55 1.082zm21.31-6.941l-.47 4.346-3.65.244-1.22 11.336-4.43.296 1.22-11.336-3.65.245.46-4.346 11.74-.785zm9.51-.637l4.43-.297-1.68 15.682-4.43.297.61-5.78-3.76.252-.62 5.779-4.43.297 1.69-15.682 4.43-.296-.61 5.556 3.77-.252.6-5.556zm4.96 15.237l1.68-15.682 4.43-.296-.73 6.944 5.6-7.27 3.55-.237-1.69 15.682-4.43.296.74-6.944-5.61 7.27-3.54.237zm28.13-6.198l1.89-.126-.8 7.349-4.43.296.33-3.002-10.07.674 1.68-15.682 4.65-.311-1.22 11.336 3.32-.223 1.23-11.336 4.65-.311-1.23 11.336zm12.28 3.494l-.31-1.981-4.47.299-.76 2.052-4.89.327 6.62-16.012 5.19-.347 3.25 15.352-4.63.31zm-3.45-5.33l2.57-.172-.76-4.731-1.81 4.903zm53.05-13.559l4.43-.297-1.68 15.682-4.43.296.51-4.704c-.65.161-1.32.266-2.03.313-2.02.136-3.5-.277-4.44-1.237-.94-.96-1.31-2.337-1.12-4.129l.57-5.376 4.43-.297-.56 5.287c-.05.522.08.892.39 1.108.32.216.83.308 1.51.277.53-.035 1.1-.133 1.71-.292l.71-6.631zm16.29 2.958l-5.65.378-.18 1.702 5.1-.341-.44 4.033-5.1.341-.19 1.748 5.76-.386-.44 4.122-10.19.682 1.69-15.682 10.08-.675-.44 4.078zm8.41-4.611c1.5-.101 2.76.349 3.78 1.348 1.03.984 1.48 2.355 1.34 4.114-.13 1.64-.74 2.985-1.84 4.038-1.09 1.036-2.55 1.616-4.38 1.738l-1.77.119-.48 4.436-4.43.296 1.69-15.682 6.09-.407zm.72 5.534c.05-.418-.05-.723-.3-.914a1.228 1.228 0 00-.89-.274l-1.66.111-.27 2.554 1.77-.119c.34-.022.64-.154.91-.394.26-.255.41-.576.44-.964zm14.55-6.556l4.43-.297-1.69 15.682-4.43.297.62-5.78-3.77.252-.61 5.78-4.43.296 1.69-15.682 4.43-.296-.61 5.556 3.76-.252.61-5.556zm14.05 14.628l-.31-1.981-4.47.3-.75 2.052-4.89.327 6.62-16.012 5.18-.347 3.25 15.352-4.63.309zm-3.44-5.329l2.56-.172-.76-4.731-1.8 4.903zm22.84-11.56l-1.71 15.683-4.43.297.54-4.929-.38.025-3.3 5.114-5.05.338 3.96-5.914a4.087 4.087 0 01-1.91-1.985c-.39-.894-.5-1.843-.35-2.846.2-1.408.86-2.623 1.98-3.647 1.12-1.024 2.6-1.597 4.45-1.721l6.2-.415zm-8.27 6.091c-.04.448.06.804.32 1.069.27.264.62.373 1.06.329l1.69-.113.31-2.956-1.68.112c-.46.031-.84.19-1.15.477-.31.273-.49.634-.55 1.082zm27.07-7.327l-1.69 15.682-4.43.296 1.22-11.336-3.32.223-1.22 11.336-4.43.296 1.69-15.682 12.18-.815zm13.98-.958l-1.71 15.684-4.43.296.54-4.929-.38.025-3.3 5.114-5.05.338 3.96-5.914a4.087 4.087 0 01-1.91-1.985c-.39-.894-.5-1.842-.35-2.846.21-1.408.87-2.623 1.98-3.647 1.12-1.024 2.6-1.597 4.45-1.721l6.2-.415zm-8.27 6.092c-.04.447.06.804.32 1.068.27.264.62.374 1.06.329l1.69-.112.31-2.957-1.68.112c-.46.031-.84.19-1.15.477-.31.273-.49.634-.55 1.083zm21.31-6.942l-.47 4.346-3.65.244-1.22 11.336-4.43.296 1.22-11.335-3.65.244.46-4.346 11.74-.785zm9.52-.637l4.42-.297-1.68 15.682-4.43.297.61-5.78-3.76.252-.62 5.78-4.42.296 1.68-15.682 4.43-.296-.61 5.556 3.77-.252.61-5.556zm4.95 15.237l1.69-15.682 4.42-.296-.73 6.944 5.61-7.27 3.54-.237-1.69 15.682-4.43.296.74-6.944-5.61 7.27-3.54.237zm28.14-6.198l1.88-.126-.8 7.349-4.43.296.33-3.002-10.07.674 1.69-15.682 4.65-.311-1.22 11.336 3.32-.223 1.22-11.335 4.65-.312-1.22 11.336zm12.27 3.494l-.31-1.981-4.47.299-.75 2.052-4.9.328 6.63-16.013 5.18-.347 3.25 15.352-4.63.31zm-3.45-5.33l2.57-.172-.76-4.731-1.81 4.903zm53.06-13.559l4.42-.297-1.68 15.682-4.43.297.51-4.705c-.64.161-1.32.266-2.03.313-2.02.136-3.5-.277-4.44-1.237-.94-.96-1.31-2.337-1.12-4.129l.57-5.376 4.43-.296-.56 5.286c-.05.523.08.892.39 1.108.33.216.83.308 1.51.278.53-.036 1.1-.134 1.71-.293l.72-6.631zm16.28 2.958l-5.65.378-.17 1.702 5.09-.341-.44 4.033-5.1.341-.19 1.748 5.76-.386-.44 4.122-10.18.682 1.68-15.682 10.08-.674-.44 4.077zm8.41-4.611c1.5-.101 2.77.349 3.78 1.348 1.03.984 1.48 2.355 1.34 4.114-.12 1.64-.74 2.986-1.84 4.038-1.09 1.036-2.54 1.616-4.37 1.738l-1.78.119-.48 4.436-4.43.296 1.69-15.681 6.09-.408zm.73 5.534c.04-.418-.06-.723-.31-.914a1.228 1.228 0 00-.89-.274l-1.66.111-.27 2.554 1.77-.119c.34-.022.64-.154.91-.394.26-.255.41-.576.45-.964zm14.54-6.556l4.43-.296-1.69 15.681-4.42.297.61-5.78-3.77.252-.61 5.78-4.43.296 1.69-15.682 4.43-.296-.61 5.556 3.76-.252.61-5.556zm14.06 14.628l-.31-1.981-4.48.3-.75 2.052-4.89.327 6.62-16.012 5.18-.347 3.25 15.352-4.62.309zm-3.45-5.329l2.57-.172-.76-4.731-1.81 4.903zm22.84-11.56l-1.71 15.684-4.43.296.54-4.929-.38.025-3.3 5.114-5.05.338 3.96-5.914a4.087 4.087 0 01-1.91-1.985c-.39-.894-.5-1.842-.35-2.846.21-1.408.87-2.623 1.98-3.647 1.12-1.024 2.6-1.597 4.45-1.721l6.2-.415zm-8.27 6.092c-.04.447.06.804.32 1.068.27.264.62.374 1.07.329l1.68-.112.31-2.957-1.68.112c-.46.031-.84.19-1.15.477-.31.273-.49.634-.55 1.083zm27.07-7.328l-1.69 15.682-4.42.296 1.22-11.336-3.32.223-1.23 11.336-4.42.296 1.68-15.682 12.18-.815zm13.98-.958l-1.71 15.684-4.43.296.54-4.929-.38.025-3.3 5.114-5.05.338 3.96-5.914a4.083 4.083 0 01-1.91-1.985 5.088 5.088 0 01-.34-2.846c.2-1.408.86-2.623 1.98-3.647 1.11-1.024 2.59-1.597 4.44-1.721l6.2-.415zm-8.27 6.092c-.04.447.06.804.32 1.068.27.264.62.374 1.07.329l1.68-.112.31-2.957-1.68.112c-.46.031-.84.19-1.15.477-.3.273-.49.634-.55 1.083zm21.31-6.942l-.47 4.346-3.65.244-1.22 11.336-4.43.297 1.22-11.336-3.65.244.46-4.346 11.74-.785zm9.52-.637l4.43-.297-1.69 15.682-4.43.297.61-5.78-3.76.252-.61 5.78-4.43.296 1.68-15.682 4.43-.296-.6 5.556 3.76-.252.61-5.556zm4.95 15.237l1.69-15.682 4.43-.296-.74 6.944 5.61-7.27 3.54-.237-1.69 15.682-4.42.296.73-6.944-5.61 7.27-3.54.237zm28.14-6.198l1.88-.126-.8 7.349-4.43.296.34-3.002-10.08.674 1.69-15.682 4.65-.311-1.22 11.336 3.32-.222 1.22-11.336 4.65-.312-1.22 11.336zm12.27 3.494l-.31-1.981-4.47.299-.75 2.052-4.9.328 6.63-16.013 5.18-.346 3.25 15.351-4.63.31zm-3.45-5.33l2.57-.172-.76-4.731-1.81 4.903zm53.06-13.559l4.43-.297-1.69 15.682-4.43.297.51-4.705c-.64.161-1.32.266-2.03.313-2.02.136-3.5-.277-4.44-1.237-.94-.96-1.31-2.336-1.12-4.129l.58-5.376 4.42-.296-.55 5.286c-.06.523.07.892.38 1.109.33.215.83.307 1.51.277.53-.036 1.1-.133 1.72-.293l.71-6.631zm16.28 2.958l-5.65.378-.17 1.702 5.09-.341-.44 4.033-5.09.341-.2 1.748 5.76-.385-.44 4.121-10.18.682 1.68-15.682 10.08-.674-.44 4.077zm8.41-4.611c1.51-.101 2.77.349 3.78 1.348 1.03.984 1.48 2.355 1.35 4.114-.13 1.64-.75 2.986-1.85 4.038-1.08 1.037-2.54 1.616-4.37 1.739l-1.77.118-.49 4.436-4.42.297 1.68-15.682 6.09-.408zm.73 5.534c.04-.418-.06-.723-.31-.914a1.204 1.204 0 00-.88-.274l-1.66.111-.28 2.554 1.77-.118c.34-.023.64-.155.91-.395.27-.255.41-.576.45-.964zm14.54-6.556l4.43-.296-1.68 15.682-4.43.296.61-5.779-3.76.251-.62 5.78-4.43.296 1.69-15.682 4.43-.296-.61 5.556 3.77-.252.6-5.556zm14.06 14.628l-.31-1.981-4.47.3-.76 2.052-4.89.327 6.62-16.012 5.18-.347 3.26 15.352-4.63.309zm-3.45-5.329l2.57-.172-.76-4.731-1.81 4.903zm22.84-11.56l-1.71 15.684-4.43.296.54-4.929-.38.025-3.3 5.114-5.05.338 3.96-5.914a4.083 4.083 0 01-1.91-1.985 5.088 5.088 0 01-.34-2.846c.2-1.408.86-2.623 1.98-3.647 1.11-1.024 2.6-1.597 4.44-1.72l6.2-.416zm-8.27 6.092c-.04.447.07.804.32 1.068.27.264.63.374 1.07.329l1.68-.112.31-2.957-1.68.112c-.46.031-.84.19-1.15.477-.3.273-.49.634-.55 1.083zm27.07-7.328l-1.68 15.682-4.43.296 1.22-11.335-3.32.222-1.22 11.336-4.43.296 1.68-15.682 12.18-.815zm13.98-.958l-1.71 15.684-4.43.296.54-4.929-.37.025-3.31 5.115-5.05.337 3.97-5.914c-.88-.446-1.52-1.107-1.92-1.985a5.088 5.088 0 01-.34-2.846c.2-1.407.86-2.623 1.98-3.647 1.12-1.024 2.6-1.597 4.44-1.72l6.2-.416zm-8.27 6.092c-.04.448.07.804.32 1.068.27.264.63.374 1.07.329l1.68-.112.32-2.957-1.69.112c-.46.031-.84.19-1.14.478-.31.272-.5.633-.56 1.082zm21.31-6.942l-.46 4.346-3.66.244-1.22 11.336-4.43.297 1.22-11.336-3.65.244.47-4.346 11.73-.785zm9.52-.637l4.43-.297-1.69 15.682-4.43.297.62-5.78-3.77.252-.61 5.78-4.43.296 1.69-15.682 4.42-.296-.6 5.556 3.76-.252.61-5.556zm4.95 15.237l1.69-15.682 4.43-.296-.74 6.944 5.61-7.27 3.54-.237-1.68 15.682-4.43.296.73-6.944-5.6 7.27-3.55.237zm28.14-6.198l1.88-.126-.8 7.349-4.42.296.33-3.002-10.08.674 1.69-15.682 4.65-.311-1.22 11.336 3.32-.222 1.22-11.336 4.65-.312-1.22 11.336zm12.28 3.494l-.32-1.981-4.47.299-.75 2.052-4.89.328 6.62-16.013 5.18-.346 3.25 15.351-4.62.31zm-3.45-5.33l2.57-.172-.77-4.73-1.8 4.902zm53.05-13.559l4.43-.297-1.69 15.682-4.43.297.51-4.705c-.64.162-1.31.266-2.02.314-2.03.135-3.51-.278-4.45-1.238-.93-.96-1.31-2.336-1.12-4.129l.58-5.376 4.43-.296-.56 5.286c-.06.523.07.892.38 1.109.33.215.83.307 1.51.277a9.328 9.328 0 001.72-.293l.71-6.631zm16.28 2.958l-5.64.378-.18 1.702 5.09-.34-.44 4.032-5.09.341-.2 1.748 5.76-.385-.43 4.121-10.19.682 1.69-15.682 10.07-.674-.44 4.077zm8.41-4.611c1.51-.1 2.77.349 3.79 1.349 1.03.983 1.47 2.355 1.34 4.113-.13 1.64-.74 2.986-1.84 4.038-1.09 1.037-2.55 1.616-4.38 1.739l-1.77.118-.48 4.436-4.43.297 1.68-15.682 6.09-.408zm.73 5.534c.05-.418-.06-.723-.31-.913a1.202 1.202 0 00-.88-.275l-1.66.111-.28 2.554 1.77-.118c.34-.023.65-.154.91-.395.27-.255.42-.576.45-.964zm14.55-6.556l4.42-.296-1.68 15.682-4.43.296.61-5.78-3.76.252-.62 5.78-4.42.296 1.68-15.682 4.43-.296-.61 5.556 3.77-.251.61-5.557zm14.05 14.629l-.31-1.981-4.47.299-.75 2.052-4.9.327 6.63-16.012 5.18-.347 3.25 15.352-4.63.31zm-3.45-5.33l2.57-.172-.76-4.731-1.81 4.903zm22.84-11.56l-1.71 15.684-4.42.296.53-4.929-.37.025-3.31 5.115-5.05.337 3.97-5.914a4.06 4.06 0 01-1.92-1.985 5.088 5.088 0 01-.34-2.846c.2-1.407.86-2.623 1.98-3.647 1.12-1.024 2.6-1.597 4.44-1.72l6.2-.416zm-8.26 6.092c-.05.448.06.804.31 1.068.27.264.63.374 1.07.33l1.68-.113.32-2.957-1.69.112c-.45.031-.84.19-1.14.478-.31.272-.5.633-.55 1.082zm27.06-7.328l-1.68 15.682-4.43.297 1.22-11.336-3.32.222-1.22 11.336-4.43.296 1.69-15.682 12.17-.815zm13.98-.958l-1.71 15.684-4.42.296.53-4.929-.37.025-3.31 5.115-5.05.337 3.97-5.914c-.88-.446-1.52-1.107-1.91-1.985a5.004 5.004 0 01-.35-2.846c.2-1.407.86-2.623 1.98-3.647 1.12-1.023 2.6-1.597 4.44-1.72l6.2-.416zm-8.26 6.092c-.05.448.06.804.31 1.069.27.263.63.373 1.07.328l1.68-.112.32-2.957-1.69.113c-.45.03-.84.19-1.14.477-.31.272-.49.633-.55 1.082zm21.3-6.942l-.46 4.346-3.65.244-1.23 11.336-4.42.297 1.22-11.336-3.66.244.47-4.346 11.73-.785zm9.52-.637l4.43-.296-1.69 15.681-4.43.297.62-5.78-3.77.252-.61 5.78-4.43.296 1.69-15.682 4.43-.296-.61 5.556 3.76-.251.61-5.557zm4.96 15.238l1.68-15.683 4.43-.296-.74 6.944 5.61-7.27 3.54-.237-1.68 15.682-4.43.296.74-6.944-5.61 7.27-3.54.237zm28.13-6.199l1.88-.125-.79 7.348-4.43.297.33-3.003-10.07.674 1.68-15.682 4.65-.31-1.22 11.335 3.32-.222 1.22-11.336 4.65-.311-1.22 11.335zm12.28 3.494l-.31-1.981-4.48.3-.75 2.051-4.89.328 6.62-16.013 5.18-.346 3.25 15.351-4.62.31zm-3.45-5.33l2.57-.172-.76-4.73-1.81 4.902zm53.05-13.559l4.43-.296-1.69 15.681-4.42.297.5-4.705c-.64.162-1.31.266-2.02.314-2.02.135-3.5-.278-4.44-1.238-.94-.96-1.32-2.336-1.12-4.128l.57-5.377 4.43-.296-.56 5.286c-.05.523.07.892.39 1.109.32.215.82.308 1.5.277a9.182 9.182 0 001.72-.293l.71-6.631zm16.28 2.958l-5.64.378-.18 1.702 5.1-.34-.45 4.032-5.09.341-.19 1.748 5.75-.385-.43 4.121-10.19.682 1.69-15.682 10.07-.674-.44 4.077zm8.42-4.611c1.5-.1 2.76.349 3.78 1.349 1.03.983 1.47 2.355 1.34 4.113-.13 1.64-.74 2.986-1.84 4.038-1.09 1.037-2.55 1.616-4.38 1.739l-1.77.118-.48 4.436-4.43.297 1.69-15.682 6.09-.408zm.72 5.534c.05-.418-.05-.722-.3-.913a1.241 1.241 0 00-.89-.275l-1.66.111-.27 2.554 1.77-.118c.34-.023.64-.154.9-.395.27-.255.42-.576.45-.964zm14.55-6.556l4.43-.296-1.69 15.682-4.43.296.61-5.78-3.76.253-.61 5.779-4.43.296 1.68-15.681 4.43-.297-.6 5.557 3.76-.252.61-5.557zm14.05 14.629l-.31-1.981-4.47.299-.75 2.052-4.9.328 6.63-16.013 5.18-.347 3.25 15.352-4.63.31zm-3.45-5.33l2.57-.172-.76-4.73-1.81 4.902zm22.84-11.559l-1.7 15.683-4.43.296.53-4.929-.37.025-3.31 5.115-5.05.338 3.97-5.915a4.04 4.04 0 01-1.91-1.985 5.004 5.004 0 01-.35-2.846c.2-1.407.86-2.623 1.98-3.647 1.12-1.023 2.6-1.597 4.44-1.72l6.2-.415zm-8.26 6.09c-.05.449.06.805.31 1.07.27.263.63.373 1.07.328l1.68-.112.32-2.957-1.69.113c-.45.03-.84.19-1.14.477-.31.272-.49.633-.55 1.082zm27.07-7.327l-1.69 15.682-4.43.297 1.22-11.336-3.32.222-1.22 11.336-4.43.296 1.69-15.682 12.18-.815zm13.98-.958l-1.71 15.684-4.43.296.54-4.929-.38.025-3.31 5.115-5.04.338 3.96-5.915a4.04 4.04 0 01-1.91-1.985c-.39-.893-.5-1.842-.35-2.846.2-1.407.86-2.623 1.98-3.647 1.12-1.023 2.6-1.597 4.45-1.72l6.2-.415zm-8.27 6.092c-.05.448.06.804.31 1.069.27.263.63.373 1.07.329l1.69-.113.31-2.957-1.68.113c-.46.03-.84.19-1.15.477-.31.272-.49.633-.55 1.082zm21.31-6.942l-.47 4.346-3.65.245-1.22 11.335-4.43.297 1.22-11.336-3.65.244.46-4.346 11.74-.785zm9.51-.637l4.43-.296-1.68 15.682-4.43.296.61-5.78-3.76.252-.62 5.78-4.43.296 1.69-15.682 4.43-.296-.61 5.556 3.77-.251.6-5.557zm4.96 15.237l1.68-15.681 4.43-.297-.73 6.944 5.6-7.27 3.55-.237-1.69 15.682-4.43.296.74-6.944-5.61 7.27-3.54.237zm28.13-6.197l1.89-.126-.8 7.348-4.43.297.33-3.003-10.07.674 1.68-15.682 4.65-.31-1.22 11.335 3.32-.222 1.22-11.336 4.65-.311-1.22 11.336zm12.28 3.493l-.31-1.981-4.47.3-.76 2.051-4.89.328 6.62-16.012 5.18-.347 3.26 15.351-4.63.31zm-3.45-5.33l2.57-.171-.76-4.731-1.81 4.902z" fill="#000"/><defs><filter id="filter0_d" x="0" y=".001" width="2668.12" height="300.495" filterUnits="userSpaceOnUse" color-interpolation-filters="sRGB"><feFlood flood-opacity="0" result="BackgroundImageFix"/><feColorMatrix in="SourceAlpha" values="0 0 0 0 0 0 0 0 0 0 0 0 0 0 0 0 0 0 127 0"/><feOffset/><feGaussianBlur stdDeviation="25"/><feColorMatrix values="0 0 0 0 0.08 0 0 0 0 1 0 0 0 0 0 0 0 0 1 0"/><feBlend in2="BackgroundImageFix" result="effect1_dropShadow"/><feBlend in="SourceGraphic" in2="effect1_dropShadow" result="shape"/></filter></defs></svg>