<svg width="2613" height="709" fill="none" xmlns="http://www.w3.org/2000/svg"><g filter="url(#filter0_d)"><path fill="#2CDC00" d="M56.502 50l2505.594 580.365-6.502 28.07L50 78.071z"/></g><path d="M577.615 177.747l4.324 1.002-6.165 14.518-4.324-1.002 1.852-4.355a11.277 11.277 0 01-2.029-.288c-1.975-.457-3.272-1.281-3.892-2.473-.62-1.191-.579-2.617.125-4.276l2.11-4.979 4.324 1.002-2.069 4.897c-.203.484-.187.875.048 1.173.249.3.703.535 1.363.703.519.12 1.094.192 1.726.217l2.607-6.139zm14.723 7.556l-5.513-1.277-.662 1.578 4.973 1.152-1.594 3.731-4.972-1.151-.693 1.616 5.621 1.302-1.614 3.818-9.945-2.304 6.165-14.518 9.837 2.279-1.603 3.774zm9.387-1.971c1.47.34 2.546 1.136 3.228 2.388.7 1.24.73 2.682.091 4.326-.597 1.532-1.576 2.642-2.935 3.329-1.341.677-2.905.808-4.692.394l-1.73-.4-1.748 4.105-4.324-1.002 6.164-14.517 5.946 1.377zm-.911 5.506c.165-.386.156-.708-.028-.963a1.215 1.215 0 00-.768-.519l-1.621-.376-1.003 2.365 1.729.4c.332.077.659.039.983-.114.327-.167.563-.431.708-.793zm15.822-2.052l4.324 1.001-6.164 14.518-4.324-1.002 2.265-5.352-3.676-.851-2.265 5.352-4.323-1.001 6.164-14.518 4.324 1.001-2.193 5.142 3.675.851 2.193-5.141zm9.206 18.077l.277-1.985-4.367-1.012-1.315 1.746-4.778-1.107 10.986-13.401 5.058 1.172-1.343 15.634-4.518-1.047zm-1.754-6.1l2.508.58.645-4.748-3.153 4.168zm25.212-4.434l-6.186 14.512-4.324-1.001 1.945-4.561-.368-.085-4.647 3.935-4.929-1.142 5.509-4.51a4.063 4.063 0 01-1.254-2.454c-.11-.967.055-1.909.495-2.824.602-1.288 1.586-2.26 2.953-2.915 1.367-.656 2.951-.775 4.753-.357l6.053 1.402zm-9.678 3.43c-.173.416-.175.787-.008 1.114.182.331.49.539.926.625l1.643.38 1.158-2.738-1.643-.381c-.447-.103-.859-.062-1.236.124-.374.172-.654.464-.84.876zm28.03.843l-6.165 14.518-4.324-1.002 4.458-10.493-3.243-.752-4.458 10.494-4.324-1.001 6.165-14.518 11.891 2.754zm13.655 3.14l-6.186 14.513-4.324-1.001 1.945-4.561-.368-.086-4.647 3.935-4.929-1.141 5.509-4.51a4.066 4.066 0 01-1.254-2.455c-.11-.967.055-1.908.495-2.824.602-1.288 1.586-2.259 2.953-2.915 1.367-.655 2.951-.774 4.753-.357l6.053 1.402zm-9.678 3.431c-.173.415-.175.787-.008 1.114.182.331.49.539.926.625l1.643.38 1.158-2.738-1.643-.381c-.447-.103-.859-.062-1.236.124-.374.171-.654.463-.84.876zm22.404-.46l-1.706 4.024-3.567-.826-4.458 10.493-4.324-1.001 4.458-10.494-3.567-.826 1.706-4.024 11.458 2.654zm9.293 2.152l4.323 1.002-6.164 14.518-4.324-1.002 2.265-5.353-3.675-.851-2.265 5.353-4.324-1.002 6.164-14.518 4.324 1.002-2.193 5.141 3.675.852 2.194-5.142zm.319 16.02l6.165-14.518 4.324 1.002-2.72 6.431 7.476-5.33 3.459.802-6.164 14.517-4.324-1.001 2.719-6.432-7.476 5.33-3.459-.801zm28.724 2.234l1.838.426-2.896 6.8-4.324-1.001 1.19-2.777-9.837-2.278 6.164-14.518 4.54 1.051-4.458 10.494 3.243.751 4.458-10.493 4.54 1.051-4.458 10.494zm10.733 6.905l.278-1.986-4.367-1.011-1.316 1.745-4.778-1.106 10.986-13.401 5.059 1.171-1.343 15.635-4.519-1.047zm-1.753-6.101l2.508.581.644-4.748-3.152 4.167zm-382.174-98.772l4.324 1.001-6.164 14.518-4.324-1.001 1.851-4.355a11.472 11.472 0 01-2.029-.288c-1.974-.457-3.271-1.282-3.892-2.473-.62-1.192-.578-2.617.125-4.277l2.11-4.978 4.324 1.002-2.068 4.896c-.203.485-.188.876.047 1.173.25.301.704.535 1.364.703.518.12 1.094.193 1.726.218l2.606-6.139zm14.723 7.556l-5.513-1.277-.661 1.578 4.972 1.152-1.593 3.731-4.972-1.152-.694 1.616 5.621 1.302-1.613 3.818-9.945-2.303 6.165-14.518 9.837 2.278-1.604 3.775zm9.387-1.972c1.471.341 2.547 1.137 3.229 2.388.7 1.241.73 2.683.091 4.327-.598 1.532-1.576 2.641-2.935 3.329-1.341.676-2.906.808-4.693.394l-1.729-.401-1.749 4.105-4.323-1.001 6.164-14.518 5.945 1.377zm-.911 5.507c.166-.387.157-.708-.027-.963a1.221 1.221 0 00-.768-.52l-1.622-.375-1.003 2.364 1.73.401c.331.077.659.039.983-.114.327-.167.563-.432.707-.793zm15.823-2.053l4.324 1.002-6.165 14.518-4.324-1.002 2.265-5.353-3.675-.851-2.265 5.353-4.324-1.002 6.165-14.518 4.324 1.002-2.193 5.141 3.675.852 2.193-5.142zm9.205 18.078l.278-1.986-4.367-1.011-1.316 1.745-4.778-1.107 10.986-13.401 5.059 1.172-1.343 15.635-4.519-1.047zm-1.753-6.101l2.508.581.644-4.748-3.152 4.167zm25.212-4.434l-6.186 14.513-4.324-1.002 1.944-4.561-.367-.085-4.647 3.935-4.93-1.141 5.51-4.51a4.068 4.068 0 01-1.254-2.455c-.11-.967.055-1.908.495-2.824.602-1.288 1.586-2.259 2.953-2.915 1.366-.655 2.951-.774 4.752-.357l6.054 1.402zm-9.679 3.431c-.172.415-.175.787-.007 1.114.181.331.49.539.926.624l1.643.381 1.158-2.739-1.643-.38c-.447-.104-.859-.062-1.236.124-.374.171-.654.463-.841.876zm28.03.843l-6.164 14.518-4.324-1.002 4.458-10.494-3.243-.751-4.458 10.494-4.324-1.002 6.165-14.517 11.89 2.754zm13.656 3.14l-6.186 14.513-4.324-1.002 1.944-4.561-.367-.085-4.647 3.935-4.93-1.142 5.51-4.51a4.063 4.063 0 01-1.254-2.454c-.11-.967.055-1.908.495-2.824.602-1.288 1.586-2.26 2.953-2.915 1.366-.655 2.951-.775 4.752-.357l6.054 1.402zm-9.679 3.43c-.172.416-.175.787-.007 1.115.181.33.49.538.926.624l1.643.381 1.158-2.739-1.643-.38c-.447-.104-.859-.063-1.236.123-.374.172-.654.464-.841.876zm22.405-.46l-1.706 4.024-3.568-.826-4.458 10.494-4.324-1.002 4.458-10.493-3.567-.827 1.707-4.024 11.458 2.654zm9.292 2.153l4.324 1.001-6.164 14.518-4.324-1.001 2.265-5.353-3.676-.851-2.265 5.352-4.324-1.001 6.165-14.518 4.324 1.002-2.193 5.141 3.675.851 2.193-5.141zm.32 16.019l6.164-14.517 4.324 1.001-2.72 6.432 7.477-5.33 3.459.801-6.165 14.518-4.324-1.002 2.72-6.431-7.476 5.33-3.459-.802zm28.724 2.235l1.838.425-2.897 6.801-4.324-1.002 1.19-2.776-9.837-2.279 6.165-14.518 4.54 1.052-4.458 10.494 3.243.751 4.458-10.494 4.54 1.052-4.458 10.494zm10.733 6.905l.278-1.986-4.368-1.012-1.315 1.746-4.778-1.107 10.986-13.401 5.059 1.172-1.344 15.634-4.518-1.046zm-1.753-6.101l2.507.581.645-4.749-3.152 4.168zM140.736 76.554l4.324 1.002-6.164 14.518-4.324-1.002 1.851-4.355a11.403 11.403 0 01-2.029-.287c-1.974-.458-3.272-1.282-3.892-2.474-.62-1.191-.578-2.617.125-4.276l2.11-4.978 4.324 1.001-2.068 4.897c-.204.484-.188.875.047 1.173.249.3.704.535 1.363.703.519.12 1.095.192 1.727.217l2.606-6.139zm14.723 7.556l-5.513-1.276-.662 1.578 4.973 1.151-1.593 3.731-4.973-1.151-.693 1.616 5.621 1.302-1.613 3.818-9.945-2.304 6.164-14.517 9.837 2.278-1.603 3.775zm9.387-1.971c1.47.34 2.546 1.136 3.228 2.388.7 1.24.731 2.682.092 4.326-.598 1.532-1.576 2.642-2.935 3.33-1.342.676-2.906.807-4.693.393l-1.73-.4-1.748 4.105-4.324-1.002 6.165-14.517 5.945 1.377zm-.911 5.507c.166-.387.157-.708-.027-.964a1.221 1.221 0 00-.768-.52l-1.622-.375-1.003 2.365 1.729.4c.332.077.66.04.984-.114.327-.167.563-.431.707-.793zm15.823-2.053l4.324 1.001-6.165 14.518-4.324-1.001 2.265-5.353-3.675-.851-2.265 5.352-4.324-1.001 6.165-14.518 4.323 1.002-2.193 5.14 3.676.852 2.193-5.141zm9.205 18.078l.278-1.986-4.367-1.012-1.316 1.746-4.778-1.107 10.986-13.401 5.059 1.172-1.344 15.634-4.518-1.046zm-1.753-6.101l2.508.58.644-4.748-3.152 4.168zm25.211-4.434l-6.186 14.513-4.324-1.002 1.945-4.561-.367-.085-4.648 3.935-4.929-1.142 5.509-4.51a4.057 4.057 0 01-1.253-2.454 5.078 5.078 0 01.494-2.824c.602-1.288 1.587-2.26 2.953-2.915 1.367-.656 2.951-.775 4.753-.357l6.053 1.402zm-9.678 3.43c-.172.416-.175.787-.008 1.115.182.33.491.538.926.624l1.643.38 1.159-2.738-1.643-.38c-.447-.104-.859-.063-1.236.123-.374.172-.654.464-.841.876zm28.03.844l-6.165 14.517-4.323-1.001 4.458-10.494-3.243-.751-4.458 10.493-4.324-1.001 6.164-14.518 11.891 2.754zm13.655 3.14l-6.186 14.512-4.324-1.001 1.945-4.561-.367-.085-4.648 3.935-4.929-1.142 5.509-4.51a4.062 4.062 0 01-1.253-2.454 5.077 5.077 0 01.494-2.824c.602-1.288 1.587-2.26 2.953-2.916 1.367-.655 2.951-.774 4.753-.357l6.053 1.403zm-9.678 3.43c-.172.416-.175.787-.008 1.114.182.331.491.539.926.625l1.643.38 1.159-2.738-1.643-.381c-.447-.103-.859-.062-1.236.124-.374.171-.654.463-.841.876zm22.405-.46l-1.707 4.024-3.567-.826-4.458 10.494-4.324-1.002 4.458-10.494-3.567-.826 1.706-4.024 11.459 2.654zm9.292 2.152l4.324 1.002-6.165 14.518-4.324-1.002 2.265-5.352-3.675-.852-2.265 5.353-4.324-1.002 6.165-14.517 4.324 1.001-2.194 5.141 3.676.852 2.193-5.142zm.32 16.02l6.164-14.518 4.324 1.002-2.72 6.431 7.476-5.329 3.459.801-6.164 14.517-4.324-1.001 2.72-6.432-7.476 5.33-3.459-.801zm28.724 2.234l1.837.426-2.896 6.801-4.324-1.002 1.19-2.777-9.837-2.278 6.165-14.518 4.54 1.052-4.458 10.493 3.243.752 4.458-10.494 4.54 1.051-4.458 10.494zm10.733 6.905l.277-1.985-4.367-1.012-1.315 1.745-4.778-1.106 10.985-13.401 5.059 1.171-1.343 15.635-4.518-1.047zm-1.754-6.101l2.508.581.644-4.748-3.152 4.167zm487.423 102.65l4.324 1.001-6.165 14.518-4.323-1.001 1.851-4.355a11.46 11.46 0 01-2.029-.288c-1.975-.457-3.272-1.282-3.892-2.473-.62-1.192-.578-2.617.125-4.277l2.11-4.978 4.324 1.002-2.068 4.896c-.204.485-.188.876.047 1.173.249.301.704.535 1.363.703a9.32 9.32 0 001.727.218l2.606-6.139zm14.723 7.556l-5.513-1.277-.662 1.578 4.973 1.152-1.593 3.731-4.973-1.152-.693 1.616 5.621 1.302-1.613 3.818-9.945-2.303 6.164-14.518 9.837 2.278-1.603 3.775zm9.387-1.972c1.47.341 2.546 1.137 3.228 2.388.7 1.241.731 2.683.092 4.327-.598 1.532-1.577 2.642-2.935 3.329-1.342.676-2.906.808-4.693.394l-1.73-.401-1.748 4.106-4.324-1.002 6.165-14.518 5.945 1.377zm-.911 5.507c.166-.387.157-.708-.027-.963a1.221 1.221 0 00-.768-.52l-1.622-.375-1.003 2.364 1.729.401c.332.077.66.039.984-.114.327-.167.563-.432.707-.793zm15.823-2.053l4.324 1.002-6.165 14.518-4.324-1.002 2.265-5.352-3.675-.852-2.265 5.353-4.324-1.002 6.164-14.518 4.324 1.002-2.193 5.141 3.676.852 2.193-5.142zm9.205 18.078l.278-1.986-4.367-1.011-1.316 1.745-4.778-1.107 10.986-13.401 5.059 1.172-1.344 15.635-4.518-1.047zm-1.753-6.101l2.508.581.644-4.748-3.152 4.167zm25.211-4.434l-6.186 14.513-4.324-1.001 1.945-4.561-.367-.086-4.648 3.935-4.929-1.141 5.509-4.51a4.062 4.062 0 01-1.253-2.455 5.079 5.079 0 01.494-2.824c.602-1.288 1.587-2.259 2.953-2.915 1.367-.655 2.951-.774 4.753-.357l6.053 1.402zm-9.678 3.431c-.172.415-.175.787-.008 1.114.182.331.491.539.926.625l1.643.38 1.159-2.738-1.643-.381c-.447-.104-.859-.062-1.236.124-.374.171-.655.463-.841.876zm28.03.843l-6.165 14.518-4.323-1.002 4.458-10.494-3.243-.751L868.199 261l-4.324-1.002 6.164-14.517 11.891 2.754zm13.655 3.14l-6.186 14.513-4.324-1.002 1.945-4.561-.367-.085-4.648 3.935-4.929-1.142 5.509-4.509a4.062 4.062 0 01-1.253-2.455 5.079 5.079 0 01.494-2.824c.602-1.288 1.587-2.26 2.953-2.915 1.367-.655 2.951-.774 4.753-.357l6.053 1.402zm-9.678 3.43c-.172.416-.175.787-.008 1.115.182.33.491.538.926.624l1.643.381 1.159-2.739-1.643-.38c-.447-.104-.859-.063-1.236.123-.374.172-.655.464-.841.876zm22.405-.459l-1.707 4.023-3.567-.826-4.458 10.494-4.324-1.002 4.458-10.493-3.567-.827 1.706-4.024 11.459 2.655zm9.292 2.152l4.324 1.001-6.165 14.518-4.324-1.001 2.265-5.353-3.675-.851-2.265 5.352-4.324-1.001 6.165-14.518 4.324 1.002-2.194 5.141 3.676.851 2.193-5.141zm.32 16.02L924.088 258l4.324 1.001-2.72 6.432 7.476-5.33 3.459.801-6.164 14.518-4.324-1.002 2.72-6.431-7.476 5.33-3.459-.801zm28.724 2.234l1.837.425-2.896 6.801-4.324-1.002 1.19-2.776-9.837-2.279 6.165-14.518 4.54 1.052-4.458 10.494 3.243.751 4.458-10.494 4.54 1.052-4.458 10.494zm10.732 6.905l.278-1.986-4.367-1.012-1.315 1.746-4.778-1.107 10.985-13.401 5.059 1.172-1.343 15.634-4.519-1.046zm-1.753-6.101l2.508.581.644-4.749-3.152 4.168zm54.703 2.42l4.33 1.002-6.17 14.518-4.32-1.002 1.85-4.355c-.66-.031-1.34-.127-2.03-.288-1.97-.457-3.27-1.281-3.89-2.473-.622-1.191-.58-2.617.12-4.276l2.11-4.979 4.33 1.002-2.07 4.897c-.2.484-.19.875.05 1.173.25.3.7.535 1.36.703.52.12 1.09.192 1.73.217l2.6-6.139zm14.73 7.556l-5.52-1.277-.66 1.578 4.97 1.152-1.59 3.731-4.97-1.151-.7 1.616 5.63 1.302-1.62 3.818-9.94-2.304 6.16-14.518 9.84 2.279-1.6 3.774zm9.38-1.971c1.47.34 2.55 1.136 3.23 2.388.7 1.24.73 2.682.09 4.326-.6 1.532-1.57 2.642-2.93 3.329-1.34.677-2.91.808-4.7.394l-1.73-.4-1.74 4.105-4.33-1.002 6.17-14.517 5.94 1.377zm-.91 5.506c.17-.386.16-.707-.03-.963a1.207 1.207 0 00-.76-.519l-1.63-.376-1 2.365 1.73.4c.33.077.66.039.98-.114.33-.167.57-.431.71-.793zm15.82-2.052l4.33 1.001-6.17 14.518-4.32-1.002 2.26-5.352-3.67-.851-2.27 5.352-4.32-1.001 6.16-14.518 4.33 1.001-2.19 5.142 3.67.851 2.19-5.141zm9.21 18.078l.28-1.986-4.37-1.012-1.32 1.746-4.77-1.107 10.98-13.401 5.06 1.172-1.34 15.634-4.52-1.046zm-1.75-6.101l2.5.58.65-4.748-3.15 4.168zm25.21-4.434l-6.19 14.512-4.32-1.001 1.94-4.561-.37-.085-4.64 3.935-4.93-1.142 5.51-4.51a4.071 4.071 0 01-1.26-2.454c-.11-.967.06-1.909.5-2.824.6-1.288 1.58-2.26 2.95-2.915 1.37-.656 2.95-.775 4.75-.357l6.06 1.402zm-9.68 3.43c-.17.416-.18.787-.01 1.114.18.331.49.539.93.625l1.64.381 1.16-2.739-1.64-.381c-.45-.103-.86-.062-1.24.124-.37.172-.65.464-.84.876zm28.03.843l-6.17 14.518-4.32-1.002 4.46-10.493-3.24-.752-4.46 10.494-4.33-1.001 6.17-14.518 11.89 2.754zm13.65 3.14l-6.18 14.513-4.33-1.001 1.95-4.561-.37-.086-4.65 3.936-4.92-1.142 5.5-4.51a4.114 4.114 0 01-1.25-2.455c-.11-.967.06-1.908.5-2.824.6-1.288 1.58-2.259 2.95-2.915 1.37-.655 2.95-.774 4.75-.357l6.05 1.402zm-9.67 3.431c-.18.415-.18.787-.01 1.114.18.331.49.539.92.625l1.65.38 1.16-2.738-1.65-.381c-.44-.103-.86-.062-1.23.124-.38.171-.66.463-.84.876zm22.4-.46l-1.71 4.024-3.56-.826-4.46 10.493-4.32-1.001 4.45-10.494-3.56-.826 1.7-4.024 11.46 2.654zm9.29 2.152l4.33 1.002-6.17 14.518-4.32-1.002 2.26-5.352-3.67-.852-2.27 5.353-4.32-1.002 6.16-14.518 4.33 1.002-2.2 5.141 3.68.852 2.19-5.142zm.32 16.02l6.17-14.518 4.32 1.002-2.72 6.431 7.48-5.33 3.46.802-6.17 14.517-4.32-1.001 2.72-6.432-7.48 5.33-3.46-.801zm28.73 2.234l1.83.426-2.89 6.8-4.33-1.001 1.19-2.777-9.83-2.278 6.16-14.518 4.54 1.051-4.46 10.494 3.25.751 4.45-10.493 4.55 1.051-4.46 10.494zm10.73 6.905l.28-1.986-4.37-1.011-1.32 1.745-4.77-1.106 10.98-13.401 5.06 1.171-1.34 15.635-4.52-1.047zm-1.75-6.101l2.5.581.65-4.748-3.15 4.167zm45.79.356l4.32 1.001-6.16 14.518-4.33-1.002 1.85-4.355a11.49 11.49 0 01-2.03-.287c-1.97-.458-3.27-1.282-3.89-2.474-.62-1.191-.58-2.616.13-4.276l2.11-4.978 4.32 1.001-2.07 4.897c-.2.485-.19.875.05 1.173.25.301.7.535 1.36.703.52.12 1.1.193 1.73.218l2.61-6.139zm14.72 7.556l-5.51-1.277-.67 1.578 4.98 1.151-1.6 3.732-4.97-1.152-.69 1.616 5.62 1.302-1.61 3.818-9.95-2.304 6.17-14.517 9.83 2.278-1.6 3.775zm9.39-1.972c1.47.341 2.54 1.137 3.22 2.388.7 1.24.73 2.682.1 4.326-.6 1.532-1.58 2.642-2.94 3.33-1.34.676-2.91.807-4.69.393l-1.73-.4-1.75 4.105-4.32-1.001 6.16-14.518 5.95 1.377zm-.92 5.507c.17-.387.16-.708-.02-.963-.18-.27-.44-.443-.77-.52l-1.62-.376-1.01 2.365 1.73.401c.34.076.66.038.99-.114.32-.168.56-.432.7-.793zm15.83-2.053l4.32 1.002-6.16 14.517-4.33-1.001 2.27-5.353-3.68-.851-2.26 5.352-4.33-1.001 6.17-14.518 4.32 1.002-2.19 5.141 3.67.851 2.2-5.141zm9.2 18.078l.28-1.986-4.37-1.012-1.31 1.746-4.78-1.107 10.99-13.401 5.05 1.172-1.34 15.634-4.52-1.046zm-1.75-6.101l2.51.581.64-4.749-3.15 4.168zm25.21-4.434l-6.19 14.513-4.32-1.002 1.95-4.561-.37-.085-4.65 3.935-4.93-1.142 5.51-4.51a4.058 4.058 0 01-1.25-2.454c-.11-.967.05-1.908.49-2.824.6-1.288 1.59-2.26 2.96-2.915 1.36-.655 2.95-.774 4.75-.357l6.05 1.402zm-9.68 3.43c-.17.416-.17.787-.01 1.115.19.33.5.538.93.624l1.64.381 1.16-2.739-1.64-.38c-.45-.104-.86-.063-1.24.123-.37.172-.65.464-.84.876zm28.03.844l-6.16 14.517-4.33-1.001 4.46-10.494-3.24-.751-4.46 10.494-4.32-1.002 6.16-14.518 11.89 2.755zm13.66 3.14l-6.19 14.512-4.32-1.001 1.94-4.561-.36-.085-4.65 3.935-4.93-1.142 5.51-4.51a4.071 4.071 0 01-1.26-2.454c-.11-.967.06-1.909.5-2.824.6-1.288 1.59-2.26 2.95-2.915 1.37-.656 2.95-.775 4.75-.357l6.06 1.402zm-9.68 3.43c-.17.416-.18.787-.01 1.114.18.331.49.539.93.625l1.64.38 1.16-2.738-1.64-.381c-.45-.103-.86-.062-1.24.124-.37.172-.65.464-.84.876zm22.4-.46l-1.7 4.024-3.57-.826-4.46 10.494-4.32-1.002 4.46-10.494-3.57-.826 1.71-4.024 11.45 2.654zm9.3 2.153l4.32 1.001-6.16 14.518-4.33-1.002 2.27-5.352-3.68-.852-2.26 5.353-4.33-1.002 6.17-14.517 4.32 1.001-2.19 5.142 3.67.851 2.2-5.141zm.32 16.019l6.16-14.518 4.32 1.002-2.72 6.432 7.48-5.33 3.46.801-6.16 14.518-4.33-1.002 2.72-6.432-7.47 5.33-3.46-.801zm28.72 2.234l1.84.426-2.9 6.801-4.32-1.002 1.19-2.777-9.84-2.278 6.17-14.518 4.54 1.052-4.46 10.494 3.24.751 4.46-10.494 4.54 1.051-4.46 10.494zm10.73 6.905l.28-1.985-4.37-1.012-1.31 1.746-4.78-1.107 10.99-13.401 5.06 1.172-1.35 15.634-4.52-1.047zm-1.75-6.1l2.51.58.64-4.748-3.15 4.168zm54.71 2.42l4.32 1.001-6.17 14.518-4.32-1.001 1.85-4.355c-.66-.032-1.34-.128-2.03-.288-1.97-.457-3.27-1.282-3.89-2.473-.62-1.192-.58-2.617.13-4.277l2.11-4.978 4.32 1.002-2.07 4.897c-.2.484-.19.875.05 1.172.25.301.7.535 1.36.703.52.12 1.1.193 1.73.218l2.61-6.139zm14.72 7.556l-5.52-1.277-.66 1.578 4.98 1.152-1.6 3.731-4.97-1.152-.69 1.617 5.62 1.302-1.62 3.817-9.94-2.303 6.16-14.518 9.84 2.279-1.6 3.774zm9.39-1.972c1.47.341 2.54 1.137 3.22 2.388.7 1.241.73 2.683.09 4.327-.59 1.532-1.57 2.642-2.93 3.329-1.34.677-2.91.808-4.69.394l-1.73-.401-1.75 4.106-4.32-1.002 6.16-14.518 5.95 1.377zm-.92 5.507c.17-.387.16-.708-.02-.963-.18-.27-.44-.443-.77-.52l-1.62-.375-1.01 2.364 1.73.401c.33.077.66.039.99-.114.32-.167.56-.432.7-.793zm15.83-2.053l4.32 1.002-6.16 14.518-4.33-1.002 2.27-5.352-3.68-.852-2.26 5.353-4.33-1.002 6.17-14.517 4.32 1.001-2.19 5.141 3.67.852 2.2-5.142zm9.2 18.078l.28-1.986-4.37-1.011-1.31 1.745-4.78-1.106 10.98-13.401 5.06 1.171-1.34 15.635-4.52-1.047zm-1.75-6.101l2.51.581.64-4.748-3.15 4.167zm25.21-4.434l-6.19 14.513-4.32-1.001 1.95-4.561-.37-.086-4.65 3.935-4.93-1.141 5.51-4.51c-.71-.68-1.13-1.499-1.25-2.455-.11-.967.05-1.908.49-2.824.6-1.288 1.59-2.259 2.95-2.915 1.37-.655 2.96-.774 4.76-.357l6.05 1.402zm-9.68 3.431c-.17.415-.17.787-.01 1.114.19.331.49.539.93.625l1.64.38 1.16-2.738-1.64-.381c-.45-.103-.86-.062-1.24.124-.37.171-.65.463-.84.876zm28.03.843l-6.16 14.518-4.33-1.002 4.46-10.494-3.24-.751-4.46 10.494-4.32-1.002 6.16-14.517 11.89 2.754zm13.66 3.14l-6.19 14.513-4.32-1.002 1.94-4.561-.37-.085-4.64 3.935-4.93-1.142 5.51-4.509a4.076 4.076 0 01-1.26-2.455c-.11-.967.06-1.908.5-2.824.6-1.288 1.58-2.26 2.95-2.915 1.37-.655 2.95-.774 4.75-.357l6.06 1.402zm-9.68 3.43c-.17.416-.18.788-.01 1.115.18.33.49.539.93.624l1.64.381 1.16-2.739-1.64-.38c-.45-.104-.86-.063-1.24.123-.37.172-.65.464-.84.876zm22.4-.459l-1.7 4.024-3.57-.827-4.46 10.494-4.32-1.001 4.46-10.494-3.57-.826 1.71-4.024 11.45 2.654zm9.3 2.152l4.32 1.001-6.16 14.518-4.33-1.001 2.27-5.353-3.68-.851-2.26 5.352-4.33-1.001 6.17-14.518 4.32 1.002-2.19 5.141 3.67.851 2.2-5.141zm.32 16.02l6.16-14.518 4.32 1.001-2.72 6.432 7.48-5.33 3.46.801-6.17 14.518-4.32-1.001 2.72-6.432-7.48 5.33-3.45-.801zm28.72 2.234l1.84.425-2.9 6.801-4.32-1.001 1.19-2.777-9.84-2.279 6.16-14.517 4.54 1.051-4.45 10.494 3.24.751 4.46-10.494 4.54 1.052-4.46 10.494zm10.73 6.905l.28-1.986-4.37-1.011-1.31 1.745-4.78-1.107 10.99-13.401 5.05 1.172-1.34 15.634-4.52-1.046zm-1.75-6.101l2.51.581.64-4.749-3.15 4.168zm54.7 2.42l4.33 1.002-6.17 14.518-4.32-1.002 1.85-4.355c-.66-.031-1.34-.127-2.03-.287-1.97-.458-3.27-1.282-3.89-2.474-.62-1.191-.58-2.617.13-4.276l2.11-4.978 4.32 1.001-2.07 4.897c-.2.484-.19.875.05 1.173.25.3.7.535 1.36.703.52.12 1.1.192 1.73.217l2.6-6.139zm14.73 7.556l-5.52-1.277-.66 1.578 4.98 1.152-1.6 3.731-4.97-1.151-.69 1.616 5.62 1.302-1.62 3.818-9.94-2.304 6.16-14.518 9.84 2.279-1.6 3.774zm9.38-1.971c1.47.34 2.55 1.136 3.23 2.388.7 1.24.73 2.682.09 4.326-.59 1.532-1.57 2.642-2.93 3.33-1.34.676-2.91.807-4.69.393l-1.73-.4-1.75 4.105-4.33-1.002 6.17-14.517 5.94 1.377zm-.91 5.506c.17-.386.16-.707-.02-.963a1.228 1.228 0 00-.77-.519l-1.62-.376-1.01 2.365 1.73.4c.33.077.66.039.99-.114.32-.167.56-.431.7-.793zm15.83-2.052l4.32 1.001-6.16 14.518-4.33-1.001 2.27-5.353-3.68-.851-2.26 5.352-4.33-1.001 6.17-14.518 4.32 1.001-2.19 5.142 3.67.851 2.2-5.141zm9.2 18.078l.28-1.986-4.37-1.012-1.31 1.746-4.78-1.107 10.98-13.401 5.06 1.172-1.34 15.634-4.52-1.046zm-1.75-6.101l2.51.581.64-4.749-3.15 4.168zm25.21-4.434l-6.19 14.513-4.32-1.002 1.94-4.561-.36-.085-4.65 3.935-4.93-1.142 5.51-4.51c-.71-.68-1.13-1.498-1.25-2.454-.11-.967.05-1.909.49-2.824.6-1.288 1.59-2.26 2.95-2.915 1.37-.656 2.95-.775 4.76-.357l6.05 1.402zm-9.68 3.43c-.17.416-.17.787-.01 1.115.18.33.49.538.93.624l1.64.381 1.16-2.739-1.64-.381c-.45-.103-.86-.062-1.24.124-.37.172-.65.464-.84.876zm28.03.843l-6.16 14.518-4.33-1.001 4.46-10.494-3.24-.751-4.46 10.493-4.32-1.001 6.16-14.518 11.89 2.754zm13.66 3.14l-6.19 14.513-4.32-1.001 1.94-4.561-.37-.085-4.64 3.935-4.93-1.142 5.51-4.51a4.074 4.074 0 01-1.26-2.454c-.11-.968.06-1.909.5-2.824.6-1.289 1.58-2.26 2.95-2.916 1.37-.655 2.95-.774 4.75-.357l6.06 1.402zm-9.68 3.431c-.17.415-.18.787-.01 1.114.18.331.49.539.93.625l1.64.38 1.16-2.738-1.65-.381a1.79 1.79 0 00-1.23.124c-.38.171-.66.463-.84.876zm22.4-.46l-1.7 4.024-3.57-.826-4.46 10.493-4.32-1.001 4.46-10.494-3.57-.826 1.7-4.024 11.46 2.654zm9.29 2.152l4.33 1.002-6.17 14.518-4.32-1.002 2.27-5.352-3.68-.852-2.26 5.353-4.33-1.002 6.17-14.517 4.32 1.001-2.19 5.141 3.67.852 2.19-5.142zm.32 16.02l6.17-14.518 4.32 1.002-2.72 6.431 7.48-5.33 3.46.802-6.17 14.517-4.32-1.001 2.72-6.432-7.48 5.33-3.46-.801zm28.73 2.234l1.84.426-2.9 6.8-4.32-1.001 1.19-2.777-9.84-2.278 6.16-14.518 4.54 1.052-4.45 10.493 3.24.751 4.46-10.493 4.54 1.051-4.46 10.494zm10.73 6.905l.28-1.986-4.37-1.011-1.31 1.745-4.78-1.106 10.98-13.401 5.06 1.171-1.34 15.635-4.52-1.047zm-1.75-6.101l2.51.581.64-4.748-3.15 4.167zm54.7 2.421l4.33 1.001-6.17 14.518-4.32-1.001 1.85-4.355c-.66-.032-1.34-.128-2.03-.288-1.97-.457-3.27-1.282-3.89-2.473-.62-1.192-.58-2.617.12-4.277l2.11-4.978 4.33 1.002-2.07 4.896c-.2.485-.19.876.05 1.173.25.301.7.535 1.36.703.52.12 1.1.193 1.73.218l2.6-6.139zm14.73 7.556l-5.52-1.277-.66 1.578 4.97 1.152-1.59 3.731-4.97-1.152-.69 1.616 5.62 1.302-1.62 3.818-9.94-2.303 6.16-14.518 9.84 2.278-1.6 3.775zm9.38-1.972c1.47.341 2.55 1.137 3.23 2.388.7 1.241.73 2.683.09 4.327-.59 1.532-1.57 2.641-2.93 3.329-1.34.676-2.91.808-4.69.394l-1.73-.401-1.75 4.105-4.33-1.001 6.17-14.518 5.94 1.377zm-.91 5.507c.17-.387.16-.708-.02-.963-.19-.27-.44-.443-.77-.52l-1.62-.375-1.01 2.364 1.73.401c.33.077.66.039.99-.114.32-.167.56-.432.7-.793zm15.83-2.053l4.32 1.002-6.17 14.517-4.32-1.001 2.27-5.353-3.68-.851-2.26 5.353-4.33-1.002 6.17-14.518 4.32 1.002-2.19 5.141 3.67.852 2.2-5.142zm9.2 18.078l.28-1.986-4.37-1.011-1.31 1.745-4.78-1.107 10.98-13.401 5.06 1.172-1.34 15.635-4.52-1.047zm-1.75-6.101l2.51.581.64-4.748-3.15 4.167zm25.21-4.434l-6.19 14.513-4.32-1.002 1.94-4.561-.36-.085-4.65 3.935-4.93-1.141 5.51-4.51a4.076 4.076 0 01-1.26-2.455c-.11-.967.06-1.908.5-2.824.6-1.288 1.59-2.259 2.95-2.915 1.37-.655 2.95-.774 4.76-.357l6.05 1.402zm-9.68 3.431c-.17.415-.17.787-.01 1.114.18.331.49.539.93.624l1.64.381 1.16-2.739-1.64-.38c-.45-.104-.86-.062-1.24.124-.37.171-.65.463-.84.876zm28.03.843l-6.16 14.517-4.33-1.001 4.46-10.494-3.24-.751-4.46 10.494-4.32-1.002 6.16-14.517 11.89 2.754zm13.66 3.14l-6.19 14.513-4.32-1.002 1.94-4.561-.37-.085-4.64 3.935-4.93-1.142 5.51-4.51a4.071 4.071 0 01-1.26-2.454c-.11-.967.06-1.908.5-2.824.6-1.288 1.58-2.26 2.95-2.915 1.37-.655 2.95-.775 4.75-.357l6.06 1.402zm-9.68 3.43c-.17.416-.18.787-.01 1.115.18.33.49.538.93.624l1.64.381 1.16-2.739-1.65-.38a1.784 1.784 0 00-1.23.123c-.38.172-.66.464-.84.876zm22.4-.46l-1.7 4.024-3.57-.826-4.46 10.494-4.32-1.002 4.45-10.493-3.56-.827 1.7-4.024 11.46 2.654zm9.29 2.153l4.33 1.001-6.17 14.518-4.32-1.001 2.26-5.353-3.67-.851-2.27 5.352-4.32-1.001 6.17-14.518 4.32 1.001-2.19 5.142 3.67.851 2.19-5.141zm.32 16.019l6.17-14.517 4.32 1.001-2.72 6.432 7.48-5.33 3.46.801-6.17 14.518-4.32-1.002 2.72-6.431-7.48 5.33-3.46-.802zm28.73 2.235l1.84.425-2.9 6.801-4.32-1.002 1.19-2.776-9.84-2.279 6.16-14.518 4.54 1.052-4.45 10.494 3.24.751 4.46-10.494 4.54 1.052-4.46 10.494zm10.73 6.905l.28-1.986-4.37-1.012-1.31 1.746-4.78-1.107 10.98-13.401 5.06 1.172-1.34 15.634-4.52-1.046zm-1.75-6.101l2.51.581.64-4.749-3.15 4.168zm54.7 2.42l4.33 1.002-6.17 14.517-4.32-1.001 1.85-4.355c-.66-.032-1.34-.127-2.03-.288-1.97-.457-3.27-1.281-3.89-2.473-.62-1.191-.58-2.617.12-4.276l2.11-4.979 4.33 1.002-2.07 4.897c-.2.484-.19.875.05 1.172.25.301.7.536 1.36.703.52.121 1.09.193 1.73.218l2.6-6.139zm14.73 7.556l-5.52-1.277-.66 1.578 4.97 1.152-1.59 3.731-4.97-1.151-.7 1.616 5.63 1.302-1.62 3.817-9.94-2.303 6.16-14.518 9.84 2.279-1.6 3.774zm9.38-1.971c1.47.34 2.55 1.136 3.23 2.388.7 1.24.73 2.682.09 4.326-.6 1.532-1.57 2.642-2.93 3.329-1.34.677-2.91.808-4.7.394l-1.73-.401-1.74 4.106-4.33-1.002 6.17-14.517 5.94 1.377zm-.91 5.506c.17-.387.16-.708-.03-.963a1.203 1.203 0 00-.76-.519l-1.63-.376-1 2.365 1.73.4c.33.077.66.039.98-.114.33-.167.57-.431.71-.793zm15.82-2.052l4.33 1.001-6.17 14.518-4.32-1.002 2.26-5.352-3.67-.851-2.27 5.352-4.32-1.002 6.16-14.517 4.33 1.001-2.19 5.142 3.67.851 2.19-5.141zm9.21 18.077l.28-1.985-4.37-1.012-1.32 1.745-4.77-1.106 10.98-13.401 5.06 1.172-1.34 15.634-4.52-1.047zm-1.75-6.101l2.5.581.65-4.748-3.15 4.167zm25.21-4.433l-6.19 14.512-4.32-1.001 1.94-4.561-.36-.085-4.65 3.935-4.93-1.142 5.51-4.51a4.071 4.071 0 01-1.26-2.454c-.11-.967.06-1.909.5-2.824.6-1.288 1.59-2.26 2.95-2.915 1.37-.656 2.95-.775 4.75-.358l6.06 1.403zm-9.68 3.43c-.17.416-.18.787-.01 1.114.18.331.49.539.93.625l1.64.38 1.16-2.738-1.64-.381c-.45-.103-.86-.062-1.24.124-.37.172-.65.464-.84.876zm28.03.843l-6.17 14.518-4.32-1.002 4.46-10.493-3.24-.752-4.46 10.494-4.33-1.001 6.17-14.518 11.89 2.754zm13.65 3.14l-6.18 14.513-4.33-1.002 1.95-4.561-.37-.085-4.65 3.935-4.92-1.141 5.51-4.51a4.076 4.076 0 01-1.26-2.455c-.11-.967.06-1.908.5-2.824.6-1.288 1.58-2.259 2.95-2.915 1.37-.655 2.95-.774 4.75-.357l6.05 1.402zm-9.67 3.431c-.18.415-.18.787-.01 1.114.18.331.49.539.92.625l1.65.38 1.16-2.738-1.65-.381a1.778 1.778 0 00-1.23.124c-.38.171-.66.463-.84.876zm22.4-.46l-1.71 4.024-3.56-.826-4.46 10.493-4.32-1.001 4.45-10.494-3.56-.826 1.7-4.024 11.46 2.654zm9.29 2.152l4.33 1.002-6.17 14.517-4.32-1.001 2.26-5.353-3.67-.851-2.27 5.353-4.32-1.002 6.16-14.518 4.33 1.002-2.19 5.141 3.67.851 2.19-5.141zm.32 16.02l6.17-14.518 4.32 1.002-2.72 6.431 7.48-5.33 3.46.801-6.17 14.518-4.32-1.001 2.72-6.432-7.48 5.33-3.46-.801zm28.73 2.234l1.83.426-2.89 6.8-4.33-1.001 1.19-2.777-9.83-2.279 6.16-14.517 4.54 1.051-4.46 10.494 3.25.751 4.46-10.494 4.54 1.052-4.46 10.494zm10.73 6.905l.28-1.986-4.37-1.011-1.31 1.745-4.78-1.107 10.98-13.401 5.06 1.172-1.34 15.635-4.52-1.047zm-1.75-6.101l2.5.581.65-4.748-3.15 4.167zm54.7 2.421l4.33 1.001-6.17 14.518-4.32-1.002 1.85-4.355c-.66-.031-1.34-.127-2.03-.287-1.97-.458-3.27-1.282-3.89-2.473-.62-1.192-.58-2.617.12-4.277l2.11-4.978 4.33 1.001-2.07 4.897c-.2.485-.19.876.05 1.173.25.301.7.535 1.36.703.52.12 1.09.193 1.73.218l2.6-6.139zm14.72 7.556l-5.51-1.277-.66 1.578 4.97 1.151-1.59 3.732-4.97-1.152-.7 1.616 5.62 1.302-1.61 3.818-9.94-2.304 6.16-14.517 9.84 2.278-1.61 3.775zm9.39-1.972c1.47.341 2.55 1.137 3.23 2.388.7 1.24.73 2.682.09 4.326-.6 1.532-1.57 2.642-2.93 3.33-1.34.676-2.91.807-4.7.393l-1.73-.4-1.74 4.105-4.33-1.001 6.17-14.518 5.94 1.377zm-.91 5.507c.17-.387.16-.708-.03-.963-.18-.27-.43-.443-.76-.52l-1.63-.376-1 2.365 1.73.401a1.448 1.448 0 001.69-.907zm15.82-2.053l4.33 1.002-6.17 14.517-4.32-1.001 2.26-5.353-3.67-.851-2.27 5.352-4.32-1.001 6.16-14.518 4.33 1.002-2.19 5.141 3.67.851 2.19-5.141zm9.21 18.078l.28-1.986-4.37-1.012-1.32 1.746-4.77-1.107 10.98-13.401 5.06 1.172-1.34 15.634-4.52-1.046zm-1.75-6.101l2.5.581.65-4.749-3.15 4.168zm25.21-4.434l-6.19 14.513-4.32-1.002 1.94-4.561-.37-.085-4.64 3.935-4.93-1.142 5.51-4.509a4.076 4.076 0 01-1.26-2.455c-.11-.967.06-1.908.5-2.824.6-1.288 1.58-2.26 2.95-2.915 1.37-.655 2.95-.774 4.75-.357l6.06 1.402zm-9.68 3.43c-.17.416-.18.787-.01 1.115.18.33.49.539.93.624l1.64.381 1.16-2.739-1.64-.38c-.45-.104-.86-.063-1.24.123-.37.172-.65.464-.84.876zm28.03.844l-6.17 14.517-4.32-1.001 4.46-10.494-3.24-.751-4.46 10.494-4.33-1.002 6.17-14.518 11.89 2.755zm13.65 3.14l-6.18 14.512-4.33-1.001 1.95-4.561-.37-.085-4.65 3.935-4.93-1.142 5.51-4.51a4.112 4.112 0 01-1.25-2.454c-.11-.967.06-1.909.5-2.824.6-1.288 1.58-2.26 2.95-2.915 1.37-.656 2.95-.775 4.75-.357l6.05 1.402zm-9.67 3.43c-.18.416-.18.787-.01 1.114.18.331.49.539.92.625l1.65.381 1.16-2.739-1.65-.381c-.44-.103-.86-.062-1.23.124-.38.172-.66.464-.84.876zm22.4-.46l-1.71 4.024-3.56-.826-4.46 10.494-4.33-1.002 4.46-10.494-3.56-.826 1.7-4.024 11.46 2.654zm9.29 2.153l4.33 1.001-6.17 14.518-4.32-1.002 2.26-5.352-3.67-.852-2.27 5.353-4.32-1.002 6.16-14.517 4.33 1.001-2.2 5.142 3.68.851 2.19-5.141zm.32 16.019l6.17-14.517 4.32 1.001-2.72 6.432 7.48-5.33 3.46.801-6.17 14.518-4.32-1.002 2.72-6.432-7.48 5.33-3.46-.801zm28.73 2.234l1.83.426-2.89 6.801-4.33-1.002 1.19-2.777-9.83-2.278 6.16-14.518 4.54 1.052-4.46 10.494 3.25.751 4.45-10.494 4.54 1.052-4.45 10.493zm10.73 6.906l.28-1.986-4.37-1.012-1.32 1.746-4.77-1.107 10.98-13.401 5.06 1.172-1.34 15.634-4.52-1.046zm-1.75-6.101l2.5.58.65-4.748-3.15 4.168z" fill="#000"/><defs><filter id="filter0_d" x="0" y="0" width="2612.1" height="708.435" filterUnits="userSpaceOnUse" color-interpolation-filters="sRGB"><feFlood flood-opacity="0" result="BackgroundImageFix"/><feColorMatrix in="SourceAlpha" values="0 0 0 0 0 0 0 0 0 0 0 0 0 0 0 0 0 0 127 0"/><feOffset/><feGaussianBlur stdDeviation="25"/><feColorMatrix values="0 0 0 0 0.08 0 0 0 0 1 0 0 0 0 0 0 0 0 1 0"/><feBlend in2="BackgroundImageFix" result="effect1_dropShadow"/><feBlend in="SourceGraphic" in2="effect1_dropShadow" result="shape"/></filter></defs></svg>