<svg width="405" height="54" fill="none" xmlns="http://www.w3.org/2000/svg"><path d="M11.392.123L.242 53.199h394.691L404.15.123H11.392z" fill="#009A17"/><path d="M55.332 12.53c2.964 0 5.377 1.046 7.236 3.138 1.89 2.064 2.587 4.81 2.093 8.24-.465 3.196-1.846 5.753-4.141 7.671-2.267 1.89-5.202 2.834-8.806 2.834h-3.487l-1.526 8.63h-8.718l5.362-30.513h11.987zm.698 10.941c.145-.814-.015-1.424-.48-1.83-.465-.437-1.031-.654-1.7-.654h-3.27l-.871 4.969h3.487c.669 0 1.279-.218 1.831-.654.552-.465.886-1.075 1.003-1.83zm30.37-3.008H75.286l-.567 3.313h10.026l-1.395 7.847H73.323l-.61 3.4h11.334l-1.395 8.02H62.6l5.362-30.513h19.834L86.4 20.463zm22.539-7.933l-1.482 8.457H97.431l-3.88 22.057h-8.718l5.362-30.514h18.744zm-4.469 30.514l5.361-30.514h8.719l-2.354 13.513L128.14 12.53h6.974l-5.361 30.514h-8.719l2.354-13.514-11.944 13.514h-6.974zm43.752.697c-4.737 0-8.413-1.555-11.029-4.664-2.586-3.11-3.502-7.018-2.746-11.726.726-4.534 2.775-8.253 6.146-11.16 3.4-2.906 7.338-4.359 11.813-4.359 5.987 0 10.273 2.5 12.86 7.498l-7.977 4.228c-1.192-2.121-3.081-3.182-5.667-3.182-2.093 0-3.938.698-5.536 2.093-1.599 1.394-2.587 3.167-2.965 5.318-.348 2.063 0 3.821 1.047 5.274 1.046 1.424 2.615 2.136 4.707 2.136 2.413 0 4.49-1.133 6.234-3.4l7.236 4.577a16.546 16.546 0 01-6.059 5.45c-2.441 1.278-5.129 1.917-8.064 1.917z" fill="#fff"/><path d="M189.195 12.53l-1.482 8.457h-7.193l-3.88 22.057h-8.718l3.88-22.057h-7.193l1.482-8.457h23.104zm13.286 0c2.965 0 5.377 1.046 7.237 3.138 1.889 2.064 2.586 4.81 2.092 8.24-.465 3.196-1.845 5.753-4.141 7.671-2.267 1.89-5.202 2.834-8.806 2.834h-3.487l-1.526 8.63h-8.718l5.362-30.513h11.987zm.698 10.941c.145-.814-.015-1.424-.48-1.83-.465-.437-1.031-.654-1.7-.654h-3.269l-.872 4.969h3.487c.669 0 1.279-.218 1.831-.654.552-.465.887-1.075 1.003-1.83zm6.57 19.573l5.362-30.514h8.718l-2.354 13.513 11.944-13.513h6.975l-5.362 30.514h-8.718l2.354-13.514-11.944 13.514h-6.975zm45.67-30.514c2.964 0 5.376 1.046 7.236 3.138 1.889 2.064 2.587 4.81 2.093 8.24-.465 3.196-1.846 5.753-4.141 7.671-2.267 1.89-5.202 2.834-8.806 2.834h-3.487l-1.526 8.63h-8.718l5.362-30.513h11.987zm.698 10.941c.145-.814-.015-1.424-.48-1.83-.465-.437-1.032-.654-1.7-.654h-3.269l-.872 4.969h3.487c.669 0 1.279-.218 1.831-.654.552-.465.886-1.075 1.003-1.83z" fill="#fff"/><path d="M282.868 12.53h9.59l-12.249 21.098c-1.976 3.371-4.257 5.769-6.844 7.193-2.586 1.423-5.797 2.165-9.634 2.223l1.439-8.108c2.325-.03 4.33-.727 6.016-2.093L264.56 12.53h8.718l3.531 11.639 6.059-11.64zm15.23-2.136l1.134-6.539h15.257l-1.134 6.539h-15.257zm-10.113 32.65l5.362-30.514h8.718l-2.354 13.513 11.944-13.513h6.975l-5.362 30.514h-8.718l2.354-13.514-11.944 13.514h-6.975zm43.752.697c-4.737 0-8.413-1.555-11.028-4.664-2.587-3.11-3.502-7.018-2.747-11.726.727-4.534 2.776-8.253 6.147-11.16 3.4-2.906 7.338-4.359 11.813-4.359 5.986 0 10.273 2.5 12.859 7.498l-7.977 4.228c-1.191-2.121-3.08-3.182-5.667-3.182-2.092 0-3.937.698-5.536 2.093-1.598 1.394-2.586 3.167-2.964 5.318-.349 2.063 0 3.821 1.046 5.274 1.046 1.424 2.616 2.136 4.708 2.136 2.412 0 4.49-1.133 6.234-3.4l7.236 4.577a16.554 16.554 0 01-6.059 5.45c-2.442 1.278-5.13 1.917-8.065 1.917z" fill="#fff"/><path d="M373.603 12.486L368.198 43h-8.718l1.7-9.59h-.741L353.29 43h-9.939l8.544-11.072c-1.656-.988-2.819-2.369-3.487-4.141-.64-1.802-.741-3.677-.305-5.624.581-2.731 2.034-5.027 4.359-6.887 2.325-1.86 5.303-2.79 8.936-2.79h12.205zm-17 10.854c-.145.872.014 1.584.479 2.136.494.553 1.177.814 2.049.785h3.313l1.003-5.754h-3.313c-.901 0-1.671.261-2.311.785-.639.494-1.046 1.177-1.22 2.048z" fill="#fff"/></svg>