<svg width="22" height="22" fill="none" xmlns="http://www.w3.org/2000/svg"><g clip-path="url(#clip0)"><g clip-path="url(#clip1)" fill="#fff"><path d="M15.286.016H7.274A6.678 6.678 0 00.597 6.693v8.013a6.678 6.678 0 006.677 6.677h8.012a6.678 6.678 0 006.677-6.677V6.693A6.678 6.678 0 0015.286.016zm4.674 14.69a4.679 4.679 0 01-4.674 4.674H7.274A4.679 4.679 0 012.6 14.706V6.693A4.679 4.679 0 017.274 2.02h8.012a4.679 4.679 0 014.674 4.674v8.013z"/><path d="M11.28 5.358a5.342 5.342 0 100 10.683 5.342 5.342 0 000-10.683zm0 8.68a3.343 3.343 0 01-3.338-3.339 3.342 3.342 0 013.338-3.338 3.342 3.342 0 013.338 3.338 3.343 3.343 0 01-3.338 3.339zm6.01-8.68a.668.668 0 100-1.336.668.668 0 000 1.336z"/></g></g><defs><clipPath id="clip0"><path fill="#fff" transform="translate(.597 .016)" d="M0 0h21.366v21.366H0z"/></clipPath><clipPath id="clip1"><path fill="#fff" transform="translate(.597 .016)" d="M0 0h21.366v21.366H0z"/></clipPath></defs></svg>