<svg width="25" height="25" fill="none" xmlns="http://www.w3.org/2000/svg"><path d="M1.098 12.641c2.256-1.243 4.775-2.28 7.129-3.323 4.048-1.708 8.113-3.386 12.22-4.948.798-.266 2.234-.527 2.375.657-.078 1.676-.395 3.342-.612 5.008-.552 3.664-1.19 7.315-1.812 10.966-.214 1.217-1.738 1.846-2.713 1.068-2.343-1.583-4.704-3.15-7.017-4.77-.758-.77-.055-1.875.621-2.425 1.93-1.902 3.977-3.517 5.806-5.517.493-1.192-.965-.188-1.445.12-2.642 1.82-5.22 3.752-8.005 5.352-1.423.783-3.081.114-4.503-.323-1.275-.528-3.144-1.06-2.044-1.865z" fill="#fff"/></svg>