<svg width="23" height="22" fill="none" xmlns="http://www.w3.org/2000/svg"><g clip-path="url(#clip0)"><path d="M22.04 14.742c-.057-.095-.412-.856-2.122-2.42-1.79-1.637-1.549-1.372.607-4.204 1.312-1.724 1.837-2.778 1.673-3.228-.156-.429-1.122-.316-1.122-.316l-3.21.019s-.238-.032-.416.072c-.172.103-.283.34-.283.34s-.509 1.335-1.187 2.47c-1.43 2.395-2.003 2.52-2.237 2.372-.544-.346-.407-1.393-.407-2.135 0-2.322.356-3.29-.696-3.54-.35-.082-.607-.138-1.5-.147-1.146-.012-2.117.004-2.666.269-.366.176-.647.57-.475.592.212.028.693.128.948.47.33.441.318 1.434.318 1.434s.19 2.732-.442 3.072c-.434.233-1.028-.243-2.304-2.416-.653-1.113-1.147-2.344-1.147-2.344s-.095-.229-.264-.351a1.33 1.33 0 00-.494-.197l-3.053.019s-.458.013-.627.21c-.15.174-.012.535-.012.535s2.39 5.513 5.096 8.292c2.483 2.547 5.301 2.38 5.301 2.38h1.277s.386-.042.582-.251c.182-.192.175-.553.175-.553s-.025-1.69.77-1.938c.785-.245 1.791 1.632 2.859 2.355.806.547 1.42.427 1.42.427l2.853-.04s1.493-.09.785-1.248z" fill="#fff"/></g><defs><clipPath id="clip0"><path fill="#fff" transform="translate(.865 .016)" d="M0 0h21.366v21.366H0z"/></clipPath></defs></svg>