<svg width="23" height="22" fill="none" xmlns="http://www.w3.org/2000/svg"><g clip-path="url(#clip0)"><path d="M21.255 5.438c-.58-1.03-1.209-1.22-2.49-1.292-1.279-.087-4.496-.123-7.283-.123-2.792 0-6.01.036-7.288.121-1.278.074-1.908.262-2.493 1.294-.597 1.03-.904 2.803-.904 5.925v.011c0 3.109.307 4.896.904 5.914.585 1.031 1.214 1.218 2.492 1.305 1.279.075 4.497.119 7.29.119 2.786 0 6.003-.044 7.284-.117 1.28-.087 1.91-.274 2.49-1.305.601-1.02.906-2.806.906-5.915v-.01c0-3.124-.305-4.897-.908-5.927zM8.809 15.374V7.36l6.677 4.006-6.677 4.007z" fill="#fff"/></g><defs><clipPath id="clip0"><path fill="#fff" transform="translate(.797 .017)" d="M0 0h21.366v21.366H0z"/></clipPath></defs></svg>