<svg width="697" height="474" viewBox="0 0 697 474" fill="none" xmlns="http://www.w3.org/2000/svg">
<g clip-path="url(#clip0)">
<path opacity="0.5" d="M668.377 27.2765L602.854 396.562H-3468L-3339.21 27.2765H668.377Z" stroke="url(#paint0_linear)" stroke-width="2"/>
<g filter="url(#filter0_d)">
<path d="M307.606 79.4731C313.606 79.4731 318.196 81.4231 321.376 85.3231C324.616 89.1631 325.726 94.0831 324.706 100.083C323.626 106.203 321.016 110.973 316.876 114.393C312.796 117.753 307.366 119.433 300.586 119.433H272.686L283.756 56.4331H326.956L323.896 73.8931H298.696L297.706 79.4731H307.606ZM305.176 102.153C306.076 101.433 306.646 100.443 306.886 99.1831C307.126 97.9231 306.916 96.9331 306.256 96.2131C305.656 95.4931 304.756 95.1331 303.556 95.1331H294.916L293.566 103.233H302.116C303.316 103.233 304.336 102.873 305.176 102.153ZM355.261 120.873C348.421 120.873 342.571 119.193 337.711 115.833C332.851 112.413 329.461 108.153 327.541 103.053C325.681 97.8931 325.201 92.4931 326.101 86.8531C327.541 78.1531 331.651 70.6831 338.431 64.4431C345.271 58.1431 353.671 54.9931 363.631 54.9931C368.791 54.9931 373.411 55.9831 377.491 57.9631C381.571 59.8831 384.781 62.4331 387.121 65.6131C389.461 68.7931 391.111 72.3931 392.071 76.4131C393.031 80.3731 393.181 84.4531 392.521 88.6531C391.141 97.4131 387.091 104.973 380.371 111.333C373.711 117.693 365.341 120.873 355.261 120.873ZM346.351 98.9131C348.751 101.793 352.171 103.233 356.611 103.233C361.051 103.233 364.981 101.793 368.401 98.9131C371.821 95.9731 373.921 92.3131 374.701 87.9331C375.481 83.5531 374.671 79.9231 372.271 77.0431C369.871 74.1031 366.451 72.6331 362.011 72.6331C357.571 72.6331 353.641 74.1031 350.221 77.0431C346.801 79.9231 344.701 83.5531 343.921 87.9331C343.141 92.3131 343.951 95.9731 346.351 98.9131ZM433.74 56.4331H451.74L440.67 119.433H422.67L426.72 96.2131H411.42L407.37 119.433H389.37L400.44 56.4331H418.44L414.48 78.7531H429.78L433.74 56.4331ZM490.433 56.4331H510.233L484.943 99.9931C480.863 106.953 476.153 111.903 470.813 114.843C465.473 117.783 458.843 119.313 450.923 119.433L453.893 102.693C458.693 102.633 462.833 101.193 466.313 98.3731L452.633 56.4331H470.633L477.923 80.4631L490.433 56.4331ZM526.576 120.873C516.796 120.873 509.206 117.663 503.806 111.243C498.466 104.823 496.576 96.7531 498.136 87.0331C499.636 77.6731 503.866 69.9931 510.826 63.9931C517.846 57.9931 525.976 54.9931 535.216 54.9931C547.576 54.9931 556.426 60.1531 561.766 70.4731L545.296 79.2031C542.836 74.8231 538.936 72.6331 533.596 72.6331C529.276 72.6331 525.466 74.0731 522.166 76.9531C518.866 79.8331 516.826 83.4931 516.046 87.9331C515.326 92.1931 516.046 95.8231 518.206 98.8231C520.366 101.763 523.606 103.233 527.926 103.233C532.906 103.233 537.196 100.893 540.796 96.2131L555.736 105.663C552.496 110.463 548.326 114.213 543.226 116.913C538.186 119.553 532.636 120.873 526.576 120.873Z" fill="white"/>
</g>
<path d="M347.892 135.064H358.092L350.712 177.064H338.712L343.752 148.204L336.312 149.944L335.292 139.324L347.892 135.064ZM386.336 146.704H372.056L371.276 149.764H373.136C377.416 149.764 380.776 151.044 383.216 153.604C385.656 156.164 386.456 159.784 385.616 164.464C384.856 168.864 382.836 172.224 379.556 174.544C376.316 176.864 372.476 178.024 368.036 178.024C364.196 178.024 360.996 177.184 358.436 175.504C355.876 173.824 354.116 171.344 353.156 168.064L364.256 162.244C364.656 163.644 365.256 164.684 366.056 165.364C366.856 166.044 367.976 166.384 369.416 166.384C371.976 166.384 373.436 165.424 373.796 163.504C373.996 162.544 373.796 161.784 373.196 161.224C372.596 160.664 371.776 160.384 370.736 160.384H356.936L363.116 135.064H388.376L386.336 146.704ZM429.656 147.484C428.936 151.164 427.036 153.924 423.956 155.764C427.116 158.004 428.376 161.184 427.736 165.304C427.216 168.824 425.476 171.664 422.516 173.824C419.596 175.984 415.776 177.064 411.056 177.064H393.296L400.676 135.064H416.756C421.316 135.064 424.776 136.244 427.136 138.604C429.496 140.924 430.336 143.884 429.656 147.484ZM414.836 145.384H410.876L409.856 151.024L414.476 150.964C416.236 150.724 417.256 149.804 417.536 148.204C417.696 147.204 417.496 146.484 416.936 146.044C416.416 145.604 415.716 145.384 414.836 145.384ZM416.036 163.744C416.356 162.024 415.676 161.044 413.996 160.804L408.176 160.744L407.096 166.744H412.136C413.136 166.744 413.976 166.484 414.656 165.964C415.376 165.404 415.836 164.664 416.036 163.744ZM467.549 135.064L449.729 158.884L446.549 177.064H434.549L437.729 158.944L428.309 135.064H440.909L444.989 147.784L453.509 135.064H467.549ZM460.187 177.064L467.567 135.064H477.167L486.827 155.224L490.367 135.064H502.367L494.987 177.064H485.387L475.727 156.904L472.187 177.064H460.187Z" fill="white"/>
<path d="M305.922 145.06C311.037 144.81 463.47 158.725 539.047 165.714" stroke="#FF0000" stroke-width="4"/>
<path d="M228.469 395.092L236.208 351.334L320.011 277.691C333.877 265.766 341.327 256.607 342.362 250.213C342.779 247.015 342.094 244.411 340.305 242.401C338.517 240.191 335.723 239.076 331.923 239.055C321.523 238.999 311.783 246.345 302.702 261.096L253.665 231.128C263.555 214.581 276.124 202.05 291.371 193.533C306.618 185.016 322.741 180.804 339.741 180.897C360.14 181.009 376.703 187.899 389.428 201.569C402.155 215.039 406.661 232.264 402.946 253.244C400.679 265.631 396.521 276.109 390.474 284.676C384.427 293.243 374.974 302.991 362.114 313.921L334.385 337.47L390.784 337.778L380.266 395.922L228.469 395.092ZM563.727 245.122L492.329 244.732L488.345 260.01L497.645 260.061C519.045 260.178 535.809 266.67 547.939 279.536C560.069 292.403 563.97 310.524 559.642 333.901C555.722 355.88 545.531 372.624 529.067 384.135C512.804 395.646 493.573 401.341 471.373 401.22C452.174 401.115 436.197 396.827 423.443 388.358C410.689 379.888 401.957 367.44 397.246 351.014L452.905 322.218C454.866 329.228 457.838 334.445 461.819 337.866C465.801 341.288 471.391 343.019 478.591 343.058C491.391 343.128 498.717 338.368 500.569 328.778C501.596 323.984 500.616 320.178 497.632 317.362C494.647 314.545 490.555 313.123 485.355 313.095L416.356 312.718L447.947 186.288L574.245 186.978L563.727 245.122Z" fill="url(#paint1_linear)"/>
<path d="M228.469 395.092L225.515 394.57L224.895 398.073L228.452 398.092L228.469 395.092ZM236.208 351.334L234.228 349.081L233.437 349.775L233.254 350.812L236.208 351.334ZM320.011 277.691L318.055 275.416L318.043 275.427L318.031 275.437L320.011 277.691ZM342.362 250.213L345.323 250.692L345.331 250.646L345.337 250.601L342.362 250.213ZM340.305 242.401L337.972 244.288L338.017 244.343L338.064 244.396L340.305 242.401ZM302.702 261.096L301.138 263.656L303.689 265.215L305.257 262.669L302.702 261.096ZM253.665 231.128L251.09 229.588L249.566 232.138L252.1 233.687L253.665 231.128ZM389.428 201.569L387.233 203.613L387.24 203.621L387.248 203.629L389.428 201.569ZM402.946 253.244L405.897 253.784L405.899 253.775L405.9 253.767L402.946 253.244ZM390.474 284.676L388.023 282.946L388.023 282.946L390.474 284.676ZM362.114 313.921L364.056 316.208L364.057 316.207L362.114 313.921ZM334.385 337.47L332.443 335.184L326.27 340.426L334.369 340.47L334.385 337.47ZM390.784 337.778L393.736 338.312L394.372 334.798L390.801 334.778L390.784 337.778ZM380.266 395.922L380.25 398.922L382.77 398.936L383.219 396.456L380.266 395.922ZM231.423 395.615L239.162 351.857L233.254 350.812L225.515 394.57L231.423 395.615ZM238.188 353.588L321.992 279.944L318.031 275.437L234.228 349.081L238.188 353.588ZM321.968 279.965C328.97 273.943 334.445 268.542 338.325 263.771C342.15 259.069 344.678 254.679 345.323 250.692L339.4 249.733C339.011 252.141 337.297 255.527 333.671 259.985C330.101 264.373 324.918 269.514 318.055 275.416L321.968 279.965ZM345.337 250.601C345.842 246.728 345.028 243.196 342.545 240.406L338.064 244.396C339.159 245.626 339.717 247.302 339.387 249.824L345.337 250.601ZM342.637 240.514C340.107 237.387 336.316 236.079 331.939 236.055L331.906 242.055C335.13 242.073 336.926 242.995 337.972 244.288L342.637 240.514ZM331.939 236.055C319.933 235.99 309.401 244.491 300.147 259.523L305.257 262.669C314.164 248.199 323.113 242.007 331.906 242.055L331.939 236.055ZM304.266 258.536L255.229 228.568L252.1 233.687L301.138 263.656L304.266 258.536ZM256.24 232.667C265.89 216.524 278.092 204.387 292.834 196.152L289.908 190.914C274.156 199.713 261.221 212.639 251.09 229.588L256.24 232.667ZM292.834 196.152C307.642 187.881 323.257 183.807 339.724 183.897L339.757 177.897C322.225 177.801 305.594 182.152 289.908 190.914L292.834 196.152ZM339.724 183.897C359.382 184.005 375.126 190.608 387.233 203.613L391.624 199.525C378.28 185.19 360.899 178.013 339.757 177.897L339.724 183.897ZM387.248 203.629C399.218 216.299 403.57 232.516 399.992 252.721L405.9 253.767C409.752 232.011 405.092 213.779 391.609 199.509L387.248 203.629ZM399.995 252.703C397.791 264.748 393.774 274.799 388.023 282.946L392.925 286.406C399.269 277.419 403.567 266.515 405.897 253.784L399.995 252.703ZM388.023 282.946C382.183 291.221 372.941 300.783 360.171 311.635L364.057 316.207C377.008 305.2 386.672 295.265 392.925 286.406L388.023 282.946ZM360.172 311.635L332.443 335.184L336.327 339.757L364.056 316.208L360.172 311.635ZM334.369 340.47L390.768 340.778L390.801 334.778L334.402 334.47L334.369 340.47ZM387.832 337.244L377.314 395.388L383.219 396.456L393.736 338.312L387.832 337.244ZM380.283 392.922L228.485 392.092L228.452 398.092L380.25 398.922L380.283 392.922ZM563.727 245.122L563.711 248.122L566.231 248.136L566.68 245.656L563.727 245.122ZM492.329 244.732L492.345 241.732L490.014 241.719L489.426 243.975L492.329 244.732ZM488.345 260.01L485.442 259.253L484.468 262.989L488.329 263.01L488.345 260.01ZM547.939 279.536L550.122 277.478L547.939 279.536ZM559.642 333.901L556.692 333.355L556.691 333.364L556.689 333.374L559.642 333.901ZM529.067 384.135L527.348 381.676L527.341 381.681L527.334 381.686L529.067 384.135ZM423.443 388.358L421.783 390.857L423.443 388.358ZM397.246 351.014L395.868 348.349L393.685 349.479L394.363 351.841L397.246 351.014ZM452.905 322.218L455.794 321.409L454.8 317.859L451.526 319.553L452.905 322.218ZM461.819 337.866L459.864 340.142L461.819 337.866ZM500.569 328.778L497.636 328.15L497.63 328.18L497.624 328.209L500.569 328.778ZM497.632 317.362L495.573 319.544L497.632 317.362ZM416.356 312.718L413.445 311.99L412.519 315.697L416.34 315.718L416.356 312.718ZM447.947 186.288L447.964 183.288L445.608 183.276L445.037 185.561L447.947 186.288ZM574.245 186.978L577.197 187.512L577.833 183.998L574.262 183.978L574.245 186.978ZM563.744 242.122L492.345 241.732L492.312 247.732L563.711 248.122L563.744 242.122ZM489.426 243.975L485.442 259.253L491.248 260.767L495.231 245.489L489.426 243.975ZM488.329 263.01L497.628 263.061L497.661 257.061L488.361 257.01L488.329 263.01ZM497.628 263.061C518.393 263.174 534.305 269.447 545.756 281.594L550.122 277.478C537.314 263.892 519.696 257.181 497.661 257.061L497.628 263.061ZM545.756 281.594C557.018 293.54 560.911 310.567 556.692 333.355L562.592 334.447C567.029 310.482 563.12 291.266 550.122 277.478L545.756 281.594ZM556.689 333.374C552.891 354.666 543.085 370.673 527.348 381.676L530.786 386.593C547.976 374.575 558.553 357.093 562.596 334.428L556.689 333.374ZM527.334 381.686C511.64 392.794 493.038 398.338 471.39 398.22L471.357 404.22C494.108 404.344 513.968 398.497 530.801 386.583L527.334 381.686ZM471.39 398.22C452.626 398.117 437.259 393.931 425.102 385.858L421.783 390.857C435.135 399.723 451.721 404.112 471.357 404.22L471.39 398.22ZM425.102 385.858C413.012 377.829 404.668 366.013 400.13 350.187L394.363 351.841C399.245 368.867 408.366 381.946 421.783 390.857L425.102 385.858ZM398.625 353.678L454.283 324.882L451.526 319.553L395.868 348.349L398.625 353.678ZM450.016 323.026C452.077 330.394 455.291 336.211 459.864 340.142L463.775 335.591C460.385 332.678 457.655 328.063 455.794 321.409L450.016 323.026ZM459.864 340.142C464.556 344.175 470.927 346.016 478.575 346.058L478.608 340.058C471.855 340.021 467.045 338.402 463.775 335.591L459.864 340.142ZM478.575 346.058C485.303 346.095 490.987 344.872 495.32 342.056C499.75 339.178 502.454 334.838 503.515 329.347L497.624 328.209C496.832 332.308 494.947 335.143 492.051 337.025C489.058 338.97 484.679 340.091 478.608 340.058L478.575 346.058ZM503.503 329.406C504.699 323.82 503.597 318.866 499.691 315.18L495.573 319.544C497.636 321.49 498.493 324.147 497.636 328.15L503.503 329.406ZM499.691 315.18C496.017 311.713 491.12 310.126 485.371 310.095L485.339 316.095C489.99 316.12 493.277 317.378 495.573 319.544L499.691 315.18ZM485.371 310.095L416.372 309.718L416.34 315.718L485.339 316.095L485.371 310.095ZM419.266 313.445L450.858 187.016L445.037 185.561L413.445 311.99L419.266 313.445ZM447.931 189.288L574.229 189.978L574.262 183.978L447.964 183.288L447.931 189.288ZM571.293 186.444L560.775 244.588L566.68 245.656L577.197 187.512L571.293 186.444Z" fill="url(#paint2_linear)"/>
<g filter="url(#filter1_d)">
<path d="M535.178 370.068C534.438 373.744 532.523 376.494 529.433 378.317C532.581 380.574 533.823 383.761 533.161 387.878C532.621 391.395 530.866 394.225 527.894 396.369C524.962 398.513 521.137 399.572 516.417 399.546L498.657 399.449L506.266 357.49L522.346 357.578C526.906 357.603 530.36 358.802 532.707 361.175C535.054 363.507 535.878 366.472 535.178 370.068ZM520.37 367.887L516.41 367.866L515.359 373.5L519.979 373.465C521.741 373.235 522.766 372.32 523.054 370.722C523.22 369.723 523.024 369.002 522.466 368.559C521.948 368.116 521.25 367.892 520.37 367.887ZM521.469 386.254C521.799 384.535 521.124 383.552 519.445 383.303L513.626 383.211L512.513 389.205L517.553 389.232C518.553 389.238 519.394 388.982 520.077 388.466C520.8 387.91 521.264 387.173 521.469 386.254ZM576.138 357.872L558.188 381.594L554.909 399.757L542.909 399.691L546.188 381.589L536.899 357.657L549.498 357.726L553.509 370.468L562.098 357.795L576.138 357.872ZM571.547 399.847L579.156 357.888L588.756 357.941L598.305 378.153L601.956 358.013L613.955 358.078L606.346 400.038L596.746 399.985L587.196 379.773L583.546 399.913L571.547 399.847Z" fill="url(#paint3_linear)"/>
<path d="M535.178 370.068L536.649 370.364L536.65 370.355L535.178 370.068ZM529.433 378.317L528.671 377.025L526.688 378.195L528.559 379.536L529.433 378.317ZM533.161 387.878L531.68 387.639L531.678 387.65L533.161 387.878ZM527.894 396.369L527.017 395.152L527.009 395.158L527.894 396.369ZM498.657 399.449L497.181 399.182L496.862 400.939L498.649 400.949L498.657 399.449ZM506.266 357.49L506.275 355.99L505.015 355.983L504.79 357.222L506.266 357.49ZM532.707 361.175L531.64 362.23L531.649 362.239L532.707 361.175ZM516.41 367.866L516.418 366.366L515.165 366.359L514.935 367.591L516.41 367.866ZM515.359 373.5L513.884 373.225L513.551 375.014L515.37 375L515.359 373.5ZM519.979 373.465L519.991 374.965L520.083 374.965L520.174 374.953L519.979 373.465ZM523.054 370.722L524.53 370.989L524.532 370.978L524.534 370.967L523.054 370.722ZM522.466 368.559L521.491 369.699L521.512 369.716L521.533 369.733L522.466 368.559ZM521.469 386.254L522.933 386.58L522.938 386.558L522.943 386.536L521.469 386.254ZM519.445 383.303L519.666 381.819L519.568 381.804L519.469 381.803L519.445 383.303ZM513.626 383.211L513.65 381.711L512.382 381.691L512.151 382.937L513.626 383.211ZM512.513 389.205L511.038 388.931L510.711 390.695L512.505 390.705L512.513 389.205ZM520.077 388.466L520.982 389.663L520.992 389.655L520.077 388.466ZM533.708 369.772C533.047 373.052 531.376 375.429 528.671 377.025L530.195 379.609C533.67 377.559 535.829 374.436 536.649 370.364L533.708 369.772ZM528.559 379.536C529.929 380.518 530.826 381.657 531.328 382.945C531.833 384.24 531.978 385.787 531.68 387.639L534.642 388.116C535.006 385.851 534.861 383.747 534.123 381.855C533.383 379.956 532.085 378.373 530.307 377.098L528.559 379.536ZM531.678 387.65C531.202 390.757 529.673 393.236 527.017 395.152L528.772 397.585C532.059 395.214 534.041 392.033 534.643 388.105L531.678 387.65ZM527.009 395.158C524.404 397.063 520.92 398.071 516.425 398.046L516.409 401.046C521.353 401.073 525.521 399.963 528.78 397.58L527.009 395.158ZM516.425 398.046L498.665 397.949L498.649 400.949L516.409 401.046L516.425 398.046ZM500.133 399.717L507.742 357.758L504.79 357.222L497.181 399.182L500.133 399.717ZM506.258 358.99L522.338 359.078L522.354 356.078L506.275 355.99L506.258 358.99ZM522.338 359.078C526.649 359.102 529.663 360.23 531.64 362.229L533.773 360.12C531.056 357.373 527.163 356.104 522.354 356.078L522.338 359.078ZM531.649 362.239C533.599 364.176 534.322 366.615 533.706 369.782L536.65 370.355C537.434 366.329 536.509 362.839 533.764 360.111L531.649 362.239ZM520.378 366.387L516.418 366.366L516.402 369.366L520.362 369.387L520.378 366.387ZM514.935 367.591L513.884 373.225L516.834 373.775L517.884 368.141L514.935 367.591ZM515.37 375L519.991 374.965L519.968 371.965L515.348 372L515.37 375ZM520.174 374.953C521.266 374.81 522.272 374.435 523.068 373.726C523.874 373.007 524.338 372.055 524.53 370.989L521.578 370.455C521.482 370.988 521.289 371.292 521.07 371.487C520.84 371.693 520.453 371.89 519.785 371.978L520.174 374.953ZM524.534 370.967C524.747 369.684 524.552 368.301 523.399 367.384L521.533 369.733C521.549 369.746 521.565 369.757 521.584 369.825C521.609 369.918 521.634 370.119 521.574 370.477L524.534 370.967ZM523.441 367.419C522.583 366.685 521.507 366.394 520.378 366.387L520.362 369.387C520.992 369.391 521.314 369.547 521.491 369.699L523.441 367.419ZM522.943 386.536C523.148 385.467 523.099 384.328 522.447 383.379C521.789 382.418 520.74 381.978 519.666 381.819L519.225 384.786C519.83 384.876 519.957 385.052 519.973 385.076C519.997 385.11 520.121 385.322 519.996 385.971L522.943 386.536ZM519.469 381.803L513.65 381.711L513.602 384.711L519.422 384.802L519.469 381.803ZM512.151 382.937L511.038 388.931L513.988 389.479L515.101 383.485L512.151 382.937ZM512.505 390.705L517.545 390.732L517.561 387.732L512.521 387.705L512.505 390.705ZM517.545 390.732C518.817 390.739 519.994 390.41 520.982 389.663L519.173 387.27C518.795 387.555 518.289 387.736 517.561 387.732L517.545 390.732ZM520.992 389.655C522.003 388.877 522.655 387.83 522.933 386.58L520.005 385.927C519.874 386.515 519.598 386.943 519.163 387.277L520.992 389.655ZM576.138 357.872L577.334 358.777L579.142 356.388L576.146 356.372L576.138 357.872ZM558.188 381.594L556.992 380.689L556.776 380.975L556.712 381.328L558.188 381.594ZM554.909 399.757L554.901 401.256L556.161 401.263L556.385 400.023L554.909 399.757ZM542.909 399.691L541.433 399.424L541.115 401.181L542.901 401.191L542.909 399.691ZM546.188 381.589L547.664 381.856L547.739 381.44L547.586 381.046L546.188 381.589ZM536.899 357.657L536.907 356.158L534.703 356.145L535.5 358.2L536.899 357.657ZM549.498 357.726L550.929 357.276L550.601 356.232L549.507 356.226L549.498 357.726ZM553.509 370.468L552.078 370.919L553.01 373.879L554.751 371.31L553.509 370.468ZM562.098 357.795L562.106 356.295L561.306 356.291L560.857 356.954L562.098 357.795ZM574.942 356.967L556.992 380.689L559.384 382.499L577.334 358.777L574.942 356.967ZM556.712 381.328L553.433 399.49L556.385 400.023L559.664 381.861L556.712 381.328ZM554.917 398.257L542.917 398.191L542.901 401.191L554.901 401.256L554.917 398.257ZM544.385 399.958L547.664 381.856L544.712 381.321L541.433 399.424L544.385 399.958ZM547.586 381.046L538.297 357.115L535.5 358.2L544.79 382.131L547.586 381.046ZM536.89 359.157L549.49 359.226L549.507 356.226L536.907 356.158L536.89 359.157ZM548.068 358.177L552.078 370.919L554.94 370.018L550.929 357.276L548.068 358.177ZM554.751 371.31L563.34 358.637L560.857 356.954L552.267 369.627L554.751 371.31ZM562.09 359.295L576.13 359.372L576.146 356.372L562.106 356.295L562.09 359.295ZM571.547 399.847L570.071 399.58L569.752 401.338L571.538 401.347L571.547 399.847ZM579.156 357.888L579.164 356.388L577.905 356.381L577.68 357.621L579.156 357.888ZM588.756 357.941L590.112 357.3L589.708 356.446L588.764 356.441L588.756 357.941ZM598.305 378.153L596.949 378.794L598.947 383.023L599.781 378.421L598.305 378.153ZM601.956 358.013L601.964 356.513L600.704 356.506L600.48 357.745L601.956 358.013ZM613.955 358.078L615.431 358.346L615.75 356.588L613.964 356.578L613.955 358.078ZM606.346 400.038L606.338 401.538L607.597 401.544L607.822 400.305L606.346 400.038ZM596.746 399.985L595.39 400.626L595.793 401.48L596.738 401.485L596.746 399.985ZM587.196 379.773L588.553 379.132L586.555 374.903L585.72 379.505L587.196 379.773ZM583.546 399.913L583.538 401.413L584.798 401.42L585.022 400.18L583.546 399.913ZM573.022 400.115L580.632 358.156L577.68 357.621L570.071 399.58L573.022 400.115ZM579.148 359.388L588.748 359.441L588.764 356.441L579.164 356.388L579.148 359.388ZM587.399 358.582L596.949 378.794L599.662 377.512L590.112 357.3L587.399 358.582ZM599.781 378.421L603.431 358.28L600.48 357.745L596.829 377.886L599.781 378.421ZM601.947 359.513L613.947 359.578L613.964 356.578L601.964 356.513L601.947 359.513ZM612.479 357.811L604.87 399.77L607.822 400.305L615.431 358.346L612.479 357.811ZM606.354 398.538L596.754 398.485L596.738 401.485L606.338 401.538L606.354 398.538ZM598.102 399.344L588.553 379.132L585.84 380.413L595.39 400.626L598.102 399.344ZM585.72 379.505L582.07 399.645L585.022 400.18L588.672 380.04L585.72 379.505ZM583.555 398.413L571.555 398.347L571.538 401.347L583.538 401.413L583.555 398.413Z" fill="url(#paint4_linear)"/>
</g>
<ellipse cx="273.219" cy="206.801" rx="66.3008" ry="12.4037" transform="rotate(-48.6989 273.219 206.801)" fill="url(#paint5_diamond)"/>
<g filter="url(#filter2_d)">
<path d="M246.652 413.763H254.652L249.732 441.763H241.732L243.532 431.443H236.732L234.932 441.763H226.932L231.852 413.763H239.852L238.092 423.683H244.892L246.652 413.763ZM268.249 442.403C265.209 442.403 262.609 441.656 260.449 440.163C258.289 438.643 256.782 436.749 255.929 434.483C255.102 432.189 254.889 429.789 255.289 427.283C255.929 423.416 257.755 420.096 260.769 417.323C263.809 414.523 267.542 413.123 271.969 413.123C274.262 413.123 276.315 413.563 278.129 414.443C279.942 415.296 281.369 416.429 282.409 417.843C283.449 419.256 284.182 420.856 284.609 422.643C285.035 424.403 285.102 426.216 284.809 428.083C284.195 431.976 282.395 435.336 279.409 438.163C276.449 440.989 272.729 442.403 268.249 442.403ZM264.289 432.643C265.355 433.923 266.875 434.563 268.849 434.563C270.822 434.563 272.569 433.923 274.089 432.643C275.609 431.336 276.542 429.709 276.889 427.763C277.235 425.816 276.875 424.203 275.809 422.923C274.742 421.616 273.222 420.963 271.249 420.963C269.275 420.963 267.529 421.616 266.009 422.923C264.489 424.203 263.555 425.816 263.209 427.763C262.862 429.709 263.222 431.336 264.289 432.643ZM309.648 422.043C309.168 424.496 307.902 426.336 305.848 427.563C307.955 429.056 308.795 431.176 308.368 433.923C308.022 436.269 306.862 438.163 304.888 439.603C302.942 441.043 300.395 441.763 297.248 441.763H285.408L290.328 413.763H301.048C304.088 413.763 306.395 414.549 307.968 416.123C309.542 417.669 310.102 419.643 309.648 422.043ZM299.768 420.643H297.128L296.448 424.403L299.528 424.363C300.702 424.203 301.382 423.589 301.568 422.523C301.675 421.856 301.542 421.376 301.168 421.083C300.822 420.789 300.355 420.643 299.768 420.643ZM300.568 432.883C300.782 431.736 300.328 431.083 299.208 430.923L295.328 430.883L294.608 434.883H297.968C298.635 434.883 299.195 434.709 299.648 434.363C300.128 433.989 300.435 433.496 300.568 432.883ZM309.627 441.763L314.547 413.763H322.547L321.147 421.683H324.387C327.081 421.683 329.267 422.669 330.947 424.643C332.654 426.616 333.241 429.109 332.707 432.123C332.174 435.136 330.867 437.496 328.787 439.203C326.707 440.909 324.054 441.763 320.827 441.763H309.627ZM333.227 441.803L338.147 413.803H346.147L341.227 441.803H333.227ZM318.987 434.003H322.187C322.801 434.003 323.361 433.803 323.867 433.403C324.374 432.976 324.681 432.416 324.787 431.723C324.921 431.029 324.801 430.483 324.427 430.083C324.081 429.656 323.601 429.443 322.987 429.443H319.787L318.987 434.003ZM379.333 413.763L374.413 441.763H366.413L368.773 428.283L360.933 438.603H360.213L355.653 427.763L353.213 441.763H345.213L350.133 413.763H358.133L362.333 425.243L370.933 413.763H379.333ZM386.424 441.763L391.344 413.763H399.344L397.184 426.163L408.144 413.763H414.544L409.624 441.763H401.624L403.784 429.363L392.824 441.763H386.424ZM435.732 413.763L434.372 421.523H425.172L421.612 441.763H413.612L418.532 413.763H435.732ZM448.75 413.763C451.47 413.763 453.684 414.723 455.39 416.643C457.124 418.536 457.764 421.056 457.31 424.203C456.884 427.136 455.617 429.483 453.51 431.243C451.43 432.976 448.737 433.843 445.43 433.843H442.23L440.83 441.763H432.83L437.75 413.763H448.75ZM449.39 423.803C449.524 423.056 449.377 422.496 448.95 422.123C448.524 421.723 448.004 421.523 447.39 421.523H444.39L443.59 426.083H446.79C447.404 426.083 447.964 425.883 448.47 425.483C448.977 425.056 449.284 424.496 449.39 423.803ZM471.53 442.403C468.49 442.403 465.89 441.656 463.73 440.163C461.57 438.643 460.063 436.749 459.21 434.483C458.383 432.189 458.17 429.789 458.57 427.283C459.21 423.416 461.037 420.096 464.05 417.323C467.09 414.523 470.823 413.123 475.25 413.123C477.543 413.123 479.597 413.563 481.41 414.443C483.223 415.296 484.65 416.429 485.69 417.843C486.73 419.256 487.463 420.856 487.89 422.643C488.317 424.403 488.383 426.216 488.09 428.083C487.477 431.976 485.677 435.336 482.69 438.163C479.73 440.989 476.01 442.403 471.53 442.403ZM467.57 432.643C468.637 433.923 470.157 434.563 472.13 434.563C474.103 434.563 475.85 433.923 477.37 432.643C478.89 431.336 479.823 429.709 480.17 427.763C480.517 425.816 480.157 424.203 479.09 422.923C478.023 421.616 476.503 420.963 474.53 420.963C472.557 420.963 470.81 421.616 469.29 422.923C467.77 424.203 466.837 425.816 466.49 427.763C466.143 429.709 466.503 431.336 467.57 432.643ZM517.17 413.763L506.09 427.803L512.53 441.763H504.17L498.81 429.723L496.69 441.763H488.69L493.61 413.763H501.61L499.73 424.563L507.89 413.763H517.17ZM531.77 441.763L531.45 438.163H523.37L521.77 441.763H512.93L526.77 413.763H536.13L540.13 441.763H531.77ZM526.21 431.763H530.85L530.05 423.163L526.21 431.763ZM575.857 413.763L570.937 441.763H562.937L565.297 428.283L557.457 438.603H556.737L552.177 427.763L549.737 441.763H541.737L546.657 413.763H554.657L558.857 425.243L567.457 413.763H575.857Z" fill="white"/>
</g>
</g>
<defs>
<filter id="filter0_d" x="252.687" y="38.9931" width="329.079" height="105.88" filterUnits="userSpaceOnUse" color-interpolation-filters="sRGB">
<feFlood flood-opacity="0" result="BackgroundImageFix"/>
<feColorMatrix in="SourceAlpha" type="matrix" values="0 0 0 0 0 0 0 0 0 0 0 0 0 0 0 0 0 0 127 0"/>
<feOffset dy="4"/>
<feGaussianBlur stdDeviation="10"/>
<feColorMatrix type="matrix" values="0 0 0 0 1 0 0 0 0 1 0 0 0 0 1 0 0 0 0.5 0"/>
<feBlend mode="normal" in2="BackgroundImageFix" result="effect1_dropShadow"/>
<feBlend mode="normal" in="SourceGraphic" in2="effect1_dropShadow" result="shape"/>
</filter>
<filter id="filter1_d" x="448.657" y="311.49" width="215.298" height="142.547" filterUnits="userSpaceOnUse" color-interpolation-filters="sRGB">
<feFlood flood-opacity="0" result="BackgroundImageFix"/>
<feColorMatrix in="SourceAlpha" type="matrix" values="0 0 0 0 0 0 0 0 0 0 0 0 0 0 0 0 0 0 127 0"/>
<feOffset dy="4"/>
<feGaussianBlur stdDeviation="25"/>
<feColorMatrix type="matrix" values="0 0 0 0 0 0 0 0 0 0 0 0 0 0 0 0 0 0 0.5 0"/>
<feBlend mode="normal" in2="BackgroundImageFix" result="effect1_dropShadow"/>
<feBlend mode="normal" in="SourceGraphic" in2="effect1_dropShadow" result="shape"/>
</filter>
<filter id="filter2_d" x="206.932" y="397.123" width="388.925" height="69.28" filterUnits="userSpaceOnUse" color-interpolation-filters="sRGB">
<feFlood flood-opacity="0" result="BackgroundImageFix"/>
<feColorMatrix in="SourceAlpha" type="matrix" values="0 0 0 0 0 0 0 0 0 0 0 0 0 0 0 0 0 0 127 0"/>
<feOffset dy="4"/>
<feGaussianBlur stdDeviation="10"/>
<feColorMatrix type="matrix" values="0 0 0 0 1 0 0 0 0 1 0 0 0 0 1 0 0 0 0.5 0"/>
<feBlend mode="normal" in2="BackgroundImageFix" result="effect1_dropShadow"/>
<feBlend mode="normal" in="SourceGraphic" in2="effect1_dropShadow" result="shape"/>
</filter>
<linearGradient id="paint0_linear" x1="1236.19" y1="211.919" x2="-201.224" y2="211.919" gradientUnits="userSpaceOnUse">
<stop stop-color="#0CFC4F" stop-opacity="0.8"/>
<stop offset="1" stop-color="#0CFC4F" stop-opacity="0"/>
</linearGradient>
<linearGradient id="paint1_linear" x1="462.502" y1="77.4142" x2="462.138" y2="361.443" gradientUnits="userSpaceOnUse">
<stop stop-color="#FDFFFC"/>
<stop offset="0.140625" stop-color="#C2FFC8"/>
<stop offset="0.317708" stop-color="#98FFB5"/>
<stop offset="0.619792" stop-color="#00BB29"/>
<stop offset="0.765625" stop-color="#01AF3C"/>
<stop offset="1" stop-color="#009C35"/>
</linearGradient>
<linearGradient id="paint2_linear" x1="391.05" y1="238.854" x2="494.425" y2="401.182" gradientUnits="userSpaceOnUse">
<stop stop-color="#E0FEE7"/>
<stop offset="1" stop-color="#81FFA4"/>
</linearGradient>
<linearGradient id="paint3_linear" x1="584.131" y1="320.664" x2="583.939" y2="389.264" gradientUnits="userSpaceOnUse">
<stop stop-color="#FDFFFC"/>
<stop offset="0.140625" stop-color="#C2FFC8"/>
<stop offset="0.317708" stop-color="#98FFB5"/>
<stop offset="0.619792" stop-color="#00BB29"/>
<stop offset="0.765625" stop-color="#01AF3C"/>
<stop offset="1" stop-color="#009C35"/>
</linearGradient>
<linearGradient id="paint4_linear" x1="557.144" y1="359.602" x2="576.305" y2="407.039" gradientUnits="userSpaceOnUse">
<stop stop-color="#E0FEE7"/>
<stop offset="1" stop-color="#81FFA4"/>
</linearGradient>
<radialGradient id="paint5_diamond" cx="0" cy="0" r="1" gradientUnits="userSpaceOnUse" gradientTransform="translate(273.219 206.801) rotate(90) scale(12.4037 66.3008)">
<stop stop-color="#FDFEFD"/>
<stop offset="0.432292" stop-color="#00FF1A" stop-opacity="0.38"/>
<stop offset="1" stop-color="#58E466" stop-opacity="0"/>
</radialGradient>
<clipPath id="clip0">
<rect width="754" height="474" fill="white" transform="translate(-57)"/>
</clipPath>
</defs>
</svg>
