<svg width="760" height="467" viewBox="0 0 760 467" fill="none" xmlns="http://www.w3.org/2000/svg">
<g clip-path="url(#clip0)">
<path opacity="0.5" d="M36.7549 433.353L102.278 64.0681H4173.13L4044.34 433.353H36.7549Z" stroke="url(#paint0_linear)" stroke-width="2"/>
<path d="M262.855 248.753L252.96 302.699L231.96 302.585L226.393 333.155L167.594 332.833L173.161 302.263L84.9621 301.781L94.857 247.835L174.141 122.866L243.44 123.245L162.956 248.207L183.056 248.317L188.316 218.945L247.115 219.266L241.855 248.638L262.855 248.753ZM320.959 232.87C304.36 232.779 291.291 226.908 281.755 215.255C272.418 203.604 269.194 189.786 272.081 173.802C274.968 158.017 282.639 144.959 295.096 134.627C307.753 124.096 322.482 118.876 339.282 118.968C355.682 119.058 368.55 124.928 377.886 136.579C387.423 148.232 390.747 162.05 387.86 178.034C384.973 194.019 377.301 207.177 364.844 217.509C352.387 227.841 337.759 232.962 320.959 232.87ZM287.889 300.49L455.205 151.702L473.737 164.103L306.422 312.892L287.889 300.49ZM327.189 190.903C331.389 190.926 335.097 189.446 338.313 186.464C341.729 183.482 343.849 179.994 344.67 175.998C345.493 171.803 344.712 168.299 342.328 165.485C340.144 162.474 336.952 160.956 332.753 160.933C328.553 160.91 324.844 162.39 321.628 165.372C318.413 168.155 316.394 171.644 315.571 175.839C314.749 179.835 315.43 183.339 317.613 186.351C319.997 189.364 323.189 190.881 327.189 190.903ZM427.781 339.055C411.181 338.964 398.113 333.093 388.576 321.441C379.24 309.789 376.015 295.972 378.903 279.987C381.789 264.203 389.461 251.144 401.917 240.812C414.575 230.281 429.304 225.062 446.103 225.153C462.503 225.243 475.371 231.213 484.706 243.065C494.243 254.717 497.568 268.435 494.681 284.22C491.794 300.204 484.122 313.362 471.665 323.694C459.209 334.027 444.581 339.147 427.781 339.055ZM434.01 297.088C438.21 297.111 441.918 295.632 445.135 292.649C448.551 289.668 450.67 286.179 451.492 282.184C452.314 278.188 451.533 274.684 449.149 271.671C446.966 268.659 443.774 267.141 439.574 267.118C435.374 267.095 431.666 268.575 428.45 271.558C425.234 274.34 423.215 277.829 422.392 282.025C421.57 286.02 422.251 289.524 424.435 292.536C426.818 295.549 430.01 297.067 434.01 297.088Z" fill="url(#paint1_linear)"/>
<path d="M262.855 248.753L265.805 249.294L266.451 245.772L262.871 245.753L262.855 248.753ZM252.96 302.699L252.943 305.699L255.457 305.713L255.91 303.241L252.96 302.699ZM231.96 302.585L231.976 299.585L229.459 299.571L229.009 302.047L231.96 302.585ZM226.393 333.155L226.376 336.155L228.893 336.168L229.344 333.692L226.393 333.155ZM167.594 332.833L164.642 332.296L164.002 335.814L167.577 335.833L167.594 332.833ZM173.161 302.263L176.112 302.801L176.753 299.283L173.177 299.263L173.161 302.263ZM84.9621 301.781L82.0114 301.24L81.3654 304.762L84.9457 304.781L84.9621 301.781ZM94.857 247.835L92.3238 246.228L92.0114 246.72L91.9062 247.293L94.857 247.835ZM174.141 122.866L174.157 119.866L172.497 119.857L171.608 121.259L174.141 122.866ZM243.44 123.245L245.962 124.869L248.921 120.275L243.456 120.245L243.44 123.245ZM162.956 248.207L160.434 246.582L157.475 251.177L162.94 251.207L162.956 248.207ZM183.056 248.317L183.039 251.317L185.564 251.33L186.009 248.845L183.056 248.317ZM188.316 218.945L188.333 215.945L185.808 215.931L185.363 218.416L188.316 218.945ZM247.115 219.266L250.068 219.795L250.697 216.286L247.132 216.266L247.115 219.266ZM241.855 248.638L238.902 248.109L238.273 251.618L241.838 251.638L241.855 248.638ZM259.904 248.211L250.009 302.158L255.91 303.241L265.805 249.294L259.904 248.211ZM252.976 299.699L231.976 299.585L231.944 305.585L252.943 305.699L252.976 299.699ZM229.009 302.047L223.441 332.617L229.344 333.692L234.911 303.122L229.009 302.047ZM226.409 330.155L167.61 329.833L167.577 335.833L226.376 336.155L226.409 330.155ZM170.545 333.371L176.112 302.801L170.209 301.726L164.642 332.296L170.545 333.371ZM173.177 299.263L84.9785 298.782L84.9457 304.781L173.144 305.263L173.177 299.263ZM87.9129 302.323L97.8078 248.376L91.9062 247.293L82.0114 301.24L87.9129 302.323ZM97.3902 249.442L176.674 124.473L171.608 121.259L92.3238 246.228L97.3902 249.442ZM174.125 125.866L243.424 126.245L243.456 120.245L174.157 119.866L174.125 125.866ZM240.918 121.62L160.434 246.582L165.478 249.831L245.962 124.869L240.918 121.62ZM162.94 251.207L183.039 251.317L183.072 245.317L162.972 245.207L162.94 251.207ZM186.009 248.845L191.269 219.474L185.363 218.416L180.103 247.788L186.009 248.845ZM188.3 221.945L247.099 222.266L247.132 216.266L188.333 215.945L188.3 221.945ZM244.162 218.737L238.902 248.109L244.808 249.167L250.068 219.795L244.162 218.737ZM241.838 251.638L262.838 251.753L262.871 245.753L241.871 245.638L241.838 251.638ZM281.755 215.255L279.414 217.131L279.424 217.143L279.433 217.155L281.755 215.255ZM272.081 173.802L269.13 173.262L269.129 173.269L272.081 173.802ZM295.096 134.627L297.011 136.936L297.014 136.933L295.096 134.627ZM377.886 136.579L375.545 138.455L375.555 138.467L375.565 138.479L377.886 136.579ZM387.86 178.034L384.908 177.501L387.86 178.034ZM364.844 217.509L366.759 219.818L366.759 219.818L364.844 217.509ZM287.889 300.49L285.896 298.248L282.997 300.826L286.221 302.983L287.889 300.49ZM455.205 151.702L456.873 149.209L454.945 147.918L453.211 149.46L455.205 151.702ZM473.737 164.103L475.731 166.345L478.63 163.767L475.406 161.61L473.737 164.103ZM306.422 312.892L304.754 315.385L306.682 316.675L308.416 315.133L306.422 312.892ZM338.313 186.464L336.341 184.204L336.306 184.233L336.273 184.264L338.313 186.464ZM344.67 175.998L347.609 176.603L347.612 176.589L347.614 176.576L344.67 175.998ZM342.328 165.485L339.899 167.246L339.966 167.339L340.039 167.425L342.328 165.485ZM321.628 165.372L323.591 167.641L323.63 167.607L323.668 167.572L321.628 165.372ZM315.571 175.839L318.509 176.444L318.512 176.43L318.515 176.417L315.571 175.839ZM317.613 186.351L315.185 188.112L315.222 188.163L315.261 188.212L317.613 186.351ZM388.576 321.441L386.235 323.316L386.245 323.329L386.255 323.341L388.576 321.441ZM378.903 279.987L375.952 279.447L375.951 279.454L378.903 279.987ZM401.917 240.812L403.832 243.121L403.836 243.118L401.917 240.812ZM484.706 243.065L482.349 244.921L482.367 244.943L482.384 244.965L484.706 243.065ZM494.681 284.22L491.73 283.68L491.729 283.686L494.681 284.22ZM471.665 323.694L469.75 321.385L471.665 323.694ZM445.135 292.649L443.162 290.389L443.128 290.419L443.095 290.449L445.135 292.649ZM451.492 282.184L448.553 281.579L448.553 281.579L451.492 282.184ZM449.149 271.671L446.72 273.432L446.757 273.483L446.796 273.532L449.149 271.671ZM428.45 271.558L430.413 273.826L430.452 273.792L430.489 273.757L428.45 271.558ZM422.392 282.025L425.331 282.629L425.334 282.616L425.336 282.602L422.392 282.025ZM424.435 292.536L422.006 294.297L422.043 294.348L422.082 294.397L424.435 292.536ZM320.976 229.87C305.166 229.783 292.984 224.239 284.077 213.355L279.433 217.155C289.599 229.576 303.553 235.775 320.943 235.87L320.976 229.87ZM284.096 213.379C275.354 202.469 272.285 189.551 275.034 174.335L269.129 173.269C266.103 190.022 269.483 204.739 279.414 217.131L284.096 213.379ZM275.032 174.341C277.791 159.257 285.092 146.823 297.011 136.936L293.18 132.318C280.187 143.096 272.144 156.778 269.13 173.262L275.032 174.341ZM297.014 136.933C309.117 126.864 323.157 121.88 339.265 121.968L339.298 115.968C321.808 115.873 306.39 121.328 293.177 132.321L297.014 136.933ZM339.265 121.968C354.862 122.053 366.835 127.586 375.545 138.455L380.227 134.703C370.265 122.271 356.501 116.062 339.298 115.968L339.265 121.968ZM375.565 138.479C384.497 149.394 387.653 162.304 384.908 177.501L390.812 178.568C393.842 161.796 390.348 147.07 380.208 134.679L375.565 138.479ZM384.908 177.501C382.145 192.793 374.839 205.321 362.929 215.2L366.759 219.818C379.762 209.033 387.8 195.245 390.812 178.568L384.908 177.501ZM362.929 215.2C351.037 225.064 337.1 229.958 320.976 229.87L320.943 235.87C338.419 235.965 353.738 230.619 366.759 219.818L362.929 215.2ZM289.883 302.732L457.198 153.944L453.211 149.46L285.896 298.248L289.883 302.732ZM453.536 154.195L472.069 166.597L475.406 161.61L456.873 149.209L453.536 154.195ZM471.744 161.862L304.428 310.65L308.416 315.133L475.731 166.345L471.744 161.862ZM308.09 310.398L289.558 297.997L286.221 302.983L304.754 315.385L308.09 310.398ZM327.172 193.903C332.171 193.93 336.605 192.139 340.353 188.664L336.273 184.264C333.588 186.754 330.606 187.922 327.205 187.903L327.172 193.903ZM340.286 188.724C344.138 185.362 346.64 181.313 347.609 176.603L341.732 175.394C341.057 178.675 339.321 181.603 336.341 184.204L340.286 188.724ZM347.614 176.576C348.581 171.645 347.689 167.17 344.616 163.546L340.039 167.425C341.736 169.427 342.405 171.96 341.726 175.421L347.614 176.576ZM344.757 163.725C341.934 159.831 337.783 157.961 332.769 157.933L332.736 163.933C336.122 163.952 338.355 165.116 339.899 167.246L344.757 163.725ZM332.769 157.933C327.77 157.906 323.336 159.697 319.588 163.173L323.668 167.572C326.353 165.083 329.335 163.914 332.736 163.933L332.769 157.933ZM319.665 163.104C315.94 166.327 313.578 170.413 312.627 175.262L318.515 176.417C319.21 172.875 320.886 169.982 323.591 167.641L319.665 163.104ZM312.632 175.235C311.659 179.967 312.456 184.348 315.185 188.112L320.042 184.59C318.404 182.33 317.839 179.703 318.509 176.444L312.632 175.235ZM315.261 188.212C318.236 191.973 322.304 193.877 327.172 193.903L327.205 187.903C324.073 187.886 321.758 186.754 319.966 184.49L315.261 188.212ZM427.797 336.055C411.988 335.969 399.806 330.424 390.898 319.54L386.255 323.341C396.42 335.761 410.375 341.96 427.764 342.055L427.797 336.055ZM390.918 319.565C382.175 308.655 379.107 295.736 381.855 280.52L375.951 279.454C372.924 296.207 376.305 310.924 386.235 323.316L390.918 319.565ZM381.854 280.527C384.612 265.442 391.913 253.008 403.832 243.121L400.002 238.503C387.008 249.281 378.966 262.963 375.952 279.447L381.854 280.527ZM403.836 243.118C415.938 233.049 429.978 228.065 446.087 228.153L446.12 222.153C428.629 222.058 413.211 227.513 399.998 238.506L403.836 243.118ZM446.087 228.153C461.664 228.238 473.633 233.856 482.349 244.921L487.063 241.208C477.108 228.571 463.342 222.247 446.12 222.153L446.087 228.153ZM482.384 244.965C491.323 255.886 494.47 268.697 491.73 283.68L497.632 284.759C500.665 268.173 497.162 253.548 487.028 241.164L482.384 244.965ZM491.729 283.686C488.967 298.978 481.661 311.506 469.75 321.385L473.581 326.004C486.584 315.218 494.621 301.43 497.634 284.753L491.729 283.686ZM469.75 321.385C457.858 331.249 443.921 336.143 427.797 336.055L427.764 342.055C445.24 342.15 460.559 336.804 473.581 326.004L469.75 321.385ZM433.994 300.088C438.992 300.116 443.427 298.324 447.174 294.849L443.095 290.449C440.41 292.939 437.428 294.107 434.027 294.088L433.994 300.088ZM447.107 294.909C450.96 291.547 453.462 287.498 454.43 282.788L448.553 281.579C447.878 284.86 446.142 287.788 443.162 290.389L447.107 294.909ZM454.43 282.788C455.418 277.986 454.473 273.565 451.502 269.809L446.796 273.532C448.593 275.802 449.209 278.39 448.553 281.579L454.43 282.788ZM451.578 269.91C448.755 266.016 444.604 264.146 439.59 264.118L439.558 270.118C442.944 270.137 445.176 271.301 446.72 273.432L451.578 269.91ZM439.59 264.118C434.592 264.091 430.158 265.882 426.41 269.358L430.489 273.757C433.174 271.268 436.156 270.1 439.558 270.118L439.59 264.118ZM426.486 269.289C422.762 272.513 420.4 276.598 419.448 281.447L425.336 282.602C426.031 279.06 427.707 276.168 430.413 273.826L426.486 269.289ZM419.454 281.42C418.481 286.152 419.277 290.533 422.006 294.297L426.864 290.775C425.225 288.515 424.66 285.888 425.331 282.629L419.454 281.42ZM422.082 294.397C425.058 298.158 429.126 300.062 433.994 300.088L434.027 294.088C430.895 294.071 428.579 292.94 426.788 290.675L422.082 294.397Z" fill="url(#paint2_linear)"/>
<ellipse cx="171.839" cy="127.169" rx="80.6891" ry="15.0955" transform="rotate(-49.3551 171.839 127.169)" fill="url(#paint3_diamond)"/>
<g filter="url(#filter0_d)">
<path d="M184.524 56.1052C190.524 56.1052 195.114 58.0552 198.294 61.9552C201.534 65.7952 202.644 70.7152 201.624 76.7152C200.544 82.8352 197.934 87.6052 193.794 91.0252C189.714 94.3852 184.284 96.0652 177.504 96.0652H149.604L160.674 33.0652H203.874L200.814 50.5252H175.614L174.624 56.1052H184.524ZM182.094 78.7852C182.994 78.0652 183.564 77.0752 183.804 75.8152C184.044 74.5552 183.834 73.5652 183.174 72.8452C182.574 72.1252 181.674 71.7652 180.474 71.7652H171.834L170.484 79.8652H179.034C180.234 79.8652 181.254 79.5052 182.094 78.7852ZM232.179 97.5052C225.339 97.5052 219.489 95.8252 214.629 92.4652C209.769 89.0452 206.379 84.7852 204.459 79.6852C202.599 74.5252 202.119 69.1252 203.019 63.4852C204.459 54.7852 208.569 47.3152 215.349 41.0752C222.189 34.7752 230.589 31.6252 240.549 31.6252C245.709 31.6252 250.329 32.6152 254.409 34.5952C258.489 36.5152 261.699 39.0652 264.039 42.2452C266.379 45.4252 268.029 49.0252 268.989 53.0452C269.949 57.0052 270.099 61.0852 269.439 65.2852C268.059 74.0452 264.009 81.6052 257.289 87.9652C250.629 94.3252 242.259 97.5052 232.179 97.5052ZM223.269 75.5452C225.669 78.4252 229.089 79.8652 233.529 79.8652C237.969 79.8652 241.899 78.4252 245.319 75.5452C248.739 72.6052 250.839 68.9452 251.619 64.5652C252.399 60.1852 251.589 56.5552 249.189 53.6752C246.789 50.7352 243.369 49.2652 238.929 49.2652C234.489 49.2652 230.559 50.7352 227.139 53.6752C223.719 56.5552 221.619 60.1852 220.839 64.5652C220.059 68.9452 220.869 72.6052 223.269 75.5452ZM310.658 33.0652H328.658L317.588 96.0652H299.588L303.638 72.8452H288.338L284.288 96.0652H266.288L277.358 33.0652H295.358L291.398 55.3852H306.698L310.658 33.0652ZM367.351 33.0652H387.151L361.861 76.6252C357.781 83.5852 353.071 88.5352 347.731 91.4752C342.391 94.4152 335.761 95.9452 327.841 96.0652L330.811 79.3252C335.611 79.2652 339.751 77.8252 343.231 75.0052L329.551 33.0652H347.551L354.841 57.0952L367.351 33.0652ZM403.494 97.5052C393.714 97.5052 386.124 94.2952 380.724 87.8752C375.384 81.4552 373.494 73.3852 375.054 63.6652C376.554 54.3052 380.784 46.6252 387.744 40.6252C394.764 34.6252 402.894 31.6252 412.134 31.6252C424.494 31.6252 433.344 36.7852 438.684 47.1052L422.214 55.8352C419.754 51.4552 415.854 49.2652 410.514 49.2652C406.194 49.2652 402.384 50.7052 399.084 53.5852C395.784 56.4652 393.744 60.1252 392.964 64.5652C392.244 68.8252 392.964 72.4552 395.124 75.4552C397.284 78.3952 400.524 79.8652 404.844 79.8652C409.824 79.8652 414.114 77.5252 417.714 72.8452L432.654 82.2952C429.414 87.0952 425.244 90.8452 420.144 93.5452C415.104 96.1852 409.554 97.5052 403.494 97.5052Z" fill="white"/>
</g>
<g filter="url(#filter1_d)">
<path d="M177.584 382.564C174.924 382.564 172.649 381.911 170.759 380.604C168.869 379.274 167.551 377.618 166.804 375.634C166.081 373.628 165.894 371.528 166.244 369.334C166.804 365.951 168.402 363.046 171.039 360.619C173.699 358.169 176.966 356.944 180.839 356.944C182.846 356.944 184.642 357.329 186.229 358.099C187.816 358.846 189.064 359.838 189.974 361.074C190.884 362.311 191.526 363.711 191.899 365.274C192.272 366.814 192.331 368.401 192.074 370.034C191.537 373.441 189.962 376.381 187.349 378.854C184.759 381.328 181.504 382.564 177.584 382.564ZM174.119 374.024C175.052 375.144 176.382 375.704 178.109 375.704C179.836 375.704 181.364 375.144 182.694 374.024C184.024 372.881 184.841 371.458 185.144 369.754C185.447 368.051 185.132 366.639 184.199 365.519C183.266 364.376 181.936 363.804 180.209 363.804C178.482 363.804 176.954 364.376 175.624 365.519C174.294 366.639 173.477 368.051 173.174 369.754C172.871 371.458 173.186 372.881 174.119 374.024ZM212.652 357.504L211.462 364.294H205.687L202.572 382.004H195.572L198.687 364.294H192.912L194.102 357.504H212.652ZM242.367 357.504L232.672 369.789L238.307 382.004H230.992L226.302 371.469L224.447 382.004H217.447L221.752 357.504H228.752L227.107 366.954L234.247 357.504H242.367ZM255.143 382.004L254.863 378.854H247.793L246.393 382.004H238.658L250.768 357.504H258.958L262.458 382.004H255.143ZM250.278 373.254H254.338L253.638 365.729L250.278 373.254ZM299.038 357.504L290.148 370.104L294.418 382.004H287.103L283.848 371.119L281.923 382.004H274.923L276.743 371.609L269.953 382.004H262.113L271.178 369.264L266.873 357.504H274.188L277.408 367.899L279.228 357.504H286.228L284.373 368.109L291.198 357.504H299.038ZM321.759 357.504L318.644 375.214H321.269L319.239 386.694H312.239L313.079 382.004H302.614L301.774 386.694H294.774L296.769 375.214H299.359C300.666 373.418 301.599 370.944 302.159 367.794L303.944 357.504H321.759ZM306.744 375.214H311.644L313.639 363.944H309.824L309.124 367.864C308.564 370.968 307.771 373.418 306.744 375.214ZM334.195 382.564C331.535 382.564 329.26 381.911 327.37 380.604C325.48 379.274 324.162 377.618 323.415 375.634C322.692 373.628 322.505 371.528 322.855 369.334C323.415 365.951 325.014 363.046 327.65 360.619C330.31 358.169 333.577 356.944 337.45 356.944C339.457 356.944 341.254 357.329 342.84 358.099C344.427 358.846 345.675 359.838 346.585 361.074C347.495 362.311 348.137 363.711 348.51 365.274C348.884 366.814 348.942 368.401 348.685 370.034C348.149 373.441 346.574 376.381 343.96 378.854C341.37 381.328 338.115 382.564 334.195 382.564ZM330.73 374.024C331.664 375.144 332.994 375.704 334.72 375.704C336.447 375.704 337.975 375.144 339.305 374.024C340.635 372.881 341.452 371.458 341.755 369.754C342.059 368.051 341.744 366.639 340.81 365.519C339.877 364.376 338.547 363.804 336.82 363.804C335.094 363.804 333.565 364.376 332.235 365.519C330.905 366.639 330.089 368.051 329.785 369.754C329.482 371.458 329.797 372.881 330.73 374.024ZM368.565 357.504L367.375 364.294H359.325L356.21 382.004H349.21L353.515 357.504H368.565ZM378.048 382.564C375.388 382.564 373.113 381.911 371.223 380.604C369.333 379.274 368.014 377.618 367.268 375.634C366.544 373.628 366.358 371.528 366.708 369.334C367.268 365.951 368.866 363.046 371.503 360.619C374.163 358.169 377.429 356.944 381.303 356.944C383.309 356.944 385.106 357.329 386.693 358.099C388.279 358.846 389.528 359.838 390.438 361.074C391.348 362.311 391.989 363.711 392.363 365.274C392.736 366.814 392.794 368.401 392.538 370.034C392.001 373.441 390.426 376.381 387.813 378.854C385.223 381.328 381.968 382.564 378.048 382.564ZM374.583 374.024C375.516 375.144 376.846 375.704 378.573 375.704C380.299 375.704 381.828 375.144 383.158 374.024C384.488 372.881 385.304 371.458 385.608 369.754C385.911 368.051 385.596 366.639 384.663 365.519C383.729 364.376 382.399 363.804 380.673 363.804C378.946 363.804 377.418 364.376 376.088 365.519C374.758 366.639 373.941 368.051 373.638 369.754C373.334 371.458 373.649 372.881 374.583 374.024ZM230.475 392.504L226.17 417.004H219.17L222.285 399.294H217.035L213.92 417.004H206.92L211.225 392.504H230.475ZM242.389 417.564C239.729 417.564 237.454 416.911 235.564 415.604C233.674 414.274 232.355 412.618 231.609 410.634C230.885 408.628 230.699 406.528 231.049 404.334C231.609 400.951 233.207 398.046 235.844 395.619C238.504 393.169 241.77 391.944 245.644 391.944C247.65 391.944 249.447 392.329 251.034 393.099C252.62 393.846 253.869 394.838 254.779 396.074C255.689 397.311 256.33 398.711 256.704 400.274C257.077 401.814 257.135 403.401 256.879 405.034C256.342 408.441 254.767 411.381 252.154 413.854C249.564 416.328 246.309 417.564 242.389 417.564ZM238.924 409.024C239.857 410.144 241.187 410.704 242.914 410.704C244.64 410.704 246.169 410.144 247.499 409.024C248.829 407.881 249.645 406.458 249.949 404.754C250.252 403.051 249.937 401.639 249.004 400.519C248.07 399.376 246.74 398.804 245.014 398.804C243.287 398.804 241.759 399.376 240.429 400.519C239.099 401.639 238.282 403.051 237.979 404.754C237.675 406.458 237.99 407.881 238.924 409.024ZM280.958 392.504L276.653 417.004H269.653L272.768 399.294H267.518L264.403 417.004H257.403L261.708 392.504H280.958ZM292.872 417.564C290.212 417.564 287.937 416.911 286.047 415.604C284.157 414.274 282.839 412.618 282.092 410.634C281.369 408.628 281.182 406.528 281.532 404.334C282.092 400.951 283.69 398.046 286.327 395.619C288.987 393.169 292.254 391.944 296.127 391.944C298.134 391.944 299.93 392.329 301.517 393.099C303.104 393.846 304.352 394.838 305.262 396.074C306.172 397.311 306.814 398.711 307.187 400.274C307.56 401.814 307.619 403.401 307.362 405.034C306.825 408.441 305.25 411.381 302.637 413.854C300.047 416.328 296.792 417.564 292.872 417.564ZM289.407 409.024C290.34 410.144 291.67 410.704 293.397 410.704C295.124 410.704 296.652 410.144 297.982 409.024C299.312 407.881 300.129 406.458 300.432 404.754C300.735 403.051 300.42 401.639 299.487 400.519C298.554 399.376 297.224 398.804 295.497 398.804C293.77 398.804 292.242 399.376 290.912 400.519C289.582 401.639 288.765 403.051 288.462 404.754C288.159 406.458 288.474 407.881 289.407 409.024ZM305.077 417.074L306.197 410.564C307.434 410.634 308.344 410.436 308.927 409.969C309.511 409.503 309.931 408.534 310.187 407.064L312.742 392.504H330.732L326.427 417.004H319.427L322.542 399.294H318.552L317.047 407.904C316.767 409.538 316.336 410.949 315.752 412.139C315.192 413.329 314.527 414.251 313.757 414.904C313.011 415.558 312.159 416.083 311.202 416.479C310.269 416.876 309.289 417.086 308.262 417.109C307.259 417.156 306.197 417.144 305.077 417.074ZM347.188 392.504H354.188L349.883 417.004H342.883L344.458 407.974H338.508L336.933 417.004H329.933L334.238 392.504H341.238L339.698 401.184H345.648L347.188 392.504ZM372.49 398.874H363.565L363.11 401.534H371.16L370.04 407.834H361.99L361.5 410.564H370.6L369.48 417.004H353.38L357.685 392.504H373.61L372.49 398.874ZM389.536 392.504H396.536L392.231 417.004H385.231L386.806 407.974H380.856L379.281 417.004H372.281L376.586 392.504H383.586L382.046 401.184H387.996L389.536 392.504ZM395.729 417.004L400.034 392.504H407.034L405.144 403.354L414.734 392.504H420.334L416.029 417.004H409.029L410.919 406.154L401.329 417.004H395.729ZM442.408 392.469L438.068 416.969H431.068L432.433 409.269H431.838L426.098 416.969H418.118L424.978 408.079C423.648 407.286 422.714 406.178 422.178 404.754C421.664 403.308 421.583 401.803 421.933 400.239C422.399 398.046 423.566 396.203 425.433 394.709C427.299 393.216 429.691 392.469 432.608 392.469H442.408ZM428.758 401.184C428.641 401.884 428.769 402.456 429.143 402.899C429.539 403.343 430.088 403.553 430.788 403.529H433.448L434.253 398.909H431.593C430.869 398.909 430.251 399.119 429.738 399.539C429.224 399.936 428.898 400.484 428.758 401.184ZM444.049 407.904L444.294 399.504L445.519 392.504H453.569L452.344 399.504L449.649 407.904H444.049ZM445.169 417.529C444.049 417.529 443.174 417.133 442.544 416.339C441.914 415.523 441.692 414.554 441.879 413.434C442.065 412.314 442.602 411.381 443.489 410.634C444.399 409.864 445.425 409.479 446.569 409.479C447.689 409.479 448.564 409.888 449.194 410.704C449.824 411.498 450.045 412.454 449.859 413.574C449.672 414.718 449.147 415.663 448.284 416.409C447.42 417.156 446.382 417.529 445.169 417.529Z" fill="white"/>
</g>
</g>
<defs>
<filter id="filter0_d" x="129.604" y="15.6252" width="329.079" height="105.88" filterUnits="userSpaceOnUse" color-interpolation-filters="sRGB">
<feFlood flood-opacity="0" result="BackgroundImageFix"/>
<feColorMatrix in="SourceAlpha" type="matrix" values="0 0 0 0 0 0 0 0 0 0 0 0 0 0 0 0 0 0 127 0"/>
<feOffset dy="4"/>
<feGaussianBlur stdDeviation="10"/>
<feColorMatrix type="matrix" values="0 0 0 0 1 0 0 0 0 1 0 0 0 0 1 0 0 0 0.5 0"/>
<feBlend mode="normal" in2="BackgroundImageFix" result="effect1_dropShadow"/>
<feBlend mode="normal" in="SourceGraphic" in2="effect1_dropShadow" result="shape"/>
</filter>
<filter id="filter1_d" x="146.073" y="340.944" width="327.496" height="100.62" filterUnits="userSpaceOnUse" color-interpolation-filters="sRGB">
<feFlood flood-opacity="0" result="BackgroundImageFix"/>
<feColorMatrix in="SourceAlpha" type="matrix" values="0 0 0 0 0 0 0 0 0 0 0 0 0 0 0 0 0 0 127 0"/>
<feOffset dy="4"/>
<feGaussianBlur stdDeviation="10"/>
<feColorMatrix type="matrix" values="0 0 0 0 1 0 0 0 0 1 0 0 0 0 1 0 0 0 0.5 0"/>
<feBlend mode="normal" in2="BackgroundImageFix" result="effect1_dropShadow"/>
<feBlend mode="normal" in="SourceGraphic" in2="effect1_dropShadow" result="shape"/>
</filter>
<linearGradient id="paint0_linear" x1="-531.053" y1="248.71" x2="906.356" y2="248.711" gradientUnits="userSpaceOnUse">
<stop stop-color="#0CFC4F" stop-opacity="0.8"/>
<stop offset="1" stop-color="#0CFC4F" stop-opacity="0"/>
</linearGradient>
<linearGradient id="paint1_linear" x1="337.425" y1="14.8043" x2="336.959" y2="298.834" gradientUnits="userSpaceOnUse">
<stop stop-color="#FDFFFC"/>
<stop offset="0.140625" stop-color="#C2FFC8"/>
<stop offset="0.317708" stop-color="#98FFB5"/>
<stop offset="0.619792" stop-color="#00BB29"/>
<stop offset="0.765625" stop-color="#01AF3C"/>
<stop offset="1" stop-color="#009C35"/>
</linearGradient>
<linearGradient id="paint2_linear" x1="259.39" y1="176.208" x2="358.628" y2="346.66" gradientUnits="userSpaceOnUse">
<stop stop-color="#E0FEE7"/>
<stop offset="1" stop-color="#81FFA4"/>
</linearGradient>
<radialGradient id="paint3_diamond" cx="0" cy="0" r="1" gradientUnits="userSpaceOnUse" gradientTransform="translate(171.839 127.169) rotate(90) scale(15.0955 80.6891)">
<stop stop-color="#FDFEFD"/>
<stop offset="0.432292" stop-color="#00FF1A" stop-opacity="0.38"/>
<stop offset="1" stop-color="#58E466" stop-opacity="0"/>
</radialGradient>
<clipPath id="clip0">
<rect width="831" height="467" fill="white"/>
</clipPath>
</defs>
</svg>
