<svg width="286" height="55" viewBox="0 0 286 55" fill="none" xmlns="http://www.w3.org/2000/svg">
<path d="M11.2248 0.937241L0.0756836 54.0127H275.848L285.065 0.937241H11.2248Z" fill="white"/>
<path d="M38.3577 40.975L42.9087 15.075H50.3087L48.3107 26.545L58.4487 15.075H64.3687L59.8177 40.975H52.4177L54.4157 29.505L44.2777 40.975H38.3577ZM95.8144 15.075L91.2634 40.975H83.8634L87.1564 22.253H81.6064L78.3134 40.975H70.9134L75.4644 15.075H95.8144ZM108.409 41.567C105.597 41.567 103.192 40.8763 101.194 39.495C99.1959 38.089 97.8022 36.3376 97.0129 34.241C96.2482 32.1196 96.0509 29.8996 96.4209 27.581C97.0129 24.0043 98.7025 20.9333 101.49 18.368C104.302 15.778 107.755 14.483 111.85 14.483C113.971 14.483 115.871 14.89 117.548 15.704C119.225 16.4933 120.545 17.5416 121.507 18.849C122.469 20.1563 123.147 21.6363 123.542 23.289C123.937 24.917 123.998 26.5943 123.727 28.321C123.16 31.9223 121.495 35.0303 118.732 37.645C115.994 40.2596 112.553 41.567 108.409 41.567ZM104.746 32.539C105.733 33.723 107.139 34.315 108.964 34.315C110.789 34.315 112.405 33.723 113.811 32.539C115.217 31.3303 116.08 29.8256 116.401 28.025C116.722 26.2243 116.389 24.732 115.402 23.548C114.415 22.3393 113.009 21.735 111.184 21.735C109.359 21.735 107.743 22.3393 106.337 23.548C104.931 24.732 104.068 26.2243 103.747 28.025C103.426 29.8256 103.759 31.3303 104.746 32.539ZM121.311 41.049L122.495 34.167C123.803 34.241 124.765 34.0313 125.381 33.538C125.998 33.0446 126.442 32.021 126.713 30.467L129.414 15.075H148.432L143.881 40.975H136.481L139.774 22.253H135.556L133.965 31.355C133.669 33.0816 133.213 34.574 132.596 35.832C132.004 37.09 131.301 38.0643 130.487 38.755C129.698 39.4456 128.798 40.0006 127.786 40.42C126.8 40.8393 125.764 41.0613 124.678 41.086C123.618 41.1353 122.495 41.123 121.311 41.049ZM166.198 15.075H174.338L163.941 32.983C162.264 35.8443 160.328 37.8793 158.132 39.088C155.937 40.2966 153.211 40.9256 149.955 40.975L151.176 34.093C153.15 34.0683 154.852 33.4763 156.282 32.317L150.658 15.075H158.058L161.055 24.954L166.198 15.075ZM189.523 15.075H196.923L192.372 40.975H184.972L186.341 33.205C185.255 33.4023 184.121 33.501 182.937 33.501C179.557 33.501 177.14 32.65 175.685 30.948C174.229 29.246 173.761 26.915 174.279 23.955L175.833 15.075H183.233L181.716 23.807C181.568 24.6703 181.74 25.2993 182.234 25.694C182.752 26.0886 183.578 26.2983 184.713 26.323C185.601 26.323 186.563 26.2243 187.599 26.027L189.523 15.075ZM211.284 40.975L210.988 37.645H203.514L202.034 40.975H193.857L206.659 15.075H215.317L219.017 40.975H211.284ZM206.141 31.725H210.433L209.693 23.77L206.141 31.725ZM229.087 13.262L230.049 7.71198H242.999L242.037 13.262H229.087ZM220.503 40.975L225.054 15.075H232.454L230.456 26.545L240.594 15.075H246.514L241.963 40.975H234.563L236.561 29.505L226.423 40.975H220.503ZM251.239 30.43C250.055 30.43 249.117 30.0106 248.427 29.172C247.761 28.3086 247.526 27.285 247.724 26.101C247.921 24.917 248.501 23.9303 249.463 23.141C250.425 22.327 251.51 21.92 252.719 21.92C253.903 21.92 254.828 22.3516 255.494 23.215C256.16 24.0536 256.394 25.065 256.197 26.249C255.999 27.4576 255.444 28.4566 254.532 29.246C253.619 30.0353 252.521 30.43 251.239 30.43ZM249.278 41.53C248.094 41.53 247.156 41.1106 246.466 40.272C245.8 39.4086 245.565 38.385 245.763 37.201C245.96 36.017 246.54 35.0303 247.502 34.241C248.464 33.427 249.549 33.02 250.758 33.02C251.942 33.02 252.867 33.4516 253.533 34.315C254.199 35.1536 254.433 36.165 254.236 37.349C254.038 38.5576 253.483 39.5566 252.571 40.346C251.658 41.1353 250.56 41.53 249.278 41.53Z" fill="#009A17"/>
</svg>
