<svg width="405" height="54" viewBox="0 0 405 54" fill="none" xmlns="http://www.w3.org/2000/svg">
<path d="M11.3915 0.123047L0.242432 53.1985H394.933L404.15 0.123047H11.3915Z" fill="#009A17"/>
<path d="M55.3322 12.5298C58.2964 12.5298 60.7085 13.576 62.5683 15.6683C64.4573 17.7317 65.1548 20.4779 64.6607 23.9071C64.1957 27.1038 62.8154 29.6611 60.5196 31.5791C58.2528 33.4681 55.3177 34.4126 51.7141 34.4126H48.2268L46.7011 43.0436H37.9829L43.3446 12.5298H55.3322ZM56.0297 23.4712C56.175 22.6575 56.0151 22.0472 55.5502 21.6403C55.0852 21.2044 54.5185 20.9865 53.8501 20.9865H50.5808L49.7089 25.9559H53.1962C53.8646 25.9559 54.4749 25.7379 55.0271 25.302C55.5792 24.837 55.9134 24.2268 56.0297 23.4712Z" fill="white"/>
<path d="M86.4008 20.4634H75.2851L74.7184 23.7763H84.7443L83.3494 31.6227H73.3234L72.7132 35.0228H84.0469L82.652 43.0436H62.6L67.9617 12.5298H87.7957L86.4008 20.4634Z" fill="white"/>
<path d="M108.939 12.5298L107.457 20.9865H97.4311L93.5515 43.0436H84.8332L90.1949 12.5298H108.939Z" fill="white"/>
<path d="M104.47 43.0436L109.831 12.5298H118.55L116.196 26.0431L128.14 12.5298H135.114L129.753 43.0436H121.034L123.388 29.5303L111.444 43.0436H104.47Z" fill="white"/>
<path d="M148.222 43.7411C143.485 43.7411 139.809 42.1863 137.193 39.0768C134.607 35.9673 133.691 32.0586 134.447 27.3508C135.173 22.8173 137.222 19.0975 140.593 16.1914C143.993 13.2854 147.931 11.8323 152.406 11.8323C158.393 11.8323 162.679 14.3316 165.266 19.33L157.289 23.5584C156.097 21.4369 154.208 20.3762 151.622 20.3762C149.529 20.3762 147.684 21.0737 146.086 22.4686C144.487 23.8635 143.499 25.6362 143.121 27.7867C142.773 29.85 143.121 31.6082 144.168 33.0612C145.214 34.4852 146.783 35.1972 148.875 35.1972C151.288 35.1972 153.365 34.0638 155.109 31.7971L162.345 36.3742C160.776 38.699 158.756 40.5153 156.286 41.8231C153.845 43.1017 151.157 43.7411 148.222 43.7411Z" fill="white"/>
<path d="M189.195 12.5298L187.713 20.9865H180.52L176.64 43.0436H167.922L171.802 20.9865H164.609L166.091 12.5298H189.195Z" fill="white"/>
<path d="M202.481 12.5298C205.446 12.5298 207.858 13.576 209.718 15.6683C211.607 17.7317 212.304 20.4779 211.81 23.9071C211.345 27.1038 209.965 29.6611 207.669 31.5791C205.402 33.4681 202.467 34.4126 198.863 34.4126H195.376L193.85 43.0436H185.132L190.494 12.5298H202.481ZM203.179 23.4712C203.324 22.6575 203.164 22.0472 202.699 21.6403C202.234 21.2044 201.668 20.9865 200.999 20.9865H197.73L196.858 25.9559H200.345C201.014 25.9559 201.624 25.7379 202.176 25.302C202.728 24.837 203.063 24.2268 203.179 23.4712Z" fill="white"/>
<path d="M209.749 43.0436L215.111 12.5298H223.829L221.475 26.0431L233.419 12.5298H240.394L235.032 43.0436H226.314L228.668 29.5303L216.724 43.0436H209.749Z" fill="white"/>
<path d="M255.419 12.5298C258.383 12.5298 260.795 13.576 262.655 15.6683C264.544 17.7317 265.242 20.4779 264.748 23.9071C264.283 27.1038 262.902 29.6611 260.607 31.5791C258.34 33.4681 255.405 34.4126 251.801 34.4126H248.314L246.788 43.0436H238.07L243.432 12.5298H255.419ZM256.117 23.4712C256.262 22.6575 256.102 22.0472 255.637 21.6403C255.172 21.2044 254.605 20.9865 253.937 20.9865H250.668L249.796 25.9559H253.283C253.952 25.9559 254.562 25.7379 255.114 25.302C255.666 24.837 256 24.2268 256.117 23.4712Z" fill="white"/>
<path d="M282.868 12.5298H292.458L280.209 33.6279C278.233 36.999 275.952 39.3965 273.365 40.8205C270.779 42.2444 267.568 42.9855 263.731 43.0436L265.17 34.9357C267.495 34.9066 269.5 34.2091 271.186 32.8433L264.56 12.5298H273.278L276.809 24.1686L282.868 12.5298Z" fill="white"/>
<path d="M298.098 10.3938L299.232 3.85513H314.489L313.355 10.3938H298.098ZM287.985 43.0436L293.347 12.5298H302.065L299.711 26.0431L311.655 12.5298H318.63L313.268 43.0436H304.55L306.904 29.5303L294.96 43.0436H287.985Z" fill="white"/>
<path d="M331.737 43.7411C327 43.7411 323.324 42.1863 320.709 39.0768C318.122 35.9673 317.207 32.0586 317.962 27.3508C318.689 22.8173 320.738 19.0975 324.109 16.1914C327.509 13.2854 331.447 11.8323 335.922 11.8323C341.908 11.8323 346.195 14.3316 348.781 19.33L340.804 23.5584C339.613 21.4369 337.724 20.3762 335.137 20.3762C333.045 20.3762 331.2 21.0737 329.601 22.4686C328.003 23.8635 327.015 25.6362 326.637 27.7867C326.288 29.85 326.637 31.6082 327.683 33.0612C328.729 34.4852 330.299 35.1972 332.391 35.1972C334.803 35.1972 336.881 34.0638 338.625 31.7971L345.861 36.3742C344.291 38.699 342.272 40.5153 339.802 41.8231C337.36 43.1017 334.672 43.7411 331.737 43.7411Z" fill="white"/>
<path d="M373.603 12.4862L368.198 43H359.48L361.18 33.41H360.439L353.29 43H343.351L351.895 31.9279C350.239 30.9398 349.076 29.5594 348.408 27.7867C347.768 25.9849 347.667 24.1105 348.103 22.1634C348.684 19.4317 350.137 17.1359 352.462 15.276C354.787 13.4161 357.765 12.4862 361.398 12.4862H373.603ZM356.603 23.3404C356.458 24.2122 356.617 24.9242 357.082 25.4764C357.576 26.0285 358.259 26.2901 359.131 26.261H362.444L363.447 20.507H360.134C359.233 20.507 358.463 20.7685 357.823 21.2916C357.184 21.7856 356.777 22.4686 356.603 23.3404Z" fill="white"/>
</svg>
