<svg width="22" height="22" viewBox="0 0 22 22" fill="none" xmlns="http://www.w3.org/2000/svg">
<g clip-path="url(#clip0)">
<g clip-path="url(#clip1)">
<path d="M15.2862 0.0163879H7.27387C3.58686 0.0163879 0.596924 3.00633 0.596924 6.69334V14.7057C0.596924 18.3927 3.58686 21.3826 7.27387 21.3826H15.2862C18.9732 21.3826 21.9632 18.3927 21.9632 14.7057V6.69334C21.9632 3.00633 18.9732 0.0163879 15.2862 0.0163879ZM19.9601 14.7057C19.9601 17.283 17.8635 19.3795 15.2862 19.3795H7.27387C4.69657 19.3795 2.60001 17.283 2.60001 14.7057V6.69334C2.60001 4.11603 4.69657 2.01947 7.27387 2.01947H15.2862C17.8635 2.01947 19.9601 4.11603 19.9601 6.69334V14.7057Z" fill="white"/>
<path d="M11.28 5.35786C8.33016 5.35786 5.93848 7.74955 5.93848 10.6994C5.93848 13.6493 8.33016 16.041 11.28 16.041C14.2299 16.041 16.6216 13.6493 16.6216 10.6994C16.6216 7.74955 14.2299 5.35786 11.28 5.35786ZM11.28 14.0379C9.43987 14.0379 7.94156 12.5396 7.94156 10.6994C7.94156 8.85792 9.43987 7.36095 11.28 7.36095C13.1202 7.36095 14.6185 8.85792 14.6185 10.6994C14.6185 12.5396 13.1202 14.0379 11.28 14.0379Z" fill="white"/>
<path d="M17.2893 5.35784C17.658 5.35784 17.957 5.0589 17.957 4.69014C17.957 4.32138 17.658 4.02245 17.2893 4.02245C16.9205 4.02245 16.6216 4.32138 16.6216 4.69014C16.6216 5.0589 16.9205 5.35784 17.2893 5.35784Z" fill="white"/>
</g>
</g>
<defs>
<clipPath id="clip0">
<rect width="21.3662" height="21.3662" fill="white" transform="translate(0.596924 0.0163879)"/>
</clipPath>
<clipPath id="clip1">
<rect width="21.3662" height="21.3662" fill="white" transform="translate(0.596924 0.0163879)"/>
</clipPath>
</defs>
</svg>
