<svg width="25" height="25" viewBox="0 0 25 25" fill="none" xmlns="http://www.w3.org/2000/svg">
<path d="M1.09778 12.6412C3.35425 11.3983 5.8731 10.3609 8.22658 9.31822C12.2755 7.61042 16.3405 5.93221 20.4465 4.36981C21.2454 4.10359 22.6808 3.84325 22.8215 5.02715C22.7444 6.70295 22.4274 8.36893 22.21 10.0349C21.658 13.6986 21.02 17.3497 20.3979 21.0013C20.1836 22.2176 18.6599 22.8473 17.6849 22.0689C15.3419 20.4862 12.9808 18.919 10.6677 17.2997C9.91002 16.5297 10.6126 15.4241 11.2894 14.8743C13.2191 12.9725 15.2657 11.3567 17.0947 9.35659C17.588 8.16521 16.1303 9.16927 15.6495 9.47691C13.0076 11.2975 10.4304 13.2292 7.64501 14.8292C6.22224 15.6124 4.56397 14.9431 3.14184 14.5061C1.86672 13.9781 -0.00179523 13.4463 1.09766 12.6413L1.09778 12.6412Z" fill="white"/>
</svg>
