<svg width="23" height="22" viewBox="0 0 23 22" fill="none" xmlns="http://www.w3.org/2000/svg">
<g clip-path="url(#clip0)">
<path d="M22.0403 14.7422C21.9829 14.6474 21.6276 13.8864 19.9182 12.3223C18.1287 10.6845 18.369 10.9504 20.5245 8.11846C21.8373 6.39373 22.3622 5.34046 22.1979 4.89019C22.0416 4.46098 21.0761 4.57421 21.0761 4.57421L17.8656 4.59264C17.8656 4.59264 17.6278 4.56104 17.4502 4.66505C17.278 4.76774 17.1671 5.00473 17.1671 5.00473C17.1671 5.00473 16.6583 6.33975 15.9799 7.47465C14.5495 9.86951 13.9766 9.99591 13.7429 9.84713C13.1994 9.50087 13.3356 8.45419 13.3356 7.71163C13.3356 5.39049 13.6922 4.4228 12.6398 4.17265C12.2899 4.0897 12.0335 4.03441 11.14 4.02519C9.9942 4.01334 9.0233 4.02914 8.47441 4.29377C8.10849 4.4702 7.8267 4.86386 7.99898 4.88624C8.21132 4.91389 8.6921 5.01395 8.94717 5.35626C9.27704 5.79732 9.26502 6.79002 9.26502 6.79002C9.26502 6.79002 9.45466 9.52194 8.82297 9.86162C8.38894 10.0947 7.79465 9.61936 6.51926 7.44568C5.8662 6.33317 5.37207 5.10216 5.37207 5.10216C5.37207 5.10216 5.27725 4.87307 5.10765 4.75063C4.90198 4.60186 4.61352 4.55446 4.61352 4.55446L1.56059 4.57289C1.56059 4.57289 1.10252 4.58606 0.934245 4.78223C0.784671 4.95733 0.922226 5.31808 0.922226 5.31808C0.922226 5.31808 3.31275 10.8306 6.01845 13.6099C8.50112 16.1575 11.319 15.9903 11.319 15.9903H12.5957C12.5957 15.9903 12.9817 15.9482 13.178 15.7389C13.3596 15.5466 13.353 15.1859 13.353 15.1859C13.353 15.1859 13.3276 13.4967 14.1235 13.2479C14.9075 13.003 15.9144 14.8804 16.9815 15.6032C17.7881 16.1496 18.4011 16.0298 18.4011 16.0298L21.255 15.9903C21.255 15.9903 22.7481 15.8995 22.0403 14.7422Z" fill="white"/>
</g>
<defs>
<clipPath id="clip0">
<rect width="21.3662" height="21.3662" fill="white" transform="translate(0.864502 0.0163879)"/>
</clipPath>
</defs>
</svg>
