<svg width="23" height="22" viewBox="0 0 23 22" fill="none" xmlns="http://www.w3.org/2000/svg">
<g clip-path="url(#clip0)">
<path d="M21.2548 5.43826C20.6752 4.40734 20.0463 4.21772 18.7656 4.14561C17.4863 4.05881 14.2694 4.02275 11.4824 4.02275C8.69012 4.02275 5.47183 4.05881 4.19386 4.14427C2.91589 4.21772 2.28559 4.40601 1.70069 5.43826C1.10377 6.46785 0.796631 8.24125 0.796631 11.3634C0.796631 11.3661 0.796631 11.3674 0.796631 11.3674C0.796631 11.3701 0.796631 11.3714 0.796631 11.3714V11.3741C0.796631 14.4829 1.10377 16.2696 1.70069 17.2885C2.28559 18.3194 2.91456 18.5064 4.19253 18.5932C5.47183 18.668 8.69012 18.712 11.4824 18.712C14.2694 18.712 17.4863 18.668 18.767 18.5945C20.0476 18.5077 20.6766 18.3208 21.2561 17.2899C21.8584 16.2709 22.1629 14.4842 22.1629 11.3754C22.1629 11.3754 22.1629 11.3714 22.1629 11.3687C22.1629 11.3687 22.1629 11.3661 22.1629 11.3647C22.1629 8.24125 21.8584 6.46785 21.2548 5.43826ZM8.80897 15.3736V7.36123L15.4859 11.3674L8.80897 15.3736Z" fill="white"/>
</g>
<defs>
<clipPath id="clip0">
<rect width="21.3662" height="21.3662" fill="white" transform="translate(0.796631 0.0166321)"/>
</clipPath>
</defs>
</svg>
